<svg xmlns="http://www.w3.org/2000/svg" xmlns:xlink="http://www.w3.org/1999/xlink" viewBox="0 0 260.9 132"><defs><path id="a" d="M0 0h260.9v132H0z"/></defs><clipPath id="b"><use xlink:href="#a" overflow="visible"/></clipPath><g clip-path="url(#b)"><path fill="#FFF" d="M118 107.2s6.5-6.3 11.7-7.5c0 0-4.3-.9-4.9-2.5 0 0-1.7-2.1-4.6-1.2 0 0 2.6 3.3-2.2 11.2"/></g><g clip-path="url(#b)"><path fill="#FFF" d="M131 98.3s5.6-1.5 14.1 7.9c0 0-2.3-5.7 0-9.4 0 0 1.3-2.9-.4-4.2 0 0-.4 1.3-2.7 1.9 0 0-8.2.8-11 3.8"/></g><g clip-path="url(#b)"><path fill="#FFF" d="M117.1 104.4s1.6-1.8 1-5c0 0-5 2.5-6 4.3.1 0 1.7 1.4 5 .7"/></g><g clip-path="url(#b)"><path fill="#FFF" d="M109.7 104.5s1 1 4.1 1.9c0 0 2.1.2 1.8 2.7 0 0 1.3 6.8 6.7 9.3 0 0-7.4-.6-9.5-2.8 0 0 2.3 3.9 2.8 6.2 0 0 3.2 6.4 8.1 8.4 0 0-8.3-1.8-11.5-6.7 0 0-1.4-3.1-6.3-5.3.2 0 3.9-4.4 3.8-13.7"/></g><g clip-path="url(#b)"><path fill="#FFF" d="M124.2 115.2s4.1-4.1 6.7-5.4c0 0-1.3-7.3-6.8 2.1 0 0-4.8-2.8 5-6.7 0 0 .6 0 .4-2.2 0 0-9 3.9-11.3 7.7.1 0 .3 3.1 6 4.5"/></g><g clip-path="url(#b)"><path fill="#FFF" d="M123.2 117.4s11 .4 19.4-8.1c0 0-2.9-8.8-11.7-8.3 0-.1 7.8 11-7.7 16.4"/></g><g clip-path="url(#b)"><path fill="#FFF" d="M116.9 119.5s16.8 7.5 31.3-12.7c0 0-2.5 7.1-3.4 11.8 0 0-1.1 9.3-10.4 12.8 0 0-8.1 2.9-13.1-5.8 0 .1-1.6-3.7-4.4-6.1"/></g><g clip-path="url(#b)"><path fill="#FFF" d="M228 70.6h2.8V58.7l11.5-17.1H239l-9.5 14.7-9.6-14.7h-3.3L228 58.7v11.9zM204 34h-2.8v4.1h2.8V34zm-11.6 10h17.8l-19.1 24.2v2.4h22.6v-2.4h-19.5L213.3 44v-2.4h-20.9V44zm-12.6-10.8h-3.2l-4.3 5.7h2.1l5.4-5.7zm-16.9 22.9c0-6.3 3.3-12.8 10.9-12.8 7.6 0 10.9 6.4 10.9 12.8 0 6.3-3.3 12.8-10.9 12.8-7.6 0-10.9-6.5-10.9-12.8m-2.7 0c0 8 4.6 15.1 13.7 15.1s13.7-7.2 13.7-15.1S183 41 173.9 41c-9.2 0-13.7 7.1-13.7 15.1M134.5 44h10.3c4.2 0 6.3 2.2 6.3 5.8 0 3.5-2.9 5.6-6.3 5.6h-10.3V44zm-2.7 26.6h2.8V57.7H145c5.2-.2 5.6 4.3 5.8 8.4.1 1.2.1 3.4.8 4.5h3c-1.2-1.4-1.2-5.4-1.3-7.4-.2-3.5-1.3-6-5.1-6.5v-.1c3.7-.8 5.6-3.7 5.6-7.4 0-5.2-4.1-7.6-8.8-7.6h-13.3v29zm-37.6-.8v-.1h.3v.2h-.3zm1.2-1.3l.1-.1.3.2-.4-.1zm-.9-1.7s-.2.1-.1.2c-.2 0-.6-.1-.8-.1 0-.1.3-.4.5-.4 0 .1.2.2.4.3m1.1 1.5v-.1l.4-.2v.2l-.4.1zM93 64.7s-.3.2-.5.3c0-.2.1-.4.3-.6-.2.1 0 .2.2.3m1 .4h.1v.5l-.1-.5zm.1-.9v-.1h.5v.1h-.5zm.7-1.8c0 .1-.1.2-.1.4l-.4-.4h.5zm7.3 7.4h-.1l.1-.3h.1l-.1.3zm-9.7-9.6h-.1l.2-.3.1.1-.2.2zm1.3 1.3c0-.1.2-.4.3-.5 0 .1.1.3.3.4l-.6.1zm8.8 8.3c0-.1 0-.2.2-.4.1.1.1.2.2.3l-.4.1zm-7.6-7.9v-.1l.2-.1v.1l-.2.1zm.6-2.1s-.1 0 0 0l-.2.2-.1-.1v-.2l.3.1zm0-1.6s0 .2-.1.4c-.1 0-.5 0-.6-.2.2-.1.5-.1.7-.2M93.1 56s-.3.1-.5.1c.1-.1.2-.3.2-.4 0 .2.1.3.3.3m2.2.7v-.2h.3v.1l-.3.1zm.2.1c0-.1.1-.2.1-.3.1.1.3.1.3.3h-.4zm-.9-3.4h-.5V53h.4c-.1.1 0 .2.1.4m11.2 10s-.4 0-.5-.2c0-.2.3-.5.4-.7.1.3.1.6.1.9m-.5-1.2h-.1l.1-.3h.1l-.1.3zm-7.8-8.7L97 53l.1-.1.5.5-.1.1zm.5-.6h-.1l.1-.3h.1l-.1.3zm-3.2-3.8s-.1.3-.1.4c-.1-.1-.3-.1-.5-.1.1-.1.2-.3 0-.5.1 0 0 .3.3.2.3.1.2 0 .3 0m1 1.5l-.1-.2.1-.1.1.3h-.1zm10 10.2v-.1l.5-.2v.2l-.5.1zM95.3 50.1c0-.1.1-.2.1-.4.1.1.3.2.3.3l-.4.1zm.1-1.9s-.2.3-.5.4c-.1-.2.1-.5.1-.7.2.2.3.3.4.3m.5.7c-.1-.1-.2-.3-.4-.3h.5c.2 0 .1-.1.3-.1l-.4.4zm2.5 1.4l-.3-.1v-.1l.4.1-.1.1zm-1.2-1.5s-.3.1-.4 0c.1 0 .2-.1.2-.2v.1c.1 0 .1 0 .2.1m1 .2s-.1-.1-.2-.3c-.1.1-.3 0-.3.2 0-.1-.1-.3-.1-.5.2.1.4.3.5.3l.1.3zm3.3 2.7c-.1-.1-.2-.1-.2 0 0-.1-.1-.3-.2-.3.2 0 .4.1.4.3M95.6 45l-.3-.1v-.1l.4.1-.1.1zm1.6 1.3s-.3-.1-.3-.3h.1c.1 0 .1 0 .1-.1l.1.4zm1.4 1.5v-.2l.8-.1v.2l-.8.1zm.4-.5h-.3c-.1-.1-.1-.2-.2-.4-.2.1-.2.4-.4.6 0-.1-.2-.3-.4-.3 0-.2.1-.5.1-.9h.4c0 .1.1.2.1.4-.1-.1-.1-.2-.3-.1l.2.2c.2 0 .2-.3.5-.5l.1.1.1.1v.3c0 .2.1.2.1.5m9.6 9.8l-.1-.2h.1l.2.3h-.2zm-1.4-2v-.2h.4v.1l-.4.1zm-1.1-1.7s-.3-.2-.2-.3h-.3l.4-.1.1.4zm-6.5-8.2c-.1.1-.1.3 0 .5 0 0-.2 0-.4-.2-.1.1-.1.2-.1.3l-.2-.2c-.2.1-.2.6-.4.6s-.6-.1-.9-.3c.1-.1.2-.1.3-.2 0 .1.1.3.3.3l.1-.1v-.6c.1 0 .3-.2.5-.4 0-.1-.1-.1-.1-.3.2.2.8.4.9.6m-2.5-1.3v-.3h.2v.4h-.2zm.7-1.1s0 .2-.2.4l-.4-.2c.2 0 .5-.1.6-.2m1 1.1l-.1-.1.2-.2.1.1-.2.2zm.3-.3l-.3-.2.1-.1.2.2v.1zm2.7 1.8c-.2.1-.4.1-.6.1-.2 0 .2.2-.1.2-.2 0-.4-.1-.4-.2.3-.2.7-.1 1.1-.1m6.9 7.6l-.1-.2h.1l.1.2h-.1zm-1.4-1.4v-.3h.2v.2l-.2.1zm-9.9-10.2v-.2h.3v.1l-.3.1zm10.9 10.2h-.1l.1-.3h.1l-.1.3zm-7.6-7.8l.2-.3c.1.1.3.2.4.4l-.6-.1zm9.7 9.3V53h.3v.1h-.3zm-8.6-9.2h-.1l.1-.4h.1l-.1.4zm8.7 7.4c-.3 0-.7.3-1 .5-.2-.1-.1-.5-.1-.4.1.1 0 .1.3 0 .3 0 .3-.4.4-.7l.4.6zm1.2.8s0 .2-.1.4h-.4c.2-.1.3-.3.5-.4m.3.2v-.1h.4v.2h-.4zm.1-.2v-.3l.5.1-.5.2zm-8.8-10.6c-.2.2-.6.1-.7.6-.2-.1-.5-.1-.7-.1-.9.1-.9.8-1 .8-.2 0 0 .1-.2 0-.1.1.1.2.2.2 0 .2-.3.7-.6 1.1h-.3c0-.1 0-.1-.1-.3-.5.3-.6.9-1 .8.1-.2.1-.4.1-.6.2-.3.5-.7.4-1 .2-.1.1-.2 0-.2 0-1.2 1.2-1.4.8-2.4.7.2.2-.5.8-1.1-.1-.1-.3-.1-.4-.3.1 0 .4 0 .6-.1.1-.2 0-.5-.2-.6.3-.2.7-.6 1-1-.1-.3-.1-.3 0-.6h.6c0 .2.2.4.3.7-.2 0-.5.1-.5.5 0 .2.2.6.4.9-.1-.1-.3-.3-.6-.3v.3c.2 0 .4.2.5.4-.3 0-.5.3-.8.5v.3l.5.5c-.4.1-1.1.5-1.4.8v.4h.3c.1.1.1.2 0 .4.1.1.2 0 .4.1.1-.1 0-.1-.1-.3.3 0 .6-.4.8-.4.2 0 .1.3.4.3.3-.3.3-.3.5-.3m-3-1.5v-.2h.2v.1l-.2.1zm-2.1-2.5v-.1l.2-.1.1.1-.3.1zm15.6 14l-.4-.2c0-.1.1-.3.1-.5 0 .2.1.4.3.7M103 40.3s-.3.2-.5.2c.1-.2.2-.5.4-.6l.1.4zm-2.1-2.2v-.2h.2v.1l-.2.1zm2.2 1.4l.1-.3h.1l-.2.3zm-2.4-3.8v-.4h.1v.3l-.1.1zm2.9 2.4v-.4h.2v.4h-.2zm-2.6-2.7v-.6c0 .1.2.2.2.4l-.2.2zm2.4 1.6s-.2.1-.4.1V37l-.1-.1c.1 0 .2-.1.3-.1.1 0 .2.1.2.2m1 1.4l.1-.4.1.1-.2.3zm-2.6-4.2h-.1l.1-.3h.1l-.1.3zm.3.1v-.2h.3v.1l-.3.1zm-.6-.8v-.2h.3v.1l-.3.1zm-5.9 27l-.1.1.4.3.1-.1-.4-.3zm19.8-9.4s-.2-.3-.2-.4c-.2 0-.3.2-.5 0 0-.1.1-.3.1-.4-.1.1-.3.1-.5.1 0-.1 0-.2.2-.2-.2 0-.3-.2-.5-.2s-.3.3-.5.2c.1-.1.2-.2.1-.2s0 .2-.2.2h-.2c-.2-.2-.2-.4-.5-.4-.2 0-.5.3-.7.3v.3c-.5-.2-1.6-.1-1.8-.4-.2.1-.5.3-.7.3.2.4 0 .5-.2.7-.1-.1 0-.2-.1-.4 0 .2-.1.4-.3.4-.2 0-.4 0-.4-.2.3-.2.5-.3.6-.5l.1.1h.1c0-.1 0-.3-.2-.3-.4.1-.8.1-1.2.2.2.3.2.3-.1.7l-.2-.2c-.2 0-.1-.1-.3 0-.2 0 0 .1-.2.1s0-.1-.2-.2c0-.1 0-.3.1-.4-.3.1-.7.2-.9.4-1.4-.5-1.2 0-1.4 0-.3 0-.3-.2-.5-.2-.3 0-.1.1-.5.2-.2 0-.3-.1-.3-.3-.4 0-1.2-.2-1.4-.1-.2 0-.2.5-.4.7.1 0 .3 0 .4.2-.2 0-.4.2-.6.3-.1-.2-.3-.3-.5-.3 0 .2-.2.6-.1.8.5.4.5.6.7.9.2.1.4.4.6.4.2 0 0-.1.2-.1.8-.1 1.1.6 1.5.8.4.1.7.3 1 .5.2.3.4.6.8.9-.2.6.5 1.4.7 1.4h.2c.1.1 0 .2.2.3-.2.1-.4.2-.5.2 0 .2.2.5 0 .6h.2l-.3.3c.1 0 .2.1.2.2-.2.3-.3.9-.3 1.2 0 .1-.1.1-.1.2.1.1.3.1.3 0 .1.1.1.1.1.2l-.2.3-.1-.1h-.2c-.6 0-.2.4-.6 1 .1.2.2.5.2.6-.1-.1-.1-.2 0-.3l-.2.2c-.1 0-.1-.1-.1-.3-.1.7-.7 1.7-1.2 2.3.1 0 .3 0 .3.1v.1l-.5.1c-.7 1.1-1.3 2.3-1.8 3.1-.3.4-.8.8-1.1 1.1-.2.2-.2.8-.4.8-.3 0 .1-.1-.2-.1-.2 0-.4.5-.5.6-.5.3-1.1.6-1.6.9-.3-.1-.5-.3-.9-.5 0-.4-.2-.8-.4-1 .2 0-.1-.4-.2-.6 0 0-.3-.1-.3-.2.4-.5-.2-1.1-.2-1.6v.1l-.2-.1c.1-.2.2-.3.4-.4v-.5h-.4v-.4c.3-.2.2-.9.1-1.2.2-.1.2-.5.2-.7 0-.2-.5-.5-.5-.7 0-.1 0-.1.1-.1l.1.1c0-.1 0-.3-.2-.4.2-.3.3-.5.3-.7 0-.2-.2-.5-.5-.6v-.5c.1-.1.3-.1.5-.2.1-.2-.2-.9.4-1.2l-.4-.8c-.1 0-.1 0-.3-.1.2-.1.5-.3.5-.8 0 0-.2 0-.3-.1.1-.1 0 0 .3 0 .2 0 0-.4.2-.5-.5.2-.3-.1-.6-.4.7 0 .9-.7.9-1.4h.4c-.1 0-.3 0-.4-.1 0 0 0-.1.2-.2h.3c-.4-.3 0-.7.3-.7.2 0 .1-.1.3 0-.1-.1-.2-.3 0-.4.1.1.3 0 .5-.1-.1-.2-.4-.4-.4-.5.2-.1.1.1.4.1.2 0 .3-.1.4-.1v-1c.1 0 .3.1.3.3 0-.3-.1-.3-.3-.5l-.5.3-.2-.1c.1-.4.7-.5.9-.7-.5-.5.4-.5.5-.8.1-.5.3-.9.5-.9-.2 0-.5.3-.7.3h-.1c.1-.3.3-.5.3-.8 0-.2-.1 0-.1-.2.2 0 .2-.1.5-.1.2 0 .3.2.4.4 0-.3.1-.5.3-.5-.4-.3-.4 0-.9-.1.1-.1.1-.1.2 0l.2-.2h.4c0-.2.2-.4.5-.4-.1-.2 0-.6.2-.9.1.1 0 .1.2.1s.4-.3.4-.4c-.3 0-.5.1-.8 0l.2-.3c.1.1-.1.2.1.2.3 0 .2-.3.5-.3s0 .2.2.2.4-.5.5-.6l-.3-.3c.3-.2.5-.4.6-.6h-.8c.2-.1.5-.3.6-.4l.2.1c.1-.2.1-.4.3-.5-.2-.1-.2 0-.3-.3.1.1 0 .1.2.1.3 0 .3-.4.3-.5-.2-.1-.6-.1-.7-.3.4-.1.7-.5 1.1-.6 0-.2-.1-.3 0-.5.1 0 .2-.1.3 0 .2-.7.6-1.5.8-2.2-.1 0-.4.1-.5 0 .2-.2.3-.4.4-.5l.2.2c0-.2 0-.5.1-.7-.1 0 0 0-.3.1-.2 0-.1 0-.2-.1.1-.1.1-.2.2-.4.2.1.2.3.4.3v-.7c0-.2-.4-.5-.5-.8l.4-.4v-.5c-.1 0-.3 0-.4-.1l.4-.4-.1-.1v-.1s-.1 0-.1.1c-.1-.3 0-.5-.1-.7-.1 0 0 .1-.3.1-.2 0-.1-.3-.1-.5-.2 0-.4 0-.4-.1s.1-.1.2 0l-.1-.1v-.1c-.2 0-.5 0-.9-.1.3-.2.7-.3.9-.6l-.2-.1h-.1c0 .1 0 .2-.1.2-.1-.2-.3-.5-.5-.5s-.5.3-.8.3c0-.2-.2-.1-.3-.3.1-.1 0-.1.1-.2.2 0 .5 0 .7.2v-.4c-.2.1-.4 0-.7 0-.2 0-.5.2-.9.3 0 .3-.1.3-.1.5-.1-.1.1-.2-.1-.2s-.1.2-.3.2c0 0 .2 0 .4.2-.2.1-.2.3-.4.4.3.1.1.1.5.5-.2.2-.5 0-.6 0 .1.3.2.8-.3.8-.2 0-.9 0-1.4.1.3 0 .6 0 .8.1 0 .2 0 .4-.1.6.1.1.3.1.4.2l-.1.2c-.1 0-.3 0-.5-.2 0-.1-.3-.2-.4-.2 0 .1.2.2 0 .4h-.2l1.2 1.2-.3.1c-.1-.1 0-.2-.1-.2-.1.6-.8.3-.9.7l-.1-.2c0-.1.1.1 0 .3-.3 0-.6-.1-.8-.1.1.2 0 .3 0 .5 0 0 .1 0 .2-.2.2.2.5.3.6.4 0-.2.1-.4.3-.4.5 0 .7.3 1 .5-.1.1-.2 0-.2.1-.3 0-.3-.3-.5-.3h-.4c.1.2 0 .4 0 .5-.4 0-.6-.1-.7-.1.1.6-.7.4-.8.5 0 .2-.1.4-.5.5.2 0 .5 0 .7.2l-.1.2c-.2-.1-.5 0-.6 0 .2 0 .4.1.6.2l-.3.1c-.2-.1-.2 0-.5 0 .1.1 0 .4.3.5-.1.1-.2.1-.4.1.1.1.3 0 .4.2-.1.2-.4.5-.6.5.1.3.1.5-.1.6.1 0 0 0 .2-.1.2 0 .4.2.6.4-.3.3-.4.6-.7.8-.2-.3-.5-.3-.7-.4.2.6-.4.7-.6 1.1-.1.3 0 .5 0 .8-.1.2-.1.5-.2.6.4-.2.7-.5.9-.6.2.1.3.4.4.5-.4.2-.7.2-1 .2-.7.9-.7.8-.7 1.3 0 .3.3.1.1.2-.1 0-.3 0-.4.1h.5c-.3.6-.4 1.1-.7 1.6.1 0 .1-.1.4-.1.2 0 0 0 .2.2 0 .2-.4.4-.5.4.1.3.5.5.5.7 0 .3-.3 0-.5 0 0 .2 0 .4-.2.4.3 0 .5 0 .7.2-.2.1-.2.3-.4.3h-.2l-.2.3s.5 0 .7.2c-.2.2-.2.3-.4.3s0-.2-.2-.2l-.2.1v.1h.2l.2.1-.5.5c.1 0 .3-.1.4 0v.3c-.4 0-.3 1.4-.2 1.6-.1.1-.2.6-.5.6s.1-.1-.2 0c-.2 0-.3.8-.4 1.1 0 .2-.3.3-.7.4v.5c.2-.1.3-.2.5-.4.1.1.3.1.3.3-.3.1-.4.5-.6.5-.1-.1-.2-.3-.4-.2l.1.7c-.3 0-.4.1-.5.1 0 .2-.1.5-.1.8 0 .3.2.6.3.9 0 0 0 .1-.1.2s.1.4.3.5c.4 0 .3-.5.9-.5.2 0 .2.3.4.4l-.2.2c-.1-.1-.5 0-.6 0 .1 0 .2 0 .4.2.3.1 0 .5 0 .6 0 0 .1 0 .3.1-.3.2-.4.5-.4.9.1 0 .2 0 .3.1-.4.4-.3.6-.3.9 0 .3.1.5.2.6.1-.1.2-.1.2-.1-.1.1-.2.2-.4.2l.1.8c.2-.1.4-.1.6-.3.1.2.3.2.3.4v.2h-.9c.1.3.1.7.1 1l.3-.3c.1.1.1 0 .3.1-.1.2-.3.3-.5.5h.4v.3c0 .1-.1.1-.3.1.2.1.4.3.4.5 0 .3 0 .3-.1.5.2 0 .5-.1.7 0 0 0 0 .1.1.2-.4.1-.2.7-.2.9 0 .1-.2.2-.2.4.2 0 .1.3.1.4.2.1.5 0 .5.2-.3.2 0 .2 0 .6l.2-.2c.1.3.5.4.5.5 0-.1.1-.1 0-.3.1.2.2.3.1.5.1-.2.1-.4.2-.5.4.3.9.4 1.2.7-.7.1-1.1 0-1.2.3.3.1.6.1.8.3 0-.1.1-.2.2-.3.2.2.3.5.5.4.2 0 .7-.1.9-.2.2 0 .1 0 .3.2.1-.2.3-.5.3-.3 0 0-.1 0-.1.1v.1c.2-.2.4-.3.5-.3.3.1.6.8 1 .8.3 0 .4-.1.5 0v-.5c.5 0 .7-.5.7-.6.2.2.3.1.5.4-.2-.3-.2-.5-.2-.7l.2.1s0-.2.2-.2.4 0 .6.1c-.1.3-.1.5-.3.6.2-.1.4-.5.7-.7.1.1.2.2.3.1.3-.5.9-1.1 1.7-1.7-.1-.2-.2-.4-.1-.5.2 0 .4 0 .4-.1h-.4c-.2 0-.1 0-.2-.2 1-.2 1.6-1.4 2.2-1.8l-.3.1c-.1-.1-.5-.1-.5-.4 0-.3 0-.3.1-.5h.5c.5 0 1.2-1.1 1.2-1.3-.4-.1-.3-.4-.2-.5.1 0 .2 0 .2-.1.1.2.2.4.1.5.1-.1.3-.2.3-.2v-.5c-.2.1-.3.1-.3 0 .2-.1.4-.5.5-.6-.1-.2-.2-.4-.2-.5-.1 0 .1.1-.2.1-.2 0-.1 0-.2-.2h.6c.1-.2-.1-.4 0-.6.1 0 0 .1.2.1s.5-.7.5-.9c-.1-.2-.4-.3-.5-.5 0-.2-.1 0 0-.2.1.1.3.2.4.2l.6-.5c-.1 0-.1.1-.4.1-.2 0-.5-.4-.7-.5.2-.2.3-.3.5-.4l.3.4c.3-.3.6-.3.9-.2 0-.1.1-.2 0-.5 0-.2-.2-.2-.2-.4.2-.2.5-.5.4-.8 0-.3-.5 0-.5-1 .2 0 .5.3.6.2-.4-.2-.5-.6-.9-.9.1-.1 0-.2.1-.3.1 0 .1.2.3.1.2 0 .2-.1.2-.3-.2-.4-.5-.3-.7-.7-.7.2-1.1-.1-1.4-.4.4-.2 1-.9.9-1.4.2-.2.2-.5.5-.5.2 0 .2.1.5.1.2 0-.1-.2.1-.2.3 0 .2 0 .3.2l.2-.3c-.2-.2-.3-.4-.3-.7 0 .1.2 0 .4.1-.1.2.2.3.3.2-.2.3-.1.1.2.4 0-.1-.2-.2.1-.2.2 0 .5-.5.7-.5l.2.2c.4-.4.7-.2 1.2-.3V52c-.1 0-.3 0-.3-.2.5-.4.2-.3.5-.7.2.1.3.1.5.2.1.2.3.4.5.5 0-.1-.2-.1 0-.3.2.1.4 0 .6 0 .1.3.4-.2.7-.4m-19.6-8.4l-.1.3h.1l.1-.3h-.1zm1.6-3.7h-.3s.1-.2.1-.4c0 .2-.2.4-.2.5.2.1.3.1.4.3V39zm1.6-1.8c-.5-.1-.9 0-1.2.1.2.2 0 .6-.1.7.3-.1.8 0 1.1 0-.1-.1-.3-.2-.3-.4l.5-.4zm.6-2.1v.1h.5l-.5-.1zm3.6-2.1h-.1l.1.3.1-.1-.1-.2zM70.1 70.4h-.3l-.2.2c0-.1.1-.3.1-.4.2.1.3 0 .4.2m5.8-5.2v-.1l.5.1v.1l-.5-.1zm.7-.5h.4v.2h-.4v-.2zm-.1-.4h.3v.2h-.3v-.2zm.5 0h-.1l.1-.3h.1l-.1.3zm.7-.4s-.2.1-.4.1c0-.1.1-.3.2-.5.2.2.2.2.2.4m-.4-.9l.1-.1.3.4-.4-.3zm-6.4-7.7c-.1 0-.1 0 0 0-.1 0-.2-.1-.2-.1 0-.1.1-.2.1-.4.1.1.4.1.4.2l-.3.3zm15.3 14s-.4 0-.4.2c0-.1-.1-.3 0-.4 0 .1.3.2.4.2m1-2.2c0-.1 0-.2.2-.2.1-.1 0-.2 0-.4.1.1.2.4.2.5h-.4zm1-.2c-.3 0-.4-.1-.5-.1.2-.6.5-.1.3-.8.3.4.2.6.2.9M87.1 65c-.2.1-.5 0-.7 0 .1-.1.4-.4.5-.4.1.2.1.3.2.4m-6.2-6.4v-.1l.3-.1v.1l-.3.1zm8.5 5.3c0-.1.1-.4.3-.4 0 .1.1.2.1.4h-.4zm-.4-1.1s-.3 0-.3-.2h.1l.2.2zm-.1-.7c.2 0 .4-.1.6-.3v.7l-.6-.4zm1.1.8l.3-.4.1.1-.4.3zm-18 7.7l-.2.2.1.1.3-.2-.2-.1zm13.5.3c-.2.1-.4.1-.5.3h.4c.1-.1.1-.2.1-.3m.5 0h-.1l.1.2h.1l-.1-.2zM72.1 55.1c-.2.2-.2.3-.2.5.2-.2.3-.5.2-.5m19.8 6.3s-.1 0-.2.2c-.3-.6-.9-.4-1.2-.7l.1-.1c-.3 0-.5.1-.6.1l.3.3-.2.2.3-.2c.3.2.5.3.6.5-.2.3-.3.4-.5.6 0-.2 0-.4.1-.6-.5-.1-1-.1-1.4-.2-.2.4-.6.7-.9.9v.5c.2.2.6.1.8.5-.2.1-.4 0-.6 0 0 .3-.2.5-.3.5-.2-.2-.2-.4-.5-.4-.2 0-.2.1-.4.1v.7c0 .3.2.4-.1.7-.1-.2 0-.4-.1-.6-.1.1-.2.3-.4.3-.3 0 .1-.1-.2-.1-.2 0-.2.5-.5.8l.4.4c-.2.1-.3.4-.5.5l-.3-.2.1-.2c-.2-.2-.3-.4-.3-.5-.1.1-.2.4-.4.4.1 0 .3.1.3.3-.1.1-.3 0-.4 0 0 .1.2.1.2.3-.8.2-.6.8-.8 1.1-.1-.1-.2-.1-.3-.2-.2.7-.7.7-1.5 1.1-.1-.2-.1-.5-.6-.5-.2-.5-.1-1-.3-1.5-.2 0-.3-.2-.4-.4.5-.1-.1-1-.3-1.2 0-.1 0-.2.1-.4 0-.5-.3-1-.6-1.4.1-.1.2-.1.3-.2-.4-.3 0-.8-.2-1.2l.1-.1c.2.1.4 0 .5-.1 0-.4-.4 0-.6 0-.2 0-.1 0-.2-.1.1-.2-.1-.3-.1-.4.9-.1.1-.9.9-.9.1.1.1.2.3.2v-.4c-.3-.1-.5-.2-.7-.4l.1-.2h.3l.3.2c-.1-.2-.3-.4-.4-.5.2-.2.5-.4.6-.4-.1-.5.1-.7.1-.9 0-.2 0-.2-.2-.3.2-.1.4-.4.3-.4-.1-.5.6-1.5.7-2.1-.1-.1-.3 0-.4-.2.2-.1.5-.1.6-.2-.2-.1-1-.3-1-.6s.3-.8.4-1.3c-.1 0-.2.1-.3.3l-.1-.5c.1-.1.3-.1.3-.3-.2 0-.4-.1-.3-.3-.2.2-.2.5-.3.4.1 0 .2 0 .2.1l-.2.2c-.4-.3-.9-.9-1.1-.9-.4 0-.5 0-.9.3 0 .7-.5 1.8-.8 2.4 0 .2.1.4 0 .5-.5.4-.4.7-.7 1 .2.9-.8 1.4-1 1.9-.5 1.4-.9 2.4-1.5 3.4-.1.3-.5.5-.7.8.1.2.3.3.1.5-.1 0-.3-.1-.5 0 .5.4-.5.7-.6.7.1.2.1.4 0 .5-.1 0-.2 0-.2-.2l-.3.2c.1.2.2.4.1.5-.4 0-.7.1-.8.2-.9 1.1-2.2 2.7-3.8 3.2 0-.2-.3-.4-.7-.6v-.3c.3.1.5.2.6.2l.1-.5c-.1-.1-.2 0-.5 0-.2 0-.2-.1-.2-.2.5-.2.2 0 .2-.5.1 0 .2 0 .3.1 0 0-.1.2-.1.4.1 0 .4-.1.5-.1-.1-.3-.5-.6-.5-.9 0-.2 0-.2.1-.3h.2c-.1-.2-.1-.4-.3-.5l.4-.4v-.6c-.2 0-.3 0-.3-.1.2-.1.4-.2.5-.2-.2-.7-.2-1.8.5-2.1 0-.2-.1-.4-.3-.4.4-.2.6 0 .8-.2 0-.6.1-.3.3-.6 0-.3-.1-.5 0-.7.6-.4.7-1.4.5-1.8 0-.1.3-.2.3-.3-.2-.1-.3-.2-.5-.5h.4c.1.4.5.4.5.4 0-.2.3-.5.5-.6-.3-.2-.8-.5-.8-.7 0-.2.2-.6.2-.9-.4-.2-.9-.2-1.3-.5 0 0 .2-.1.4-.1 0-.1-.2-.2-.2-.4-.3.1-.5.1-.5 0 0-.2.2-.8 0-.6l-.3-.3-.3.2c-.1-.1-.3-.1-.3-.3-.3 0-.5.2-.6.3v.5c-.4 1.1-.7 2-1.2 3.3.1.2 0 .5 0 .7 0 .2-.3.4-.5.5 0 .3-.1.8-.3 1.1.1 0 .1 0 .1.1l-.4.2-.1-.1h-.1c-.3.8-.5 2.1-.5 2.3 0 .3.2.8 0 1.1H65c.5.9.2 2 .3 2.6 0 .3.2.6.3.8.4.2.5.3.4.8 0-.1-.1-.1.2-.1.2 0 0 .3 0 .4 0 .5.8 2.4 1.6 2.8.1.2.2.5.1.6 0 .1.3.1.5.2-.1.2-.3.3-.3.4.1.1.3.3.3.5 0-.2.2-.3.3-.3.1.1 0 .3.1.4h.6c0-.2-.1-.4 0-.5.1 0 0 .2.3.2s0-.1.3-.1c.2 0 .6.3.9.3l.3-.8c.2 0 .3.2.2.3 0 .1.2 0 .3 0-.3-.3.1-.7.2-.9-.1-.1-.2-.2 0-.4.2.1.3.3.5.3s.3.2.5.2v-.5h-.2c.5-.1.8-.3 1.2-.4 0-.1 0-.3.1-.4l-.4.1c-.1-.1 0-.3-.3-.3-.1 0-.1 0-.1.1.1-.5.5-.4.5-.4 0-.1-.1-.2 0-.4.1.1.2.2.2.4h.4c0-.2.1-.4.3-.4-.2 0-.4 0-.4-.1 0-.3 0-.6.1-.8.1.1 0 .1.3.1.2 0 .7-.5.9-.3-.8-.4.4-.9.6-1.1-.1 0-.1-.1-.1-.2.2 0 0 .1.3.1s.6-.9 1.3-.9c.3 0 .1-.1.2 0 0 .2.2.4.2.7 0 .3-.1.5-.4.6.5.1.2.9.4 1.2.3.2.9 1.3.9 1.7.2-.1.3-.3.4-.3.1.2.2.4.3.5-.4.2.4.5.7.8-.2 0-.3.1-.3.2.1 0 .2-.1.4-.3.1 0 .1.2.4.2 0 0 .3-.1.6-.1v.6c.1-.1.3-.5.5-.5.3 0 .4.3.5.5-.2.1-.4.1-.5.1.2.2.5.5.6.5.1-.4.5-.4.7-.4.1.2.3.4.5.7.2-.2.5-.4.7-.4-.2 0-.4-.1-.3-.3.4-.2.2-.4.2-.5.4-.2.9-.5 1.1-.5.3 0 .1-.1.2 0 0 .1.1.1 0 .2-.1 0-.1-.1-.1-.1 0 .1 0 .3-.1.4 0 0-.2-.1-.4-.1 0 0 0 .4-.2.6.4-.1.9-.8 1.4-.6 0-.3.1-.6.3-.8.1.1-.1.2.1.2h.4c-.2-.1-.4-.2-.5-.3.2-.1.1-.2.4-.3.1.1.2.1.4.1l-.3-.3c.2-.1.4-.1.6-.3v-.3c-.2-.3-.5-.4-.7-.5.3-.2.3-.4.5-.4 0 0 .4.2.5.4h.1c0-.1.3-.4.5-.4 0-.7.3-.9.3-1.2 0-.3-.4-.4-.4-.6 0-.4.5-.4.8-.5l.2.2s0-.1.2-.3l.3.2c-.4-.4.1-1.1.4-1.3 0-.3-.3-.3-.2-.8.3 0 .4.1.5.1 0-.1 0-.2.1-.4.2 0 .5 0 .7-.1h-.2c-.1-.2-.3-.4-.5-.5.3-.2.6-.4.8-.4.3 0 .3 0 .4.2v-.5zm-1.8 3.7c.1 0 0 .1 0 .2-.2.1-.5.2-.7.4-.1-.1-.1-.3-.2-.3 0 .1.2.4.2.5.3-.2.9-.4 1-.5l-.3-.3zm-7.4-11.6h-.5v.2h.5v-.2zm.1.2l-.1.2h.1l.1-.2h-.1zm.2-.9s-.5-.1-.6-.1c0 .1.1.2.2.4l.4-.3zm8.7 7.5s0-.1-.2-.2h-.2c-.3.1-.7 0-1 .1.3.2.6.5.9.5.2 0 .2-.1.3-.1.1-.1.2-.1.2-.3m-.4-1.1l-.2.1v.1l.3-.1-.1-.1zm.7-.1l-.2.1h-.1l.3.2s.1-.1 0-.3m-37.9 7.2h.1l.1-.2-.2.2zm0 4.9l-.4-.2h.1l.2-.1v.3zm-.2-1.4s-.4 0-.5-.2c.1.2.3.1.5.2m-1.6-2.2c-.1 0-.2 0-.2.2-.1 0-.2-.1-.4-.3l.6.1zm.9.3h.2v.1l-.2-.1zm-.1-1.7h.2v.1h-.2v-.1zm1.3-.2v.4H54c-.1-.1-.2-.3-.2-.4.1-.1.4 0 .6 0m5.5 4c-.1-.1-.1-.2-.1-.2h.3l-.2.2zm-5.7-6s-.4-.3-.6-.3l.2-.2s0 .1.1.1c0 0 .2-.2.3-.2-.1.2 0 .5 0 .6m6.4 4.7v-.3l.3.3h-.3zm-8.1-9.6V59l.4.1v.1l-.4-.1zM62.6 68h.1v.5l-.1-.5zM55 59.8l.1-.3h.1l-.2.3zm-1.4-2.7c-.1.1-.2.1-.3.1 0-.1.1-.3.2-.3-.2.1-.1.2.1.2m.4.4h.2v.1H54v-.1zm9.4 8.2c.1.1 0 .2-.1.4-.1-.1-.2-.2-.2-.4 0 .1.1.1.3 0M55.5 58c0 .1-.1.1-.3 0 .2 0 .3.1.3 0m-2.2-2.7s-.2.4-.4.4h-.2c0-.1-.2-.1-.4-.1V55h.1l.3-.3h.3c.1.2.2.5.3.6m-1-.4l.1-.2h.1l-.2.2zm1.8 1.5h.4v.1h-.4v-.1zm8.9 8.5c-.1.1-.1.2 0 .4-.2 0-.6 0-.9.1.4-.2.7-.5 1-.9.1.1.4.2.6.4H63zm-8.1-8v-.1l.2.1h-.2zm9.4 8.7s-.1.3-.1.5c-.2-.1-.2-.4-.2-.5h.3zm0-.6s-.2.2-.2.3c-.1 0-.2-.1-.4-.2h.3c.1-.1 0-.2.2-.4l.1.3zm-.5-.8c-.1.1-.1.2-.1.3v-.2h.1c-.1-.1-.1-.1 0-.1m.6 0c0 .1 0 .3-.1.5 0-.1 0-.1-.2-.1v-.3c.2-.1.3 0 .3-.1M53.2 53s-.3.1-.4 0c0-.1.1 0 .3-.2l.1.2m11.3 10.6h.1v.3l-.1-.3zM54.4 52.7l.2.4-.2-.4zm1.5 1.4h.2v.1h-.2v-.1zm10.3 9.7s-.1 0-.3.2c0-.1 0-.2-.2-.2s0 .1-.1.1c-.2 0 0-.2-.2-.2s-.1.1-.1.1-.2-.1-.2-.3l-.1.2c0-.1-.4-.4-.5-.6 0-.1.3-.2.5-.3h.1v.2c.3.4 1 .4 1.1.8m-12-11.7H54V52l.2.1zm-1-1.1h.2v.1h-.2V51zm0-.2h.1v.2l-.1-.2zm2 2.3s0-.1 0 0c-.1-.1-.1-.2-.1-.3.2.1.3.2.1.3m1.7 1.5h.3v.1h-.3v-.1zm7.4 8c.1-.1.2-.3.4-.3s0 0 0 .1v-.2c.1 0 .2 0 .2-.1.1.1 0 .2-.1.3 0 .1.1.2.3.3l-.8-.1zm-9.5-10.5s-.1 0-.3.1c0-.1-.1-.2-.3-.2h.1s.1 0 .1-.1c0 .2.3.1.4.2m1.3 1.2h.3-.3zm-.9-1.2s-.1 0 0 0h-.3c0-.1 0-.2.1-.2l.2.2zm3.1 1.9c-.2.1-.4.3-.4.5h-.1s-.1 0-.1-.1c-.1 0-.2.1-.3.3v-.3c0-.1.1-.2.3-.4v.2c.2-.2.2-.4.4-.5 0 .2 0 .2.2.3m-1.7-1.2s-.3.1-.5 0c0 0-.1-.1-.1-.2.1 0 0-.1.2-.1.2.1.4.1.4.3m1 1.3l.2-.2v.1l-.2.1zm-3.1-3.9c-.2.1-.3.3-.4.5 0-.1 0-.3.1-.5h.3zm1.1 1.2s-.1.1-.2.1v-.1h.2zm-1.4-1.8v.2c-.1 0-.2-.2-.4-.3.1 0 .3-.1.4-.3v.4zm4 4h.3v.1h-.3v-.1zm-2.5-3.3s-.3 0-.5-.2c.1 0 .2-.1.3-.1.2.2.2.3.2.3m2.5 2.2c-.1 0-.2 0-.3.2 0-.1 0-.3.1-.4l.2.2zM56.9 51s-.2.2-.3.2h-.3c0-.1.1-.4.1-.6.2.1.4.2.5.4m10 9.9h.1v.3l-.1-.3zM54 47.6h.1v.3l-.1-.3zm1.4 1.3v-.1l.2-.1v.1l-.2.1zm-.4-1.2s-.1.3-.3.3l-.1-.3h.4m3.1 3.1l-.2.2c-.1-.1-.3-.2-.3-.4l.5.2zm.7.8h.1v.3l-.1-.3zm-4.1-4.3s-.2 0-.3.2c0-.1-.2-.3-.1-.5.2 0 .2.1.4.3m3.5 3.1s-.2.2-.2.3c-.1 0 0-.1-.1-.3h.3zM55 46.5s0 .1 0 0c-.1.1-.1.1-.2.1s-.3 0-.5-.1c0-.1.1-.2.1-.5.1 0 .3.2.6.2v.3zm1 0s-.3-.1-.5 0c0-.1.1-.2.3-.2.1 0 .2.1.2.2m3.6 3.2c-.2 0-.5.2-.8.2 0-.1.2-.5.3-.5.3 0 .3.1.5.3m-.4-1s-.2 0 0 .3c-.1 0-.6.3-.7.3-.1-.2 0-.5 0-.8.1 0 .3-.1.5-.1.1 0 .1.1.2.3m.8 1.4c-.1-.1-.1-.2 0-.3v.3zM57.1 46c0 .3 0 .2-.2.4 0-.2 0-.3.2-.4m-1.3-1.6c0 .1 0 .2-.2.2-.1 0 .1.1.1.3h-.4c.1-.2.3-.4.5-.5m4.1 4.3l-.3-.1v-.1l.3.1v.1zm-3.3-3.4l.1-.3c.1.1.1.3.2.3h-.3zm-.9-1.5h-.4s0-.3-.1-.4c.1 0 .4 0 .4-.1l.1.5zm1.9 1.9s-.2-.1-.2-.2c0 0 .2.1.2 0v.2zm-1.1-2.6v.5c-.1 0-.3-.1-.5-.1.1 0 .2-.3.3-.3l.2-.1zm-.2-.2c0 .2-.1.2-.1.4-.1 0-.2-.1-.3-.3l.4-.1zm4.7-4s-.1.2-.5.4v.2l.1.1c.1-.1.2 0 .2-.2 0 .1 0 .4-.1.4-.2 0 0-.1-.2-.1-.1 0-.2.3-.3.5 0 .1 0 .2.1.2h.2s.1.2.1.4c-.1-.1-.3 0-.5 0v.2c-.3.2-.2.6-.1.8v.2c-.1 0-.2.1-.3.2.1.4.4 1 .4 1.2 0 .2-.5.5-.9.5-.1.1-.1.3-.1.4 0 .2.2 0 .2.1s0 .4.1.5c-.4.1-.5.4-.8.7.1 0 .2.2.3.4h.1v.2c.1 0 .1.2.3.2.2 0 .1 0 .3.1-.3.2-.6.3-.8.5l.2.2c0-.1 0-.1.2-.1s.1-.2.3-.2c0 .1 0 .5-.2.6 0 .1.2 0 .3.1h-1.1c-.2 0-.3.5-.6.8 0 .1.1.2.1.2v-.1l.1.1h.3c-.2.1-.5.2-.9.3 0 .1-.1.3-.1.5.1-.1.1-.2.2-.3-.1.2-.2.5 0 .7 0 .1-.3.1-.3.5v.1h-.7c0-.3.1-.6.1-.7 0-.3 0-.2-.3-.4 0 0 .1 0 .3-.1l.1.1.1-.1v-.1c0-.4-.4-.3-.7-.4 0 0 .5-.2.6 0l.3-.3h-.3s.1 0 .2-.1c-.1-.1-.2 0-.3-.2h.5c.1-.2 0-.4.2-.6 0-.1 0-.2-.2-.4.1-.3.3-.6.4-.8 0-.3.1-.5.3-.7 0-.3-.5-.5.2-.8 0-.1-.2-.1-.2-.3h.3c0-.3.2-.7.4-1l-.2-.1V43c.3-.4.6-.7.8-1 .1-.4.1-.9.3-1.2.1-.1.2-.4.4-.6 0-.1-.1-.3 0-.4l.2.1c0-.7.4-1.4.9-2.1-.1.3-.4 1 0 1.1m.1 8.1v-.3c-.1-.1-.3-.1-.5-.3 0-.1.1-.2.1-.4.1.1.3.1.5 0 0 .1.1.2.2.3v.7h-.3zm-3.9-4.7c-.1 0-.2.2-.2.4 0-.1-.1-.2-.2-.3.1 0 .2-.1.2-.3l.2.2zm3.4 3.2s-.2 0-.4.2c0-.1 0-.3.1-.4.1 0 .3.1.3.2M56.8 41c-.2.3-.5.5-.7.5 0-.1.1-.2.2-.3-.1-.1-.2-.3-.3-.4.1 0 .2-.1.2-.3h.4s-.1.1-.2.3c.1.2.2.2.4.2m3.4 4.2c0-.1 0-.1 0 0l-.1-.2c.2 0 .2-.1.5-.1v.1s0 .1.1.1l-.5.1zm-2.7-3.8s0 .3-.2.5c0-.1-.3-.2-.3-.4.2 0 .3-.1.5-.1m3.7 3.2s-.1.3-.3.3c-.2 0-.3-.3-.4-.3.1 0 .3 0 .5-.1 0 0 .1.1.2.1m.6-.1s-.1 0 0 0h-.2c-.1 0-.1-.2-.2-.3-.2 0-.4-.1-.6-.2 0-.1.1-.1.3 0 0-.1 0-.4.2-.4-.1.5.5.5.5.9m.4-1.1s-.4.4-.5.4v-.2c0-.1.2-.3.3-.5.2.2.2.3.2.3m-.4-1.7s-.1.2-.1.4h-.3c-.2 0-.4.3-.5.5-.1-.1-.4-.2-.5-.2h.4c.1-.1.2-.5.4-.6 0 0 .3-.1.6-.1m-1.3 0l.4-.2v.1l-.4.1zm.3-.5s-.1 0-.3-.1c0-.1.1-.2.3-.3v.4zm1.6 1.7l.4-.5.1.1-.5.4zm-1.7-2.4c.1-.1.1-.2.2-.3 0 0 0 .1.2.3h-.4zm1.8 1.5l.2-.3v.1l-.2.2zm-3.8-4.6s-.1-.2-.3-.2c-.2 0-.1.1-.3.1 0-.1.2-.2.2-.3.2.1.4.3.4.4m2.3 2.4h.3v.2H61v-.2zm-1.8-2.4h.2v.1h-.2v-.1zm4.1 3.3s-.3.4-.4.6v-.6h.4m-4.4-4.1s-.1 0-.3.1l.1-.3c.1.1.2.1.2.2m3.8 2.8h.1v.3l-.1-.3zm-.6-.3V39l.5.1v.1l-.5-.1zM61 37.8c0-.1 0-.1 0 0 0-.1.1-.1.1-.2 0 0 .3.1.3.3l-.4-.1zm-1-2.2c-.2-.1-.3-.2-.5-.2 0 .2-.1.4-.3.5 0-.2.1-.5.1-.7h.4c.2 0 0 0 .1.1 0-.1.1-.1.2-.1v.4zm-5.9 36.1v.2h.1l-.1-.2zm9.6-2.6v.4h.1l-.1-.4zm1.1-7.6h.2-.2zm-.1-.3l.2-.2-.2.2zm1.5.7c-.2-.1-.2-.6-.2-.7 0 .1.1.1 0 .1s-.1-.2-.7-.2l.2.2.1-.1v.2c-.2.2-.2.4 0 .5h.6m.3 1.4H66c-.1 0-.2-.1-.2-.4v-.1s.1 0 .2.1c0 0 0-.3.1-.3-.1 0-.2 0-.4-.1v-.6h-.4c0 .1 0 .2-.2.2-.1-.1 0-.2 0-.3-.1 0-.1-.1-.3-.1 0 .1-.2.2-.3.2-.2 0 0-.1-.1-.1-.2 0 0 .2-.2.2s0-.1-.2-.1-.2.4-.4.5v.6h.4v.7c-.5.2-1.3.6-1.4.7.1 0 .1 0 .1.1-.7.3-.9 1-.7 1.3-.2.1-.2.5-.4.7 0 .3 0 .5-.1.9h-.3c0-.1-.1-.2-.1-.3 0 .2.1.5 0 .6l-.1-.1c-.1 0-.1.3-.3.6-.4-.3-.4.4-.9.7-.4.7-.9 1-1.7 1.8-.2.2-.6.1-.9.7H57c-.1-.3-.7-.6-1-.8-.3-.3 0-.8-.4-1 .3-.3-.1-1-.5-1.2 0-.3.1-.5 0-.6-.5-.2-.3-.6-.4-.8-.2 0-.3 0-.4-.1 0-.1.1-.2.3-.2l.2-.2c0-.1 0-.3-.2-.5-.1 0-.1.2-.2.2 0-.1-.1-.1-.1-.3 0-.2.4-.6.4-.8 0-.2-.2-.3-.5-.5.1-.1.1-.5.1-.7 0-.1.2-.4 0-.3-.1-.1 0-.2-.1-.3v.1-.2c.1-.1.3-.1.3-.3l-.2-.3c.2-.1.3-.2.3-.3-.2-.1-.3-.4-.3-.4s0-.2-.2-.2c.1-.1.2 0 .5 0 .1-.2.1-.5 0-.9.1-.1.3-.1.3-.3 0-.2 0-.2-.2-.3.1-.1.1-.1.2 0 .4-.3.3-1 1-1.2.1-.6.7-1.3 1-1.8 0-.2.1-.5 0-.5 0-.1-.1 0-.2-.1.5-.4.9-.8 1.3-1.3-.1-.1-.3-.1-.3-.2h.4c.2 0 .9-1.8 1.3-2.6v-.1c.2-.4.9-.8.8-1.5.1 0 .2-.1.2-.3-.1 0-.1 0-.1-.1s.1-.2.3-.2c-.1-.2-.1-.4 0-.4s0 .1.2.1.1-.2.2-.3c-.1-.2-.2-.4-.1-.5 0-.1.2-.1.2-.3-.1 0-.2-.1-.3-.2l.5-.4c0-.2.2-.6.4-.9 0-.7.8-1.6.9-2.4l-.6-.2c.1 0 .1 0 .1-.1h.3c.4 0 .4-.5.4-.6l-.2.1s-.1-.1-.2-.3c.4-.4.5-.3.8-.9H63c-.1 0-.1 0-.1-.1v-.1c0 .1.1.2 0 .2-.2 0-.1 0-.2-.1.3 0 .4-.3.5-.5v-.3c.1-.2.2-.5.3-.6-.1 0-.2-.1-.2-.1.1-.1.2 0 .3 0v-.7l-.1-.1-.1-.1c.2-.1.3-.2.3-.4s-.1-.5-.2-.6c0-.1.2-.3.1-.5s-.5-.5-.5-.6.3-.5.5-.7v-.3c-.1 0-.2.1-.3 0 .2-.1.2-.1.2-.3 0 .2-.1 0-.3 0 .1-.2-.1-.4-.2-.4v-.2c.3-.2.5-.5.5-.6h.1c.1-.4-.4-.3-.5-.7 0-.1 0-.1.2-.1s.1-.2.1-.3c-.4-.1-.3.2-.6.2-.2 0-.1-.1-.1-.1v-.3h.2c-.2-.2-.4-.3-.3-.4-.3-.2-.5.4-.6.6-.1-.1-.1-.2-.2-.3 0-.1-.1-.1-.3 0-.4-.4-.1-1-.9-1 0 0-.3.1-.5.1 0 .2-.1.2-.1.3 0 .3-.4 1.1-.6 1.1h-.3c.1.1.2 0 .3.2-.2.1-.2.3-.4.5 0-.1-.3-.1-.5-.2 0 .2-.1.5-.1.8-.1 0-.4.1-.7.2 0 .2-.1.5-.2.5.1.2.4.2.5.4-.1.1-.2.1-.3.1 0-.1-.3-.1-.3-.1.1.1.1.3.2.4h-.3c0 .1.1.2 0 .3v.1c0 .1 0 0 0 0l-.1-.1v.3c.1 0 .3-.1.4 0-.1.2-.2.3-.1.3l.3.2c-.1.2-.2.4-.2.5h-.7c-.2.2-.4.5-.5.8-.1 0-.4.1-.5.3.1.2 0 .2-.1.5 0 0 .1.1 0 .3h-.3v.4c.3 0 .2.4.2.5h-.5c0 .2.1.3.1.4-.4 0-.5.7-.4.9-.1.2-.4.4-.4.5 0 .3-.3.6-.4.9.1 0 .4-.1.5 0l-.1.3c-.1 0-.3-.1-.5-.1.1.1-.1.3 0 .5v.3h.1c-.2.2-.2.3-.2.5-.1.1-.1.2-.1.2.2.1.4.1.4.3v.3c-.2 0-.3.1-.5.3.1.1.2.2.1.3.2.1.2.2.2.3 0 .4-.8 1-.9 1.1.1 0 .2.1.3.2-.2.2-.3.6-.5.9.1 0 .1-.2.3-.2s.1.2.3.3l-.7.5c.1.1.3.1.4.1-.1.1 0 .3-.1.4-.2 0-.3.2-.4.4 0 0 .2-.1.3 0-.1.1-.3.1-.4.1v.3h.3l.1.1c-.1.1-.5.2-.5.4 0 .1.1.1.1.4-.2 0-.3 0-.4.1v1c.1 0 .3 0 .4.1-.1.1-.3.1-.5.1-.1.2 0 .5 0 .7-.2.1-.3.2-.4.2v.4c0 .1.2.1.3.3-.5.5.3.7-.5 1 0 .2.3.3.3.5-.1.1-.5.5-.5.6v.6c.3-.1.4.1.5.3 0 .2-.1.3-.2.3 0-.3-.1-.4-.2-.4 0 .2-.4.9-.4 1 0 .2.3.4.3.5 0 .2-.2.5-.3.6v1.1c-.1.2-.7.8-.7.9 0 .2.3.7.6 1-.2.3.3.8.4 1.1v.6c0 .1.2.2.2.3 0 .3 0 .7.1 1 0 .1.2.2.2.3 0 .1-.1.2-.1.3 0 .5.3.6.3.9v.2c.2 0 .3.1.4.1l-.1.7c.3.1.6.2.8.4h-.5v.3l.3.3c-.1.1-.1.1-.1.2.1-.1.3 0 .3-.2l.1.1v.2h-.3c.1 0 .1.1.1.2l.3-.3c.1 0 .2.1.2.1 0 .1-.1.1-.1.3.1 0 .1-.1.4-.1.2 0 .1.1.1.2 0 0-.1.1-.2 0 .1 0-.2 0-.2.1v.2l.2.2c0-.1 0-.1.1-.3.1.1 0 .1.1.1s.2-.1.4-.2c0 .1.2.1.2.3v.1l.1.1v.2c.2.2.7.3 1.1.5-.1.1-.2.1-.3.1.1 0 .3 0 .5-.1-.1-.1-.1-.2 0-.3.1.1.1.3.3.3.2 0 .3-.1.5-.1s.3.1.4.3c-.1.1-.1.2-.1.2.3.1.5 0 .6 0 .2 0 .5.2.6.2.2 0 .1-.1.3-.1.2 0 .5.2.8.2.1-.2.2-.4.5-.5.1.1.1.3.2.4.2-.1.3-.1.4-.5h.2c.2 0 .2-.2.4-.2-.1 0-.2-.2-.3-.3h.1c.1 0 .3.1.5.2.1-.2.4-.4.5-.4 0-.2.2-.5.3-.6.1.1.1.2.2.2.4-.3.2-.5.3-.7.2-.1.3-.3.4-.3-.2.1-.4.1-.5.1-.2 0-.1-.1-.2-.1 0 .1.1.1.2.2-.1 0-.4.2-.6.2l-.2.2c0-.1-.1-.1-.2-.1 0-.2.1-.4.3-.4h.1c.2 0 .3-.4.9-.4v-.4l.1-.1s.1.1.2.1c0-.2.4-.5.6-.5.1.1.1.1.1.2-.1-.3-.1-.5-.1-.7.2.1.5.1.6.1-.2-.2-.5-.3-.5-.5l.1-.1c.1.1.2.1.4.1.1-.1.1-.2.3-.4h-.5c.1 0 .2 0 .2.1.2-.1.1-.2.3-.4h.1c.2 0 .2-.1.2-.3-.2-.1-.2-.3-.1-.4h-.3c-.2 0-.1 0-.3-.2.1-.1.1-.1.5 0 0-.4.2-.5.2-.6-.1 0-.1 0-.1-.2.1-.1.2-.2.4-.2h.1c-.1-.1-.4-.2-.5-.3l.2-.3c.1.1 0 .2.2.2h.5c-.2-.1-.5-.2-.6-.4.3-.2.1-.3.2-.4h.8c0-.3-.6-.5-.8-.6.1-.2.3-.1.4-.2l.1.1.3-.3c.1.1 0 .1.1.2l.2-.1c0 .2-.1 0 .1-.4m.8-2.1c-.1-.2-.2-.4-.5-.5.3-.1-.1-.1-.1-.2 0 0 .1 0 .1-.1v-.1c-.2 0-.5 0-.8-.1v.5s0-.2.2-.2.1 0 .3.1l-.3.3c.1 0 .3 0 .4.1-.1.1-.2.1-.2.1.2 0 .3.1.4.3-.1 0-.2.1-.4.1 0 0 0 .1-.1.2l-.1.1.2.2s.1-.1.3-.1c-.1-.2.1-.5.4-.6-.3 0 0-.1.2-.1m-.6-1.1h.1v-.3l-.1.3zm.4-.1v.1l.4.2v-.1l-.4-.2zm-.2-.7s-.2 0-.4-.1c0 .1-.1.2-.1.4.2-.2.5-.3.5-.3m-10.5-20l.2-.1-.2.1zm.6-.7v.1l.2-.1H57zm6.1-2.1l.3.2v-.1l-.3-.1zM22.4 61.2c-.1-.1-.2-.2-.2-.3h-.4v.5c.2 0 .4-.2.6-.2m.8 4.1l-.1-.5.6-.5.1.2-.6.8zm-.7-2.3l-.1-.6h-.2l.1.6h.2zm1.3 1.2c-.1 0-.5 0-.5-.1.1-.2.2-.6.3-.5.1.1.2.4.2.6m-2.1-2.3l-.1-.3h-.1l.1.3h.1zm2.2 1.4v-.2c-.1 0-.2.1-.4-.1l.5.2-.1.1zm-1-2.6h.4v.2h-.4v-.2zm1 1.4v-.2l.3-.1v.1l-.3.2zm-1-1.4l-.2-.3h.1l.3.3h-.2zm3.8 5l-.1-.3.5-.7.1.1-.5.9zm-2.8-4.6h.2v.3h-.2v-.3zm-.2-.2c0-.1-.2-.4-.3-.4h.1s.1 0 .1-.1c.1.1.1.2.1.5m-.3-.8l-.2-.1.1-.3h.2l-.1.4zm3.5 3.6v-.1l-.3.1v.2l.3-.2zm.3 0c-.2 0-.1.3-.1.5l-.9-.2c0-.1-.1-.2-.1-.4 0 0 .1 0 .3-.1h.2c.2-.1 0-.3.2-.5.2 0 .3.3.2.4 0 0 .1.2.2.3m-3.1-2.8v-.2h.7v.2h-.7zM22.7 59v-.2l.5.1v.2l-.5-.1zm5.8 5.2l-.1-.1-.5.2.1.2.5-.3zM25.1 60l-.1-.2h.2l.1.3h-.2zm-2.8-3.5v-.2h-.5v.2h.5zm1.2 1.1v-.2h.3v.2h-.3zm3.7 4v-.2l.3-.1.1.1-.4.2zm2 1.1H29c.1-.1.1-.2.1-.4h-.4l.1.1c-.2.3-.3.5-.4.4v.9c.6-.4.9-.5.8-1m-5-5.9c0 .1-.2.4-.2.6 0-.1-.1-.3.1-.5-.1-.1-.1-.1-.3-.1h.4zm4.5 4.8c.2-.1.1-.3.1-.4l-.1.4zm-3.1-4.2c-.1 0-.4-.2-.5-.2.1 0 .2-.2.3-.2.2.1.2.2.2.4m5.8 6.1l-.4-.2v-.2l.5.3-.1.1zm1.5 1.6l-.1-.1.1-.3h.1l-.1.4zm-8.4-9.8l-.2-.1.2-.3.2.1-.2.3zm-.1-1c0 .1-.1.4-.2.5 0-.1-.1-.3-.1-.5.1.1.3.1.3 0m-.4 0l-.1-.3h.2l.1.3H24zm-.6-1.6v-.5c-.1 0-.5.1-.6.2 0 .1.1.2.1.2v.1h.5zm5.6 6.2c-.1 0-.1-.2-.2-.3-.1.1-.2.2-.5.2.1 0 .3-.3.5-.4.1.1.2.3.2.5m4.4 4.6v-.3h.2v.3h-.2zm-4.8-5.8c.3.1.1.5 0 .5v-.5zm-3.8-4.9h-.2l.2-.5h.2l-.2.5zm4.1 4.6v-.2l.3-.1v.1l-.3.2zm7.9 7.7v-.2h-.7v.2h.7zM25 52.2l-.1-.1.1-.3h.1l-.1.4zm4 4.6l-.2-.1.5-.5.1.1-.4.5zm2.5 3.1l-.2-.5v-1c.1.1.5.4.5.6-.4.2-.2.7 0 .9h-.3zm-1.1-2v-.2l.3-.1.1.1-.4.2zm1.4-.1c0 .2-.3.4-.3.6 0-.1 0-.3-.1-.5.1.1.3-.1.4-.1m-7.6-7.7c-.1-.1-.1-.1-.1-.3.3 0 .3.3.1.3m8.8 8.5c0 .1 0 .3-.1.3v-.1l-.2-.1s.3.1.3-.1m-.8-.7l-.2-.2h.1l.1.3zm-8-8.9h.3v.2h-.3V49zm6.3 7.3v-.2h.5v.2h-.5zm.5-1.8v-.3h.2v.3H31zm-2-2.2l-.1-.1.4-.2.1.1-.4.2zm1.3 1.2l-.2-.3.1-.1.3.3-.2.1zm-6.1-7.9c-.1 0-.3.2-.4.3 0-.4.1-.5.4-.3m4.9 5.9v-.2h.5v.2h-.5zm2.2 2.5v-.6c0 .2.2.8.4 1l-.4-.4zm-.4-1.2c0-.1-.2-.3 0-.5v.5zm.1-1.5h-.2v-.4h.2v.4zm-.7-1.2V50l.4-.2v.2l-.4.1zm.7.4c-.1-.1-.2-.3-.3-.4h.1s.1-.1.2-.1 0 .3 0 .5m.6.8v-.2l.3-.1.1.2-.4.1zm2 .3l-.1-.1.3-.3.1.2-.3.2zm.6-.9H34l.1-.3.2.1-.1.2zm-8.9-10.9l-.1-.1.1-.3h.2l-.2.4zm8.9 9.1c.1-.1.2-.3.3-.3v.1s.1.1.1.2h-.4zm15.7 16.9v-.2l.3-.1v.2l-.3.1zm.4-1c-.2.1-.2.4-.4.5 0-.1-.2-.4-.2-.5h.6zm1 1.4c-.1 0-.2 0-.3-.1l.1-.1h.1c0-.1-.3-.4-.5-.5v.9c.3-.1.5-.2.6-.2M34.7 47c-.1.2-.4.5-.5.7-.1-.1-.4-.4-.4-.7 0-.3.1-.2.1-.3h.5v.1s0 .1-.1.1c.3.1.3.1.4.1m-.7-.6l-.5-.4.1-.2.5.4-.1.2zM50.5 64v-.3h.2v.3h-.2zm1.7.7c-.2.2-.5.7-.8.9.1 0 .5.1.6.1-.1-.3.1-.5.4-.9l-.2-.1zm-.4-1.1h-.2l-.2.5h.2l.2-.5zM38 47.6h-.1l-.2.4.1.1.2-.5zm-.5-.6c-.1 0-.3.1-.4.1 0-.1.1-.4.1-.5.1.1.3.3.3.4m-.6-1.5c-.1 0-.2.1-.4.2-.1-.1-.3-.1-.2-.5 0-.3.3-.5.4-.5 0 .3.2.6.2.8m.5.2l-.1-.1.5-.3.1.1-.5.3zm1.4.9h-.1l.2-.3.1.1-.2.2zm.3-.8c-.1 0-.3.2-.4.4 0-.1 0-.5.2-.7l.2.3zm-1-2.7c0 .1-.4.3-.6.6 0 .2.2.5.2.9-.1-.2-.3-.4-.4-.3 0-.1-.1-.2-.1-.5 0-.4.6-.6.9-.7m2.9.3c0-.1-.1-.4-.1-.5.1 0 .3.3.5.5H41zm-.4-1.1h-.2c-.1-.3-.1-.5-.3-.7.3.1.5.4.6.5l-.1.2zm.5-1c0 .1 0 .2-.1.2v.1c.4.2.2-.2.1-.3m.6.9l-.2-.4.2-.1.2.4-.2.1zm.3-1.7c-.1 0-.2.1-.2.3h-.2l-.1-.1c-.1.3.2 0 .5-.2m.6.4c-.1.1-.3.3-.5 0h.5zm-.2-.9l-.2-.1-.2.3h.2l.2-.2zm.6-.6l-.2-.1h-.1c0 .1-.1.4-.4.5.1 0 .2 0 .2.1l.1.1.4-.6zm2.2-.2H45v-.1s0-.1-.1-.2h.1s.1-.1.2-.1v.1c.1.1.1.2 0 .3zM24.9 61.8c-.1 0-.4 0-.6-.1.2 0 .3 0 .4-.1 0-.1-.3-.1-.4-.4h.4c.1.2.2.4.2.6m1.7 1.1l-.4.1v-.2l.3-.1.1.2zm-.9-4.3c-.1.4-.5.6-.6.9 0-.1-.1-.4-.4-.6h.1c.1 0 .1 0 .2.1.3 0 .4-.3.7-.4m3.9 3.7h-.2v.6h.2v-.6zm-3.2-4.1l-.4.2v-.2l.3-.1.1.1zm3.5 1.2c0 .1 0 .2-.1.4v-.1l-.1-.2h.1l.1-.1m.7-.2c0 .2 0 .7-.1.9 0-.2-.1-.3-.3-.3.1-.1.2-.3.4-.6m3 3.7h-.2v-.5h.2v.5zm-3-4.5l-.1.3-.2-.1.1-.3.2.1zm2.7 2.8l-.3.1v-.2l.3-.1v.2zm-3.6-4h-.3V57h.3v.2zm-5-11.3c-.1 0-.3-.1-.5-.3.2-.2.3-.3.4-.3 0 .2.1.5.1.6m6.7 7h-.2v-.7h.2v.7zm19.9 10.2c-.4 0-.3-.4-.5-.5 0 .1 0 .1-.1.2s0 0 0 .1c.1 0 .4.2.3.3l-.2.2c-.3-.1-.6 1-.7 1.1-.1-.2-.3-.3-.2-.6 0-.3.1-.2.1-.3 0-.2-.2-.4 0-.6l-.4.9c.1 0 .2.1.2.2-.2 0-.6.1-.8.2.2 0 .3.1.3.2v-.1h.1l.2.2c-.2.2-.1.4-.2.5l-.4-.2v-.4c-.4.7-.5 1.3-.5 1.7-.1 0-.3-.1-.5-.1-.1.2-.2.4-.4.5.1.4.3.7.1.9-.5.3-.5.5-.9.6.1 0 .3.1.3.1l-.1.3c-.1-.2-.2-.2-.3-.1 0 .3-.2.6-.4.9-.1-.1-.1-.5-.1-.7-.5.5-.9 1.1-1.3 1.8.1 0 .3.1.1.3-.2 0-.6.2-.8.1-.1.5 0 .5-.4.9-.1-.1 0-.1-.3-.1s0 .2-.3.2-.2-.1-.4-.1c0 .1 0 .2-.1.3-.3-.2-.5-.6-.7-.8-.4.1-.8.3-1.1.3 0-.5.6-.5.9-.7-.1 0-.2-.2-.1-.3-.2 0-.3.1-.5.2-.2-.5-.6-.7-.7-1 .1.1.1.2 0 .3-.4-.2-.6-.8-.5-1.2-.1.1 0 .1-.3.1s-.5-.5-.7-.6c0-.2-.3-.7-.5-.9-.3-.3-.9-.7-1-1 0 .1-.1.3-.3.1 0-.1.3-.3.3-.5-.2 0-.3 0-.3-.2 0 .2.1.4 0 .5l-.5-.3c.1-.2-.1-.5 0-.6-.1 0-.2.1-.5.1-.4 0-.5-.7-.6-1.1.1-.1.3-.3.3-.4h-.2l-.1-.1c-.1.1-.2.5-.5.5l-.1-.2c.4-.2.4-.5.7-.6-.2 0-.5-.4-.5-.6 0-.1-.2 0-.4 0 0-.1 0-.3-.1-.5 0 .2 0 .5-.1.7l-.2-.2c.1-.5-.3-.7.1-1.1-.1 0 0 .1-.3 0-.1 0-.1 0-.1-.1l.1-.1c.1-.1.2-.2.1-.4-.3-.3-.5-.6-.6-.9.4-.2-.1-.2-.3-.5.2-.9-.1-2.3-.1-2.8 0 0-.2-.1-.3-.2.1-.1.3-.2.3-.3-.1-.4-.4-.6-.4-1h.1c0-.3-.1-.6.1-.8-.1-.3-.2-.7-.3-.9.1-.1.2-.1.2 0l-.4-.2c0 .1 0 .1.1.2h.2l-.2-.3c.2-.4.2-.9.7-1-.2-.2 0-.4-.2-.5.6-.4.7-.8 1-1.3-.1-.7-.1-1.1.3-1.6.1.2.1.4 0 .5.2 0 .4 0 .5.1-.2-.3-.1-.6.3-1 .1.2.2.4.4.4.2-.1.5-.4.7-.3-.1-.3-.1-.5 0-.5.2 0 .3.1.3.2.2-.1.3-.2.5-.2-.1-.6.9-.8 1.4-.8.3 0 .2-.6.5-.9-.1 0-.2 0-.3-.2.2-.1.2-.5.3-.3-.1-.1-.1-.1 0-.2.2.3.4.5.3.7l.3-.3v-.9s.1 0 .1-.1l.1-.1c-.3-.1-.5-.3-.5-.5 0-.3.1-.4.4-.4.3.4.4.3.3.9.2-.2.3-.2.5-.2-.1.4-.4.6-.4.9.1 0 .2 0 .2.1h.1c.1-.2 0-.5.1-.7.3.1.5.2.5.2-.1-.1-.2-.3-.3-.4.3-.3.7-.4.9-.4-.1-.4 0-.4 0-.9.5 0 1 .1 1.2.1.2-.6.4-1.1.5-1.7.1 0-.1 0-.2.1 0 0-.1-.1-.1-.2.2-.1.2-.1.3-.1 0-.2-.1-.5.4-.8.1.1.2.2.2.4-.1.1-.3 0-.5.1.1 0 .3.1.5.3-.2.2-.3.5-.4.8 0 0 .1 0 .2.1 0 0 0 .1.1.1l.3-.2c.2-.1.3-.3.4-.5l.3.3c-.2-.2-.3-.8.2-1.1.1.2.3.5.5.4-.3-.3-.1-.6.1-.8.2.2.3.5.3.7 0-.1.2-.1.4-.1 0-.5.2-.7.5-1 .1.2 0 .4 0 .5 0-.2.3-.4.3-.5l-.2-.2.2-.2c.4-.1 0-.7.1-1-.1.2-.1.4-.1.5-.2 0-.1.1-.5.1 0 0-.2-1.2-.6-1.6 0-.1.2 0 .5.1-.1-.4-.2-.9-.3-1.3-.7.2-1 .6-1.4.9-.1 0-.1-.1-.2-.1h-.1v.5h.8l.2.2c-.2.2-.5.2-.6.2.1.1.1.2 0 .3-.1-.1-.3-.2-.5-.3-.4 0-.4.9-.4 1-.3.2-.3.7-.6.8-.1-.1-.2 0-.2-.2.3-.2.3-.6.5-.6h-.3c-.3 0-.3-.2-.5-.2 0 .5-.3.9-.8 1.3l-.1-.2.2-.2c-.6 0-.8 1.1-1.3 1.1-.3 0-.5-.2-.7-.4 0 .2.1.4 0 .5-.1-.1-.4-.4-.5-.4-.4.5-1.4 1-1.4 1.4.1 0 0-.2.3-.2.8 0 .6-.5.8-.7.3.2.4.2.3.5 0 .3 0 .1-.1.3l-.2-.2c.1.3 0 .4-.2.6-.1-.2-.2-.3-.2-.3-.2.5-.5 1.4-.5 1.6v1.3c-.1 0 0-.2-.4-.2-.1-.4 0-.7 0-.9-.2-.1-.3-.3-.2-.5.2-.3.1-.7.2-1 0-.1-.2-.2-.3-.4-.1.6-1.4.3-1.2 1.2h.2c-.4.1-.5.3-.9.5 0 0-.1-.1-.2-.1h.2c.1.1.3.1.5.2-.4.3-.1.2-.3.5-.3.1-.6 0-.9.1-.4.5 0 .5-.4 1.1 0-.1-.1-.2-.1-.5 0 .4-.1.5-.3.9 0-.2-.2-.3-.4-.5.2-.1.2-.3 0-.4-.4.2-.9.8-1.2 1-.1-.1 0-.2-.2-.2v.3c.1.1.2 0 .3.2l-.8.5c-.2-.2-.2-.3-.2-.3.2.1.4.2.4.3-.1.1-.2.1-.3 0 0 .5.1 1-.1 1.2 0-.2-.3-.3-.5-.3.5.7.1.9 0 1.4-.5-.2-1.1-.7-1.5-.8-.1 0-.2 0-.3.1 0 .1.2.1.3.2-.3.1-.5.2-.5.3-.4.4-.5.7-.6 1-.2.4.2.5-.3.8l-.1 1.1c.4-.1.5-.3.9-.2v.3l-.4.3c-.2-.1-.4 0-.5 0 .1.2.2.7.4.9-.1.1-.3.1-.5.3.5.3.1.9 0 1.1.1 0 .1-.1.4-.1.3 0 .1 0 .2.2-.1 0-.1.2-.3.4l-.4-.4c0 .1.1.3 0 .5-.2-.2-.3-.3-.5-.4.1.5-.4.9-.5 1.1.2.2.3.5.5.6v.3c-.1.1-.3.2-.4.3-.2-.4 0-.7-.2-.9-.1.3-.3.5-.5.5.2.4.6 1.1.9 1.6-.4.3-.6.5-.6.7.2.1.1-.2.5-.2.2 0 .6.2.6.3l.1.3c-.1-.1.1-.1-.2-.2-.3 0-1 1.7-1.4 2.2.1-.1.3-.2.5-.3.1.3 0 .3 0 .5-.8-.1-.5.4-1.1.5v-.5c.4-.5.7-.9 1.1-1.2-.3-.3-.5-.3-.5-.6l.2-.2c.1 0 .2.2.4.2v-.3c-.2-.5-.4-1-.4-1.3 0 0 .3-.5.3-1l-.4.5c-.1-.5-.1-.9-.3-1.4.1-.1.2-.3.2-.4-.2 0-.4 0-.6-.1.1-.1.3-.1.5-.2-.2 0-.5-.1-.6-.3v-.3l.2-.2s.1.1.2.1h.1c-.1-.2-.3-.4 0-.8.1.1.2.1.3.3-.2-.3-.3-.6-.5-.9 0 0 .2 0 .3.1-.1-.5.2-.9.2-1.2-.2-.2-.5-.1-.7-.3v-.3c.2-.1.5-.1.7-.1 0-.1-.1-.3-.1-.5 0 0-.1 0-.2.1h-.1c.1 0 .4 0 .4.2l-.4.1c-.1-.1 0-.1-.2-.3l.4-.7c-.1 0-.3 0-.5-.2.2-.2.4-.3.6-.3l.1-1.8H26c.4-.1.5-.5.7-.7-.1 0-.3 0-.4.2l-.2-.2c.7-.6.2-1.6.7-1.9-.1-.1-.4-.3-.5-.3 0 .1 0 .4-.1.5h-.1c.1-.4.1-.6.2-.8.2.1.4.2.5.2v-.6c-.1 0 0 .1-.3 0-.3 0-.1-.1-.1-.2.2-.1.6-.4.7-.6-.2-.1-.2 0-.5 0v-1.1l.2-.1s0 .1.1.1h.1c0-.2-.1-.2-.3-.4.3 0 .5 0 .5-.3s-.2-.7-.3-.8c.1-.3.1-.5 0-.6l-.2-.2h.5v-.9c0-.4.3-1 .4-1.2-.2-.1-.3-.3-.5-.6.1-.1.3 0 .5 0-.3-.5.3-1 .3-1.7 0-.4-.2-.5-.2-.7l-.3.2c-.1 0-.2-.1-.3-.1-.2.3-.3.5-.5.7-.4-.2-.7-.1-.9-.2.1.1.3.1.4.3-.5.4-1 .5-.5 1.1-.1.1-.1 0-.3 0 .1.1.4.3.4.5-.2.2-.5.5-.6.4.4.7-.6 1-.6 1.3h.3l.2-.1v.5c-.1.2-.5.5-.5.8-.1.5.3.3.2 1.3.1 0 .2 0 .3.2-.2.2-.2.5-.4.7 0 0-.1 0-.3-.2.2-.2-.1-.5-.1-.6-.1 0-.1.2-.2.3.1-.1.2-.1.4 0-.4.2.1.5.2 1-.6.4-.5.5-.6.8h.2v.1c-.3.1-.5.1-.5.1v.7h.4l.2.2c-.1.3.3.6-.1 1 .1 0 .3 0 .3.3s0 .2-.2.3c-.2 0-.2-.3-.4-.3-.4.2-.1 1-.7 1.3.2.1.5.5.5.8 0 .3 0 .2-.1.3-.2 0-.3-.1-.5-.2.1.2-.2.2-.2.5s.4.6.5.9h-.3l-.1-.1v-.1c0 .1 0 .3.2.4l-.2.3c-.1 0-.2-.1-.4-.1.2.2.2.5.2.6.5-.1.8-.1.9 0l-.1.1.7.4c-.2.2-.5.4-.7.8-.1 0-.2-.1-.2-.1h-.1c.1.1.1.3 0 .4-.4-.1-.5-.5-.8-.7v.5h.3l.2.1c-.6.2.2.1-.3.5-.1 0-.2-.1-.4-.1.5.2.4.6.5.9-.3.2-.7.3-.9.7.2.3.4.5.5.6 0-.2-.3-.5-.3-.7.1-.1.3-.1.4-.2.3.9.5.8.5.9.1-.4-.6-.6.1-1v.4c.3.1.3.3.3.4 0 .3-.2.8-.5 1.3-.1-.7-.4-.4-.8-.5v1.1c.1 0 .2.2.2.4.1.1.3 0 .4.2-.2 0-.2.2-.4.2l-.1-.1v-.1c-.1.4-.2.9-.3 1.2.1 0 0-.2.3-.2s.6 0 .8.2c-.4.1-.8.3-1.1.2.2 0 .3.1.3.2h.6c.3 0 .1 0 .2.2-.3 0-.8.3-1 .6.1.1.4.1.5.2 0 .7.5 1.1.8 1.3-.2.4-.4.6-.5.9 0 .1-.2.1-.4.2 0 .2-.2.3-.1.5-.2.2-.2.6-.4.6l.5.1v.3c-.1-.1-.4 0-.5 0 .3.7 0 1.3-.1 1.4.2-.2.3-.6.9-.6l-.2.4c.5.5.3.9.2 1 0 0 .1 0 .3.2-.4.2-.8.3-1.1.1 0-.2-.1-.5-.1-.7l-.3 1.5.5.6c-.1.4-.4.8-.4 1.1.1-.2.3-.5.4-.5.1.4.2.7.3.8.1-.2 0-.3.4-.3.3 0 0 .5 0 .9.2-.2.6-.3.9-.3.3 0 1.4.7 1.7.9-.1.2-.2.4-.2.5.1 0 .1-.1.3-.3 0 .1.1.1.2.1h.1c0-.5.2-.8.4-1 .1.3.1.4.1.5l.4.1c0-.2.1-.4.3-.5h-.3c-.9 0-.3-1.9-.2-2.1l-.4-.2c0-.5.1-.9.1-1.5.4.2.5.3.6.7-.2.1-.4.3-.5.5.2 0 .4.2.4.4l-.4.5c.4-.2.5-.5.7-.7 0 .3 0 .6.2 1.2-.5.1-.5.2-.9.5l.7.3c.2-.3.4-.7.4-1 0-.5-.1-.7-.2-.9.3-.4.5-.5.6-.8v-1.8c-.5-.2-.1-.4-.1-.5.1.2.4.3.4.1 0-.8-.2-.8-.3-.9 0-.2 0-.5.1-.7h-.2l.2-.2c-.1 0-.3-.2-.4-.3.2-.1.3-.2.5-.2.1-.1 0-.4.4-.6l.2.2.2-.6-.4-.4c.2-.2.5-.7.9-.9-.1 0-.3 0-.5-.1.3-.2-.1-.2 0-.9.2.1.3.3.5.4-.3-.4-.2-.8.1-.9l.2.2c0 .7.1 1.4.1 1.9.1 0 0-.3.3-.3s.4.1.5.3c0-.2.2-.5.2-.7l.3.4.1 1.3c-.4 0-.4.5-.6.4 0-.2 0-.6.1-.8h-.2c.1-.1.2-.1.2-.2-.2 0-.3 0-.4-.1 0 .2-.3.3-.3.5.2.4.2.9.2 1.1.8.1.5.6 1 .9l-.2.2h.2c-.2.5.3 1.2.5 1.4l.3-.2.1.2c-.1.1-.2.2-.2.3.2 0 .4.1.4.2v-.2c.1.2.4.4.5.5-.1-.1-.1-.2 0-.4 0 .1.1.2.2.2l.1.1c-.1.5.1 1 0 1.4.2.1.7.2.9 0 0-.1-.2-.3 0-.4h.2l.1.1c-.7.2-.1.2-.2 1.5.1-.2.3-.3.5-.4.1.4.4.7.4 1 .1-.1.2 0 .5.1l-.1.1c.2.1.3.3.2.5l-.2.3c.2 0 .5.1.7.1.2 0 .4.3.6.4 0-.1-.1-.2.2-.2 0 0 .8.7.9 1.2.1 0 .1-.1.4 0 .3 0 0 .3.1.5.1 0 .1-.2.2-.2s.1.2.1.3c.1-.2.1-.5.3-.5.1.3.2.5.1.5.1 0 0-.1.4-.1 0 0 .4.8.7 1-.1.1-.2.1-.2.3h.5v-.2c.3.3.4.3.5.6.4-.1.5-.5.8-.4.3 0 .4.1.4.2.3-.2.3-.5.5-.4.1.5 0 .6 0 .8.1-.1 0-.2.4-.2.3 0 .3.3.4.3 0-.1.2-.4.5-.4s.4.2.5.2c.1-.2.3-.5.4-.8h.1c-.1.4-.2.7-.1.8.1-.1.2-.3.5-.5v.4h.4l.5-.7c.1.3.3.6.5.7-.1-.2-.1-.4 0-.5.2 0 .1.1.6.1-.2-.2-.5-.1-.5-.3 0 0 .2-.1.3-.1-.1-.2-.1-.4 0-.5 0 .1.1.5.5.6.1-.2.2-.2.5-.5.1 0 .1.3.4.3.3 0 .3-.2.5-.4v-.9h-.2c.1 0 .2-.1.2-.1l-.1-.1v-.2c.8 0 .7-.9.9-1 .1.1.1.3.3.5.1-.3.5-.8.5-1.1 0-.3-.8 0-.1-1l.3.3s-.1.1-.1.2v.1c.2-.3.4-.6.4-.9 0 .1-.1.3-.5.4.1-.1 0-.4 0-.5-.3 0-.4-.4-.7-.4.2-.1.3-.1.5-.1 0-.5 0-1.2.2-1.5-.2-.2-.5-.3-.5-.5s-.1-.1.1-.2c.2.2.3.3.5.3.3-.5.1-.6.1-1 .1-.4.2-.7.5-.8.1.3.1.8.4 1.1 0-.1.3-.2.3-.5s-.5-.9-.8-1.3c.5-.1.7-.5 1-.5h-.7zm1.3.3c0-.3-.5-.9-.2-1.3-.5.1-.1-.2-.1-.6 0 .1.1.2-.2.2-.3 0-.2-.3-.5-.5h.5c0-.2-.1-.7-.2-.9 0 .1-.1.3 0 .5-.1.1-.2 0-.3-.1-.1.4 0 .8-.2 1.1l-.3-.3c0 .3 0 .5.2.7.1 0 0-.2.4-.2.6.1.7 1.8.5 2.2.1-.2.4-.5.4-.8m-5.9-22.9l-.3.3-.1-.1.3-.3.1.1zm-.4-1.1c-.2 0-.5.2-.6.4 0-.2.3-.6.5-.7v.1s0 .2.1.2m1 .5v.2l-.4-.1.1-.2.3.1zm1-1.5c-.1.4-.1.4-.3.7.2.1.3.4.5.5v-.2h.1c0-.2-.2-.2-.3-.4.2-.1.4-.3.5-.6h-.5zm-25.8 31c-.3-.4-.5-.7-.5-1.1.5.2.9.8.9 1.1h-.4zm.7-.6l-.1.1-.4-.9.2-.1.3.9zm3.9 1.3l-.3.1V70l.3-.2v.3zm7.1-2.2H34v-.3h.2v.3zm-.3-1.4l-.1.3-.1-.1.1-.3.1.1zm.4.6c-.1 0-.1 0 0 0-.2-.1-.3-.1-.3-.2.1-.2.2-.5.4-.7l-.1.9zm3.9 1.5l-.3.3-.1-.1.3-.2h.1zm-.9-1.5l-.5.3-.1-.1.5-.4.1.2zm-.4 0l-.7-.4c0-.1.2-.4.3-.6.1.1.1.3.4.5v.5zm1.3 1c0 .3-.3.3-.2.5-.2-.2-.4-.3-.4-.6 0-.2.1-.4.3-.3l.1.1c.1.1.2.1.2.3m2.4 2.4h-.4v-.2h.4v.2zm-2.1-2.7h-.3v-.2h.3v.2zm5.6 4.6l-.2.5-.1-.1.1-.4h.2zm1.6 1.9l-.4.1v.1l.4-.1v-.1zm-1.2-2.7c.3-.3.3-.4.5-.5l-.5.5zm2.7 1.1l-.2.3h-.2l.2-.3h.2zm1.1-.4l-.3.1v-.1l.3-.1v.1zm-1.1-3.4l-.3.1v-.1l.3-.1v.1zm.9.1l-.3.5-.2-.1.3-.5.2.1zm0-.8c-.1 0-.5.2-.7.2 0-.1.1-.5.3-.7.2.2.4.3.4.5m1.3 0h-.2l-.1-.3h.1l.2.3zm1.6.1c-.2-.2-.1-.5-.5-.7h-.4v.6c.1 0 0-.1.4-.1.4.1.5.1.5.2m0-1.7c-.2.3-.3.6-.4.6.1 0 .4.1.5.1l-.1-.7z"/></g><g clip-path="url(#b)"><path fill="#FFF" d="M260.9 115.6H157v-6.3h97.7V6.2H6.2v103.1h90.1v6.3H0V0h260.9z"/></g></svg>