<?xml version="1.0" encoding="utf-8"?>
<!-- Generator: Adobe Illustrator 18.0.0, SVG Export Plug-In . SVG Version: 6.00 Build 0)  -->
<!DOCTYPE svg PUBLIC "-//W3C//DTD SVG 1.1//EN" "http://www.w3.org/Graphics/SVG/1.1/DTD/svg11.dtd">
<svg version="1.1" id="Warstwa_1" xmlns="http://www.w3.org/2000/svg" xmlns:xlink="http://www.w3.org/1999/xlink" x="0px" y="0px"
	 viewBox="0 0 17 14" enable-background="new 0 0 17 14" xml:space="preserve">
<path fill="#FFFFFF" d="M0.3,6.3C0.1,6.5,0,6.7,0,7c0,0.2,0.1,0.5,0.3,0.7l5.7,6c0.3,0.4,0.9,0.4,1.3,0c0.3-0.4,0.3-1,0-1.3L3,7.9
	h13.1c0.5,0,0.9-0.4,0.9-1c0-0.5-0.4-1-0.9-1H3l4.1-4.4c0.3-0.4,0.3-1,0-1.3c-0.3-0.4-0.9-0.4-1.3,0L0.3,6.3z"/>
</svg>
