<?xml version="1.0" encoding="utf-8"?>
<!-- Generator: Adobe Illustrator 18.0.0, SVG Export Plug-In . SVG Version: 6.00 Build 0)  -->
<!DOCTYPE svg PUBLIC "-//W3C//DTD SVG 1.1//EN" "http://www.w3.org/Graphics/SVG/1.1/DTD/svg11.dtd">
<svg version="1.1" id="Warstwa_1" xmlns="http://www.w3.org/2000/svg" xmlns:xlink="http://www.w3.org/1999/xlink" x="0px" y="0px"
	 viewBox="0 0 17 13" enable-background="new 0 0 17 13" xml:space="preserve">
<path fill="#FFFFFF" d="M11.2,0.3c-0.4-0.4-1-0.4-1.3,0c-0.3,0.3-0.3,0.8,0,1.2L14,5.5H0.9C0.4,5.5,0,6,0,6.5C0,7,0.4,7.4,0.9,7.4
	H14l-4.3,4.1c-0.3,0.3-0.3,0.8,0,1.2c0.4,0.4,1,0.4,1.3,0l5.7-5.5C16.9,7,17,6.7,17,6.5c0-0.3-0.1-0.5-0.3-0.6L11.2,0.3z"/>
</svg>
