<?xml version="1.0" encoding="utf-8"?>
<!-- Generator: Adobe Illustrator 18.0.0, SVG Export Plug-In . SVG Version: 6.00 Build 0)  -->
<!DOCTYPE svg PUBLIC "-//W3C//DTD SVG 1.1//EN" "http://www.w3.org/Graphics/SVG/1.1/DTD/svg11.dtd">
<svg version="1.1" id="Warstwa_1" xmlns="http://www.w3.org/2000/svg" xmlns:xlink="http://www.w3.org/1999/xlink" x="0px" y="0px"
	 viewBox="0 0 26 21" enable-background="new 0 0 26 21" xml:space="preserve">
<g>
	<path fill="#FFFFFF" d="M6.1,0C3.9,0,2,0.6,0.7,1.5C0,2,0,2.6,0,3.6V18c0,0-0.1,1.5,1.6,1.2l4.5-0.7c4-0.6,5.3,1.7,6.1,2.5V3.3
		C12.2,3.3,11.7,0,6.1,0"/>
	<path fill="#FFFFFF" d="M19.9,0c2.2,0,4.1,0.6,5.4,1.5C26,2,26,2.6,26,3.6V18c0,0,0.1,1.5-1.6,1.2l-4.5-0.7c-4-0.6-5.3,1.7-6.1,2.5
		V3.3C13.8,3.3,14.3,0,19.9,0"/>
</g>
</svg>
