<?xml version="1.0" encoding="utf-8"?>
<!-- Generator: Adobe Illustrator 18.0.0, SVG Export Plug-In . SVG Version: 6.00 Build 0)  -->
<!DOCTYPE svg PUBLIC "-//W3C//DTD SVG 1.1//EN" "http://www.w3.org/Graphics/SVG/1.1/DTD/svg11.dtd">
<svg version="1.1" id="Warstwa_1" xmlns="http://www.w3.org/2000/svg" xmlns:xlink="http://www.w3.org/1999/xlink" x="0px" y="0px"
	 viewBox="0 0 25 25" enable-background="new 0 0 25 25" xml:space="preserve">
<path fill="#FFFFFF" d="M7.9,15.2c0.5-0.5,0.2-1.3-0.6-2.1c-0.8-0.8-1.6-1.2-2.2-0.6c-0.5,0.5-0.2,1.4,0.6,2.2
	C6.5,15.4,7.4,15.7,7.9,15.2 M17.8,14.7c0.5-0.5,0.2-1.3-0.6-2.2c-0.8-0.8-1.6-1.2-2.2-0.6c-0.5,0.5-0.2,1.4,0.6,2.2
	C16.4,14.9,17.2,15.2,17.8,14.7 M21.4,6.3c-0.8,0.7-2,0.7-2.7,0c0.2,0.2,0.4,0.4,0,0c-0.1-0.1-0.1-0.1-0.1-0.1c0,0,0.1,0.1,0.1,0.1
	c-0.7-0.7-0.8-2,0-2.7c0.7-0.8,2-0.8,2.8-0.1C22.3,4.3,22.2,5.6,21.4,6.3 M18.4,11.1c1.6,1.6,1.4,3.5,0.3,4.6
	c-1.2,1.2-3,1.2-4.4-0.2c-1.4-1.4-1.6-3.2-0.2-4.6C15.4,9.6,17.1,9.8,18.4,11.1 M13.4,20.5c0.1,0.5-0.2,0.9-0.7,1
	c-0.5,0.1-0.9-0.2-1-0.7L9.4,6.7c-0.1-0.5,0.2-0.9,0.7-1c0.5-0.1,0.9,0.2,1,0.7L13.4,20.5z M8.5,11.6c1.6,1.6,1.4,3.5,0.3,4.6
	c-1.2,1.2-3,1.2-4.4-0.2c-1.4-1.4-1.6-3.2-0.2-4.6C5.5,10.1,7.2,10.3,8.5,11.6 M25,4.7C25,1.6,23.4,0,20.3,0l-7.5,0
	c-0.4,0-0.7,0-1,0.1c-0.3,0.2-0.6,0.4-0.8,0.6l-9.9,9.9c-1.5,1.5-1.5,4,0,5.5l7.7,7.7c1.5,1.5,4,1.5,5.5,0l9.8-9.8
	c0.2-0.2,0.4-0.5,0.6-0.8c0,0,0,0,0-0.1c0-0.1,0-0.1,0-0.1c0.1-0.3,0.1-0.6,0.1-0.9L25,4.7z"/>
</svg>
