<?xml version="1.0" encoding="utf-8"?>
<!-- Generator: Adobe Illustrator 18.0.0, SVG Export Plug-In . SVG Version: 6.00 Build 0)  -->
<!DOCTYPE svg PUBLIC "-//W3C//DTD SVG 1.1//EN" "http://www.w3.org/Graphics/SVG/1.1/DTD/svg11.dtd">
<svg version="1.1" id="Warstwa_1" xmlns="http://www.w3.org/2000/svg" xmlns:xlink="http://www.w3.org/1999/xlink" x="0px" y="0px"
	 viewBox="0 0 25 25" enable-background="new 0 0 25 25" xml:space="preserve">
<g>
	<path fill="#FFFFFF" d="M25,23.4c0,0.9-0.7,1.6-1.6,1.6H1.6C0.7,25,0,24.3,0,23.4c0-0.9,0.7-1.6,1.6-1.6h21.9
		C24.3,21.9,25,22.6,25,23.4"/>
	<path fill="#FFFFFF" d="M13,0H7.8C7.3,0,7.1,0.6,7.4,0.9L8.5,2L2.7,7.8c-0.5,0.5-0.5,1.4,0,1.9l1.1,1.1c0.5,0.5,1.3,0.5,1.9,0
		L11.5,5l1.1,1.1c0.3,0.3,0.9,0.1,0.9-0.4V0.5C13.5,0.2,13.3,0,13,0C13,0,13.3,0,13,0"/>
	<path fill="#FFFFFF" d="M3.9,12.5c-0.9,0-1.6,0.7-1.6,1.6v4.7c0,0.9,0.7,1.6,1.6,1.6h1.6c0.9,0,1.6-0.7,1.6-1.6v-4.7
		c0-0.9-0.7-1.6-1.6-1.6H3.9z"/>
	<path fill="#FFFFFF" d="M14.8,18.8c0,0.9-0.7,1.6-1.6,1.6h-1.6c-0.9,0-1.6-0.7-1.6-1.6V9.4c0-0.9,0.7-1.6,1.6-1.6h1.6
		c0.9,0,1.6,0.7,1.6,1.6V18.8z"/>
	<path fill="#FFFFFF" d="M22.7,18.8c0,0.9-0.7,1.6-1.6,1.6h-1.6c-0.9,0-1.6-0.7-1.6-1.6V3.1c0-0.9,0.7-1.6,1.6-1.6h1.6
		c0.9,0,1.6,0.7,1.6,1.6V18.8z"/>
</g>
</svg>
