<?xml version="1.0" encoding="utf-8"?>
<!-- Generator: Adobe Illustrator 18.0.0, SVG Export Plug-In . SVG Version: 6.00 Build 0)  -->
<!DOCTYPE svg PUBLIC "-//W3C//DTD SVG 1.1//EN" "http://www.w3.org/Graphics/SVG/1.1/DTD/svg11.dtd">
<svg version="1.1" id="Warstwa_1" xmlns="http://www.w3.org/2000/svg" xmlns:xlink="http://www.w3.org/1999/xlink" x="0px" y="0px"
	 viewBox="0 0 5 18" enable-background="new 0 0 5 18" xml:space="preserve">
<g>
	<path fill="#FFFFFF" d="M1.2,11.6c0,0.6,0.6,1.2,1.3,1.2c0.7,0,1.2-0.5,1.2-1.2V2.3c0-0.6-0.6-1.2-1.2-1.2c-0.7,0-1.3,0.5-1.3,1.2
		V11.6z M2.5,0C3.9,0,5,1,5,2.3v9.3c0,1.3-1.1,2.3-2.5,2.3c-1.4,0-2.5-1-2.5-2.3V2.3C0,1,1.1,0,2.5,0"/>
	<path fill="#FFFFFF" d="M2.5,16.8c0.3,0,0.6-0.3,0.6-0.6c0-0.3-0.3-0.6-0.6-0.6c-0.3,0-0.6,0.3-0.6,0.6C1.9,16.6,2.2,16.8,2.5,16.8
		 M2.5,14.5c1,0,1.9,0.8,1.9,1.7S3.5,18,2.5,18c-1,0-1.9-0.8-1.9-1.7S1.5,14.5,2.5,14.5"/>
</g>
</svg>
