<?xml version="1.0" encoding="utf-8"?>
<!-- Generator: Adobe Illustrator 18.0.0, SVG Export Plug-In . SVG Version: 6.00 Build 0)  -->
<!DOCTYPE svg PUBLIC "-//W3C//DTD SVG 1.1//EN" "http://www.w3.org/Graphics/SVG/1.1/DTD/svg11.dtd">
<svg version="1.1" id="Warstwa_1" xmlns="http://www.w3.org/2000/svg" xmlns:xlink="http://www.w3.org/1999/xlink" x="0px" y="0px"
	 viewBox="0 0 47 46" enable-background="new 0 0 47 46" xml:space="preserve">
<g>
	<path fill="#FFFFFF" d="M16.5,0h-3.1C6,0,0,6,0,13.3v19.3C0,40,6,46,13.5,46h3.1C24,46,30,40,30,32.7V13.3C30,6,24,0,16.5,0z
		 M28.6,32.7c0,6.6-5.4,12-12.1,12h-3.1c-6.7,0-12.1-5.4-12.1-12V13.3c0-6.6,5.4-12,12.1-12h0.9v6.8c-1.4,0.3-2.5,1.6-2.5,3.1v5.1
		c0,1.5,1.1,2.8,2.5,3.1v3h1.4v-3c1.4-0.3,2.5-1.6,2.5-3.1v-5.1c0-1.5-1.1-2.8-2.5-3.1V1.4h0.9c6.7,0,12.1,5.4,12.1,12V32.7z
		 M15,9.4c1,0,1.8,0.8,1.8,1.8v5.1c0,1-0.8,1.8-1.8,1.8s-1.8-0.8-1.8-1.8v-5.1C13.2,10.2,14,9.4,15,9.4z M46.8,26.4
		c-0.3-0.3-0.8-0.3-1.2,0l-3.8,3.2v-14c0-0.4-0.4-0.7-0.8-0.7c-0.5,0-0.8,0.3-0.8,0.7v14l-3.8-3.2c-0.3-0.3-0.8-0.3-1.2,0
		c-0.3,0.3-0.3,0.7,0,1l5.2,4.4c0.2,0.1,0.4,0.2,0.6,0.2c0.2,0,0.4-0.1,0.6-0.2l5.2-4.4C47.1,27.2,47.1,26.7,46.8,26.4z"/>
</g>
</svg>
