<?xml version="1.0" encoding="utf-8"?>
<!-- Generator: Adobe Illustrator 18.0.0, SVG Export Plug-In . SVG Version: 6.00 Build 0)  -->
<!DOCTYPE svg PUBLIC "-//W3C//DTD SVG 1.1//EN" "http://www.w3.org/Graphics/SVG/1.1/DTD/svg11.dtd">
<svg version="1.1" id="Warstwa_1" xmlns="http://www.w3.org/2000/svg" xmlns:xlink="http://www.w3.org/1999/xlink" x="0px" y="0px"
	 viewBox="0 0 25 25" enable-background="new 0 0 25 25" xml:space="preserve">
<path fill="#FFFFFF" d="M1.1,10.7h8.2V5.9H1.1L1.1,10.7L1.1,10.7z M2.6,23.9h6.8V11.7H2.6V23.9z M10.4,23.9h4.3v-18h-4.3V23.9z
	 M15.7,10.7h8.2V5.9h-8.2L15.7,10.7L15.7,10.7z M15.7,23.9h6.8V11.7h-6.8V23.9z M17.4,1.1c-1.1,0-4.4,2.6-4.4,3.5
	c0,0.1,0.2,0.2,0.3,0.2h4.3c0.8-0.2,1.4-0.9,1.4-1.8C19.2,1.9,18.4,1.1,17.4,1.1 M7.6,1.1c-1,0-1.8,0.8-1.8,1.9
	c0,0.9,0.6,1.7,1.4,1.8h4.3c0.3-0.1,0.4-0.2,0.4-0.2C11.9,3.6,8.7,1.1,7.6,1.1 M5.5,4.8C5,4.3,4.7,3.6,4.7,2.9C4.7,1.3,6,0,7.6,0
	c1.2,0,3.9,1.8,5,3.3C13.6,1.7,16.3,0,17.4,0c1.5,0,2.8,1.3,2.8,2.9c0,0.7-0.3,1.4-0.7,1.9H25v6.9h-1.5V25h-7.8H9.3H1.5V11.7H0V4.8
	H5.5z"/>
</svg>
