<?xml version="1.0" encoding="utf-8"?>
<!-- Generator: Adobe Illustrator 18.0.0, SVG Export Plug-In . SVG Version: 6.00 Build 0)  -->
<!DOCTYPE svg PUBLIC "-//W3C//DTD SVG 1.1//EN" "http://www.w3.org/Graphics/SVG/1.1/DTD/svg11.dtd">
<svg version="1.1" id="Warstwa_1" xmlns="http://www.w3.org/2000/svg" xmlns:xlink="http://www.w3.org/1999/xlink" x="0px" y="0px"
	 viewBox="0 0 21 21" enable-background="new 0 0 21 21" xml:space="preserve">
<path fill="#FFFFFF" d="M5.2,10.6l3.9,3.9c0.4,0.4,0.9,0.6,1.4,0.6c0.5,0,1-0.2,1.4-0.6l3.9-3.9c0.4-0.4,0.6-0.9,0.6-1.4
	c0-0.5-0.2-1-0.6-1.4c-0.4-0.4-0.9-0.6-1.4-0.6c-0.5,0-1,0.2-1.4,0.6l-2.5,2.5L8,7.8C7.6,7.4,7.1,7.2,6.6,7.2c-0.5,0-1,0.2-1.4,0.6
	C4.8,8.2,4.6,8.7,4.6,9.2C4.6,9.7,4.8,10.2,5.2,10.6 M10.5,0C16.3,0,21,4.7,21,10.5C21,16.3,16.3,21,10.5,21C4.7,21,0,16.3,0,10.5
	C0,4.7,4.7,0,10.5,0"/>
</svg>
