<?xml version="1.0" encoding="utf-8"?>
<!-- Generator: Adobe Illustrator 18.0.0, SVG Export Plug-In . SVG Version: 6.00 Build 0)  -->
<!DOCTYPE svg PUBLIC "-//W3C//DTD SVG 1.1//EN" "http://www.w3.org/Graphics/SVG/1.1/DTD/svg11.dtd">
<svg version="1.1" id="Warstwa_1" xmlns="http://www.w3.org/2000/svg" xmlns:xlink="http://www.w3.org/1999/xlink" x="0px" y="0px"
	 viewBox="0 0 25 25" enable-background="new 0 0 25 25" xml:space="preserve">
<g>
	<path fill="#FFFFFF" d="M1.4,13.6c0,0.1,0,0.1,0.1,0.1l2.2,0.4c0.3,0,0.5,0.3,0.6,0.5c0.2,0.8,0.5,1.5,0.9,2.2
		c0.1,0.2,0.1,0.5,0,0.8l-1.3,1.8c0,0.1,0,0.1,0,0.2l1.6,1.6c0,0,0.1,0,0.1,0c0,0,0.1,0,0.1,0l1.8-1.3c0.2-0.2,0.5-0.2,0.8,0
		c0.7,0.4,1.4,0.7,2.2,0.9c0.3,0.1,0.5,0.3,0.5,0.6l0.4,2.2c0,0.1,0.1,0.1,0.1,0.1h2.2c0.1,0,0.1,0,0.1-0.1l0.4-2.2
		c0-0.3,0.3-0.5,0.5-0.6c0.7-0.2,1.5-0.5,2.1-0.9c0.1-0.1,0.2-0.1,0.4-0.1c0.1,0,0.3,0,0.4,0.1l1.8,1.3c0,0,0.1,0,0.1,0
		c0,0,0.1,0,0.1,0l1.6-1.6c0,0,0.1-0.1,0-0.2l-1.3-1.8c-0.2-0.2-0.2-0.5,0-0.8c0.4-0.7,0.7-1.4,0.9-2.2c0.1-0.3,0.3-0.5,0.6-0.5
		l2.2-0.4c0.1,0,0.1-0.1,0.1-0.1v-2.2c0-0.1,0-0.1-0.1-0.1L21.3,11c-0.3,0-0.5-0.3-0.6-0.5c-0.2-0.8-0.5-1.5-0.9-2.2
		c-0.1-0.2-0.1-0.5,0-0.8l1.3-1.8c0-0.1,0-0.1,0-0.2l-1.6-1.6c0,0-0.1,0-0.1,0c0,0-0.1,0-0.1,0l-1.8,1.3c-0.2,0.2-0.5,0.2-0.8,0
		c-0.7-0.4-1.4-0.7-2.2-0.9c-0.3-0.1-0.5-0.3-0.5-0.6l-0.4-2.2c0-0.1-0.1-0.1-0.1-0.1h-2.2c-0.1,0-0.1,0-0.1,0.1l-0.4,2.2
		c0,0.3-0.3,0.5-0.5,0.6C9.6,4.5,8.9,4.8,8.2,5.2c-0.2,0.1-0.5,0.1-0.8,0L5.6,3.9c0,0-0.1,0-0.1,0c0,0-0.1,0-0.1,0L3.9,5.4
		c0,0-0.1,0.1,0,0.2l1.3,1.8c0.2,0.2,0.2,0.5,0,0.8c-0.4,0.7-0.7,1.4-0.9,2.2c-0.1,0.3-0.3,0.5-0.6,0.5l-2.2,0.4
		c-0.1,0-0.1,0.1-0.1,0.1L1.4,13.6L1.4,13.6z M1.3,9.9L3,9.6C3.2,9,3.5,8.4,3.7,7.9l-1-1.4C2.3,5.8,2.3,5,2.9,4.4l1.6-1.6
		c0.3-0.3,0.7-0.5,1.1-0.5c0.3,0,0.6,0.1,0.9,0.3l1.5,1C8.4,3.5,9,3.2,9.6,3l0.3-1.7C10,0.5,10.7,0,11.4,0h2.2
		c0.8,0,1.4,0.5,1.5,1.3l0.3,1.8c0.6,0.2,1.2,0.4,1.7,0.7l1.4-1c0.3-0.2,0.6-0.3,0.9-0.3c0.4,0,0.8,0.2,1.1,0.5l1.6,1.6
		c0.5,0.5,0.6,1.4,0.2,2l-1,1.5C21.6,8.5,21.8,9,22,9.6l1.7,0.3c0.7,0.1,1.3,0.8,1.3,1.5v2.2c0,0.8-0.5,1.4-1.3,1.5l-1.8,0.3
		c-0.2,0.6-0.4,1.2-0.7,1.7l1,1.4c0.4,0.6,0.4,1.5-0.2,2l-1.6,1.6c-0.3,0.3-0.7,0.5-1.1,0.5c-0.3,0-0.6-0.1-0.9-0.3l-1.5-1
		c-0.5,0.3-1.1,0.5-1.6,0.7l-0.3,1.8C15,24.5,14.4,25,13.6,25h-2.2c-0.8,0-1.4-0.5-1.5-1.3L9.6,22c-0.6-0.2-1.2-0.4-1.7-0.7l-1.4,1
		c-0.3,0.2-0.6,0.3-0.9,0.3c-0.4,0-0.8-0.2-1.1-0.5l-1.6-1.6c-0.5-0.5-0.6-1.4-0.2-2l1-1.5C3.5,16.6,3.2,16,3,15.4l-1.8-0.3
		C0.5,15,0,14.4,0,13.6v-2.2C0,10.6,0.5,10,1.3,9.9"/>
	<path fill="#FFFFFF" d="M12.5,16.5c2.2,0,4-1.8,4-4s-1.8-4-4-4s-4,1.8-4,4S10.3,16.5,12.5,16.5 M12.5,7.1c3,0,5.4,2.4,5.4,5.4
		c0,3-2.4,5.4-5.4,5.4s-5.4-2.4-5.4-5.4C7.1,9.5,9.5,7.1,12.5,7.1"/>
</g>
</svg>
