<?xml version="1.0" encoding="utf-8"?>
<!-- Generator: Adobe Illustrator 18.0.0, SVG Export Plug-In . SVG Version: 6.00 Build 0)  -->
<!DOCTYPE svg PUBLIC "-//W3C//DTD SVG 1.1//EN" "http://www.w3.org/Graphics/SVG/1.1/DTD/svg11.dtd">
<svg version="1.1" id="Warstwa_1" xmlns="http://www.w3.org/2000/svg" xmlns:xlink="http://www.w3.org/1999/xlink" x="0px" y="0px"
	 viewBox="0 0 23 23" enable-background="new 0 0 23 23" xml:space="preserve">
<g>
	<path fill="#FFFFFF" d="M12.7,23h0.6h6.7c1.6,0,2.9-1.3,2.9-2.9V17v-0.6H12.7V23z"/>
	<path fill="#FFFFFF" d="M12.6,5c-0.1-0.1-0.2-0.3-0.2-0.6c0-0.5,0.3-1.2,0.9-1.7c0.6-0.5,1.3-0.9,2-0.9c0.2,0,0.6,0,0.8,0.2
		c0.2,0.1,0.2,0.3,0.2,0.6c0,0.5-0.3,1.2-0.9,1.7c-0.6,0.5-1.3,0.9-2,0.9C13.2,5.2,12.8,5.2,12.6,5 M10.2,5C10,5.2,9.7,5.2,9.5,5.2
		c-0.7,0-1.4-0.3-2-0.9C6.9,3.9,6.6,3.2,6.6,2.7c0-0.2,0.1-0.4,0.2-0.6C7,1.9,7.3,1.9,7.6,1.9c0.7,0,1.4,0.3,2,0.9
		c0.6,0.5,0.9,1.1,0.9,1.7C10.5,4.7,10.4,4.8,10.2,5 M20.1,6.7h-4.9c0.5-0.2,1-0.5,1.5-0.9c1-0.9,1.5-2,1.5-3.1c0-0.8-0.3-1.5-0.9-2
		c-1.3-1.2-3.7-0.9-5.4,0.6c-0.2,0.2-0.4,0.4-0.6,0.6c-0.2-0.2-0.4-0.4-0.6-0.6C9.2-0.2,6.8-0.4,5.5,0.7c-0.6,0.5-0.9,1.2-0.9,2
		c0,1.1,0.6,2.2,1.5,3.1c0.4,0.4,1,0.7,1.5,0.9H2.8C1.2,6.7-0.1,8-0.1,9.6v3.6v0.6h10.2V7.4h2.6v6.4h10.2v-0.6V9.6
		C22.9,8,21.6,6.7,20.1,6.7"/>
	<path fill="#FFFFFF" d="M-0.1,16.4V17v3.1c0,1.6,1.3,2.9,2.9,2.9h6.7h0.6v-6.6H-0.1z"/>
</g>
</svg>
