<?xml version="1.0" encoding="utf-8"?>
<!-- Generator: Adobe Illustrator 18.0.0, SVG Export Plug-In . SVG Version: 6.00 Build 0)  -->
<!DOCTYPE svg PUBLIC "-//W3C//DTD SVG 1.1//EN" "http://www.w3.org/Graphics/SVG/1.1/DTD/svg11.dtd">
<svg version="1.1" id="Warstwa_1" xmlns="http://www.w3.org/2000/svg" xmlns:xlink="http://www.w3.org/1999/xlink" x="0px" y="0px"
	 viewBox="0 0 25 30" enable-background="new 0 0 25 30" xml:space="preserve">
<g>
	<path fill="#FAFAFA" d="M15.4,28.7l0.9-6.3l1.6-0.2l-0.7,5.1c-0.1,0.8-0.8,1.4-1.6,1.4L15.4,28.7z M11.5,28.7L11.5,28.7l0-7
		c0,0,0,0,0,0c0.5,0.2,1,0.4,1.6,0.5c0.1,0,0.1,0,0.2,0c0.1,0,0.1,0,0.2,0v6.4H11.5z M7.4,27.3l-0.9-6.5c0.5-0.1,0.9-0.3,1.3-0.5
		c0.1,0,0.1,0,0.2,0.1c0,0,0,0,0,0l1.2,8.4l-0.2,0C8.2,28.7,7.5,28.1,7.4,27.3 M23.1,13.8c0-0.9-0.2-1.7-0.6-2.4
		c-0.1,0.1-0.2,0.1-0.4,0.2l-1.3,0.8c0.2,0.4,0.3,0.9,0.3,1.4c0,0.8-0.3,1.5-0.7,2.1c1,0.5,1.7,1.2,1.7,1.9c0,1.5-2.7,2.8-6,2.8
		c-2.9,0-5.4-1-5.9-2.3c-0.3,0.2-0.7,0.3-1.1,0.3c-0.6,0-1.2-0.2-1.6-0.6C6.9,18.6,6.1,19,5.2,19c-1.8,0-3.2-1.5-3.2-3.4
		c0-1.7,1.2-3.1,2.8-3.3c-0.1-0.3-0.1-0.6-0.1-0.9c0-2,1.8-3.6,4-3.6c0.1,0,0.2,0,0.3,0C8.5,7.4,8.4,7,8.4,6.5c0-1.1,0.7-2,1.7-2.4
		c0-0.7,0.1-1.4,0.3-2.1C8.3,2.3,6.7,4.1,6.5,6.2C4.4,6.9,2.8,8.8,2.6,11C1.1,12,0,13.7,0,15.7c0,2.4,1.6,4.5,3.7,5.1l1,6.2
		c0.2,1.6,1.5,2.8,3.1,2.9c0.1,0,0.2,0,0.4,0h8.3c0.1,0,0.2,0,0.4,0c1.6-0.2,2.8-1.3,3.1-2.9l0.8-5.3c0,0,0,0,0,0
		c2-0.8,3.3-2.2,3.3-3.9c0-0.6-0.2-1.6-1.1-2.6C23,14.8,23.1,14.3,23.1,13.8"/>
	<path fill="#FAFAFA" d="M14.3,9.1c1.1,0.2,2.2,0.5,3.2,0.9c0.6,0.3,1.1,0.7,1.6,1.1c1.8-1.1,3.9-2.3,4-2.3c1.9-1.1,2.5-3.5,1.4-5.4
		c-0.7-1.3-2-2-3.4-2c-0.7,0-1.3,0.2-1.9,0.5c-0.7-1.3-2-2-3.3-2c-0.7,0-1.3,0.2-1.9,0.5c-1.8,1.1-2.5,3.5-1.4,5.4
		C12.5,6,13.4,7.5,14.3,9.1"/>
</g>
</svg>
