<svg xmlns="http://www.w3.org/2000/svg" viewBox="0 0 25 25"><path fill="#FFF" d="M7.9 15.2c.5-.5.2-1.3-.6-2.1s-1.6-1.2-2.2-.6c-.5.5-.2 1.4.6 2.2.8.7 1.7 1 2.2.5m9.9-.5c.5-.5.2-1.3-.6-2.2-.8-.8-1.6-1.2-2.2-.6-.5.5-.2 1.4.6 2.2.8.8 1.6 1.1 2.2.6m3.6-8.4c-.8.7-2 .7-2.7 0 .2.2.4.4 0 0l-.1-.1.1.1c-.7-.7-.8-2 0-2.7.7-.8 2-.8 2.8-.1.8.8.7 2.1-.1 2.8m-3 4.8c1.6 1.6 1.4 3.5.3 4.6-1.2 1.2-3 1.2-4.4-.2-1.4-1.4-1.6-3.2-.2-4.6 1.3-1.3 3-1.1 4.3.2m-5 9.4c.1.5-.2.9-.7 1-.5.1-.9-.2-1-.7L9.4 6.7c-.1-.5.2-.9.7-1 .5-.1.9.2 1 .7l2.3 14.1zm-4.9-8.9c1.6 1.6 1.4 3.5.3 4.6-1.2 1.2-3 1.2-4.4-.2-1.4-1.4-1.6-3.2-.2-4.6 1.3-1.3 3-1.1 4.3.2M25 4.7C25 1.6 23.4 0 20.3 0h-7.5c-.4 0-.7 0-1 .1-.3.2-.6.4-.8.6l-9.9 9.9c-1.5 1.5-1.5 4 0 5.5l7.7 7.7c1.5 1.5 4 1.5 5.5 0l9.8-9.8c.2-.2.4-.5.6-.8V13c.1-.3.1-.6.1-.9l.2-7.4z"/></svg>