<svg xmlns="http://www.w3.org/2000/svg" viewBox="0 0 25 25"><path d="M25 23.4c0 .9-.7 1.6-1.6 1.6H1.6C.7 25 0 24.3 0 23.4c0-.9.7-1.6 1.6-1.6h21.9c.8.1 1.5.8 1.5 1.6M13 0H7.8c-.5 0-.7.6-.4.9L8.5 2 2.7 7.8c-.5.5-.5 1.4 0 1.9l1.1 1.1c.5.5 1.3.5 1.9 0L11.5 5l1.1 1.1c.3.3.9.1.9-.4V.5c0-.3-.2-.5-.5-.5 0 0 .3 0 0 0M3.9 12.5c-.9 0-1.6.7-1.6 1.6v4.7c0 .9.7 1.6 1.6 1.6h1.6c.9 0 1.6-.7 1.6-1.6v-4.7c0-.9-.7-1.6-1.6-1.6H3.9zm10.9 6.3c0 .9-.7 1.6-1.6 1.6h-1.6c-.9 0-1.6-.7-1.6-1.6V9.4c0-.9.7-1.6 1.6-1.6h1.6c.9 0 1.6.7 1.6 1.6v9.4zm7.9 0c0 .9-.7 1.6-1.6 1.6h-1.6c-.9 0-1.6-.7-1.6-1.6V3.1c0-.9.7-1.6 1.6-1.6h1.6c.9 0 1.6.7 1.6 1.6v15.7z" fill="#FFF"/></svg>