<svg xmlns="http://www.w3.org/2000/svg" viewBox="0 0 47 46"><path fill="#FFF" d="M16.5 0h-3.1C6 0 0 6 0 13.3v19.3C0 40 6 46 13.5 46h3.1C24 46 30 40 30 32.7V13.3C30 6 24 0 16.5 0zm12.1 32.7c0 6.6-5.4 12-12.1 12h-3.1c-6.7 0-12.1-5.4-12.1-12V13.3c0-6.6 5.4-12 12.1-12h.9v6.8c-1.4.3-2.5 1.6-2.5 3.1v5.1c0 1.5 1.1 2.8 2.5 3.1v3h1.4v-3c1.4-.3 2.5-1.6 2.5-3.1v-5.1c0-1.5-1.1-2.8-2.5-3.1V1.4h.9c6.7 0 12.1 5.4 12.1 12v19.3zM15 9.4c1 0 1.8.8 1.8 1.8v5.1c0 1-.8 1.8-1.8 1.8s-1.8-.8-1.8-1.8v-5.1c0-1 .8-1.8 1.8-1.8zm31.8 17c-.3-.3-.8-.3-1.2 0l-3.8 3.2v-14c0-.4-.4-.7-.8-.7-.5 0-.8.3-.8.7v14l-3.8-3.2c-.3-.3-.8-.3-1.2 0-.3.3-.3.7 0 1l5.2 4.4c.2.1.4.2.6.2.2 0 .4-.1.6-.2l5.2-4.4c.3-.2.3-.7 0-1z"/></svg>