<svg xmlns="http://www.w3.org/2000/svg" viewBox="0 0 25 25"><path fill="#FFF" d="M1.1 10.7h8.2V5.9H1.1v4.8zm1.5 13.2h6.8V11.7H2.6v12.2zm7.8 0h4.3v-18h-4.3v18zm5.3-13.2h8.2V5.9h-8.2v4.8zm0 13.2h6.8V11.7h-6.8v12.2zm1.7-22.8c-1.1 0-4.4 2.6-4.4 3.5 0 .1.2.2.3.2h4.3c.8-.2 1.4-.9 1.4-1.8.2-1.1-.6-1.9-1.6-1.9m-9.8 0c-1 0-1.8.8-1.8 1.9 0 .9.6 1.7 1.4 1.8h4.3c.3-.1.4-.2.4-.2 0-1-3.2-3.5-4.3-3.5M5.5 4.8c-.5-.5-.8-1.2-.8-1.9C4.7 1.3 6 0 7.6 0c1.2 0 3.9 1.8 5 3.3 1-1.6 3.7-3.3 4.8-3.3 1.5 0 2.8 1.3 2.8 2.9 0 .7-.3 1.4-.7 1.9H25v6.9h-1.5V25h-22V11.7H0V4.8h5.5z"/></svg>