<svg xmlns="http://www.w3.org/2000/svg" viewBox="0 0 25 25"><g fill="#FFF"><path d="M1.4 13.6c0 .1 0 .1.1.1l2.2.4c.3 0 .5.3.6.5.2.8.5 1.5.9 2.2.1.2.1.5 0 .8l-1.3 1.8v.2l1.6 1.6h.2l1.8-1.3c.2-.2.5-.2.8 0 .7.4 1.4.7 2.2.9.3.1.5.3.5.6l.4 2.2c0 .1.1.1.1.1h2.2c.1 0 .1 0 .1-.1l.4-2.2c0-.3.3-.5.5-.6.7-.2 1.5-.5 2.1-.9.1-.1.2-.1.4-.1.1 0 .3 0 .4.1l1.8 1.3h.2l1.6-1.6s.1-.1 0-.2l-1.3-1.8c-.2-.2-.2-.5 0-.8.4-.7.7-1.4.9-2.2.1-.3.3-.5.6-.5l2.2-.4c.1 0 .1-.1.1-.1v-2.2c0-.1 0-.1-.1-.1l-2.3-.3c-.3 0-.5-.3-.6-.5-.2-.8-.5-1.5-.9-2.2-.1-.2-.1-.5 0-.8l1.3-1.8v-.2l-1.6-1.6h-.2l-1.8 1.3c-.2.2-.5.2-.8 0-.7-.4-1.4-.7-2.2-.9-.3-.1-.5-.3-.5-.6l-.4-2.2c0-.1-.1-.1-.1-.1h-2.2c-.1 0-.1 0-.1.1l-.4 2.2c0 .3-.3.5-.5.6-.7.2-1.4.5-2.1.9-.2.1-.5.1-.8 0L5.6 3.9h-.2L3.9 5.4s-.1.1 0 .2l1.3 1.8c.2.2.2.5 0 .8-.4.7-.7 1.4-.9 2.2-.1.3-.3.5-.6.5l-2.2.4c-.1 0-.1.1-.1.1v2.2zm-.1-3.7L3 9.6c.2-.6.5-1.2.7-1.7l-1-1.4c-.4-.7-.4-1.5.2-2.1l1.6-1.6c.3-.3.7-.5 1.1-.5.3 0 .6.1.9.3l1.5 1c.4-.1 1-.4 1.6-.6l.3-1.7c.1-.8.8-1.3 1.5-1.3h2.2c.8 0 1.4.5 1.5 1.3l.3 1.8c.6.2 1.2.4 1.7.7l1.4-1c.3-.2.6-.3.9-.3.4 0 .8.2 1.1.5l1.6 1.6c.5.5.6 1.4.2 2l-1 1.5c.3.4.5.9.7 1.5l1.7.3c.7.1 1.3.8 1.3 1.5v2.2c0 .8-.5 1.4-1.3 1.5l-1.8.3c-.2.6-.4 1.2-.7 1.7l1 1.4c.4.6.4 1.5-.2 2l-1.6 1.6c-.3.3-.7.5-1.1.5-.3 0-.6-.1-.9-.3l-1.5-1c-.5.3-1.1.5-1.6.7l-.3 1.8c0 .7-.6 1.2-1.4 1.2h-2.2c-.8 0-1.4-.5-1.5-1.3L9.6 22c-.6-.2-1.2-.4-1.7-.7l-1.4 1c-.3.2-.6.3-.9.3-.4 0-.8-.2-1.1-.5l-1.6-1.6c-.5-.5-.6-1.4-.2-2l1-1.5c-.2-.4-.5-1-.7-1.6l-1.8-.3C.5 15 0 14.4 0 13.6v-2.2c0-.8.5-1.4 1.3-1.5"/><path d="M12.5 16.5c2.2 0 4-1.8 4-4s-1.8-4-4-4-4 1.8-4 4 1.8 4 4 4m0-9.4c3 0 5.4 2.4 5.4 5.4 0 3-2.4 5.4-5.4 5.4s-5.4-2.4-5.4-5.4c0-3 2.4-5.4 5.4-5.4"/></g></svg>