<svg xmlns="http://www.w3.org/2000/svg" viewBox="0 0 23 23"><path d="M12.7 23H20c1.6 0 2.9-1.3 2.9-2.9v-3.7H12.7V23zm-.1-18c-.1-.1-.2-.3-.2-.6 0-.5.3-1.2.9-1.7.6-.5 1.3-.9 2-.9.2 0 .6 0 .8.2.2.1.2.3.2.6 0 .5-.3 1.2-.9 1.7-.6.5-1.3.9-2 .9-.2 0-.6 0-.8-.2m-2.4 0c-.2.2-.5.2-.7.2-.7 0-1.4-.3-2-.9-.6-.4-.9-1.1-.9-1.6 0-.2.1-.4.2-.6.2-.2.5-.2.8-.2.7 0 1.4.3 2 .9.6.5.9 1.1.9 1.7 0 .2-.1.3-.3.5m9.9 1.7h-4.9c.5-.2 1-.5 1.5-.9 1-.9 1.5-2 1.5-3.1 0-.8-.3-1.5-.9-2-1.3-1.2-3.7-.9-5.4.6l-.6.6-.6-.6C9.2-.2 6.8-.4 5.5.7c-.6.5-.9 1.2-.9 2 0 1.1.6 2.2 1.5 3.1.4.4 1 .7 1.5.9H2.8C1.2 6.7-.1 8-.1 9.6v4.2h10.2V7.4h2.6v6.4h10.2V9.6c0-1.6-1.3-2.9-2.8-2.9M-.1 16.4v3.7c0 1.6 1.3 2.9 2.9 2.9h7.3v-6.6H-.1z" fill="#FFF"/></svg>