<svg xmlns="http://www.w3.org/2000/svg" viewBox="0 0 25 30"><g fill="#FAFAFA"><path d="M15.4 28.7l.9-6.3 1.6-.2-.7 5.1c-.1.8-.8 1.4-1.6 1.4h-.2zm-3.9 0v-7c.5.2 1 .4 1.6.5h.4v6.4h-2zm-4.1-1.4l-.9-6.5c.5-.1.9-.3 1.3-.5.1 0 .1 0 .2.1l1.2 8.4H9c-.8-.1-1.5-.7-1.6-1.5m15.7-13.5c0-.9-.2-1.7-.6-2.4-.1.1-.2.1-.4.2l-1.3.8c.2.4.3.9.3 1.4 0 .8-.3 1.5-.7 2.1 1 .5 1.7 1.2 1.7 1.9 0 1.5-2.7 2.8-6 2.8-2.9 0-5.4-1-5.9-2.3-.3.2-.7.3-1.1.3-.6 0-1.2-.2-1.6-.6-.6.6-1.4 1-2.3 1C3.4 19 2 17.5 2 15.6c0-1.7 1.2-3.1 2.8-3.3-.1-.3-.1-.6-.1-.9 0-2 1.8-3.6 4-3.6H9c-.5-.4-.6-.8-.6-1.3 0-1.1.7-2 1.7-2.4 0-.7.1-1.4.3-2.1-2.1.3-3.7 2.1-3.9 4.2-2.1.7-3.7 2.6-3.9 4.8C1.1 12 0 13.7 0 15.7c0 2.4 1.6 4.5 3.7 5.1l1 6.2c.2 1.6 1.5 2.8 3.1 2.9h9.1c1.6-.2 2.8-1.3 3.1-2.9l.8-5.3c2-.8 3.3-2.2 3.3-3.9 0-.6-.2-1.6-1.1-2.6 0-.4.1-.9.1-1.4"/><path d="M14.3 9.1c1.1.2 2.2.5 3.2.9.6.3 1.1.7 1.6 1.1 1.8-1.1 3.9-2.3 4-2.3 1.9-1.1 2.5-3.5 1.4-5.4-.7-1.3-2-2-3.4-2-.7 0-1.3.2-1.9.5-.7-1.3-2-2-3.3-2-.7 0-1.3.2-1.9.5-1.8 1.1-2.5 3.5-1.4 5.4-.1.2.8 1.7 1.7 3.3"/></g></svg>