<?xml version="1.0" encoding="utf-8"?>
<!-- Generator: Adobe Illustrator 18.0.0, SVG Export Plug-In . SVG Version: 6.00 Build 0)  -->
<!DOCTYPE svg PUBLIC "-//W3C//DTD SVG 1.1//EN" "http://www.w3.org/Graphics/SVG/1.1/DTD/svg11.dtd">
<svg version="1.1" id="Warstwa_1" xmlns="http://www.w3.org/2000/svg" xmlns:xlink="http://www.w3.org/1999/xlink" x="0px" y="0px"
	 viewBox="0 0 170 31" enable-background="new 0 0 170 31" xml:space="preserve">
<g>
	<path fill="#FFFFFF" d="M101.6,0c-8.4,0-15.7,6.9-15.7,15.5c0,8.6,7.3,15.5,15.7,15.5c8.4,0,15.7-6.9,15.7-15.5
		C117.3,6.9,110,0,101.6,0z M101.6,29.5c-7.6,0-14-6.3-14-14c0-7.7,6.4-14,14-14c7.6,0,14,6.3,14,14
		C115.6,23.2,109.2,29.5,101.6,29.5z M58.8,19.2l-3.9,8.6l-3.9-8.6L42.3,0.7h-1.7L54.8,31h0.2L69.2,0.7h-1.7L58.8,19.2z M167.9,0.7
		v14.8l0.1,11.7L142.5,0h-0.2v30.1h1.6V15.5l-0.1-11.7L169.3,31h0.2V0.7H167.9z M13.7,0L-0.5,30.1h1.7l4-8.4l17.2,0l4,8.5h1.7
		L13.9,0H13.7z M21.8,20.4l-16,0l4.1-8.7l3.9-8.6l4,8.6L21.8,20.4z"/>
</g>
</svg>
