<?xml version="1.0" encoding="utf-8"?>
<!-- Generator: Adobe Illustrator 18.0.0, SVG Export Plug-In . SVG Version: 6.00 Build 0)  -->
<!DOCTYPE svg PUBLIC "-//W3C//DTD SVG 1.1//EN" "http://www.w3.org/Graphics/SVG/1.1/DTD/svg11.dtd">
<svg version="1.1" id="Warstwa_1" xmlns="http://www.w3.org/2000/svg" xmlns:xlink="http://www.w3.org/1999/xlink" x="0px" y="0px"
	 viewBox="0 0 260.9 132" enable-background="new 0 0 260.9 132" xml:space="preserve">
<g>
	<defs>
		<rect id="SVGID_1_" width="260.9" height="132"/>
	</defs>
	<clipPath id="SVGID_2_">
		<use xlink:href="#SVGID_1_"  overflow="visible"/>
	</clipPath>
	<g clip-path="url(#SVGID_2_)">
		<path fill="#FFFFFF" d="M118,107.2c0,0,6.5-6.3,11.7-7.5c0,0-4.3-0.9-4.9-2.5c0,0-1.7-2.1-4.6-1.2C120.2,96,122.8,99.3,118,107.2"
			/>
	</g>
	<g clip-path="url(#SVGID_2_)">
		<path fill="#FFFFFF" d="M131,98.3c0,0,5.6-1.5,14.1,7.9c0,0-2.3-5.7,0-9.4c0,0,1.3-2.9-0.4-4.2c0,0-0.4,1.3-2.7,1.9
			C142,94.5,133.8,95.3,131,98.3"/>
	</g>
	<g clip-path="url(#SVGID_2_)">
		<path fill="#FFFFFF" d="M117.1,104.4c0,0,1.6-1.8,1-5c0,0-5,2.5-6,4.3C112.2,103.7,113.8,105.1,117.1,104.4"/>
	</g>
	<g clip-path="url(#SVGID_2_)">
		<path fill="#FFFFFF" d="M109.7,104.5c0,0,1,1,4.1,1.9c0,0,2.1,0.2,1.8,2.7c0,0,1.3,6.8,6.7,9.3c0,0-7.4-0.6-9.5-2.8
			c0,0,2.3,3.9,2.8,6.2c0,0,3.2,6.4,8.1,8.4c0,0-8.3-1.8-11.5-6.7c0,0-1.4-3.1-6.3-5.3C106.1,118.2,109.8,113.8,109.7,104.5"/>
	</g>
	<g clip-path="url(#SVGID_2_)">
		<path fill="#FFFFFF" d="M124.2,115.2c0,0,4.1-4.1,6.7-5.4c0,0-1.3-7.3-6.8,2.1c0,0-4.8-2.8,5-6.7c0,0,0.6,0,0.4-2.2
			c0,0-9,3.9-11.3,7.7C118.3,110.7,118.5,113.8,124.2,115.2"/>
	</g>
	<g clip-path="url(#SVGID_2_)">
		<path fill="#FFFFFF" d="M123.2,117.4c0,0,11,0.4,19.4-8.1c0,0-2.9-8.8-11.7-8.3C130.9,100.9,138.7,112,123.2,117.4"/>
	</g>
	<g clip-path="url(#SVGID_2_)">
		<path fill="#FFFFFF" d="M116.9,119.5c0,0,16.8,7.5,31.3-12.7c0,0-2.5,7.1-3.4,11.8c0,0-1.1,9.3-10.4,12.8c0,0-8.1,2.9-13.1-5.8
			C121.3,125.7,119.7,121.9,116.9,119.5"/>
	</g>
	<g clip-path="url(#SVGID_2_)">
		<path fill="#FFFFFF" d="M228,70.6h2.8V58.7l11.5-17.1H239l-9.5,14.7l-9.6-14.7h-3.3L228,58.7V70.6z M204,34h-2.8v4.1h2.8V34z
			 M192.4,44h17.8l-19.1,24.2v2.4h22.6v-2.4h-19.5L213.3,44v-2.4h-20.9V44z M179.8,33.2h-3.2l-4.3,5.7h2.1L179.8,33.2z M162.9,56.1
			c0-6.3,3.3-12.8,10.9-12.8c7.6,0,10.9,6.4,10.9,12.8c0,6.3-3.3,12.8-10.9,12.8C166.2,68.9,162.9,62.4,162.9,56.1 M160.2,56.1
			c0,8,4.6,15.1,13.7,15.1c9.1,0,13.7-7.2,13.7-15.1S183,41,173.9,41C164.7,41,160.2,48.1,160.2,56.1 M134.5,44h10.3
			c4.2,0,6.3,2.2,6.3,5.8c0,3.5-2.9,5.6-6.3,5.6h-10.3V44z M131.8,70.6h2.8V57.7H145c5.2-0.2,5.6,4.3,5.8,8.4
			c0.1,1.2,0.1,3.4,0.8,4.5h3c-1.2-1.4-1.2-5.4-1.3-7.4c-0.2-3.5-1.3-6-5.1-6.5v-0.1c3.7-0.8,5.6-3.7,5.6-7.4c0-5.2-4.1-7.6-8.8-7.6
			h-13.3V70.6z M94.2,69.8l0-0.1l0.3,0v0.2H94.2z M95.4,68.5l0.1-0.1l0.3,0.2L95.4,68.5z M94.5,66.8c0,0-0.2,0.1-0.1,0.2
			c-0.2,0-0.6-0.1-0.8-0.1c0-0.1,0.3-0.4,0.5-0.4C94.1,66.6,94.3,66.7,94.5,66.8 M95.6,68.3l0-0.1L96,68v0.2L95.6,68.3z M93,64.7
			c0,0-0.3,0.2-0.5,0.3c0-0.2,0.1-0.4,0.3-0.6C92.6,64.5,92.8,64.6,93,64.7 M94,65.1h0.1l0,0.5L94,65.1z M94.1,64.2v-0.1l0.5,0v0.1
			L94.1,64.2z M94.8,62.4c0,0.1-0.1,0.2-0.1,0.4c-0.1-0.1-0.2-0.2-0.4-0.4L94.8,62.4z M102.1,69.8l-0.1,0l0.1-0.3l0.1,0L102.1,69.8z
			 M92.4,60.2l-0.1,0l0.2-0.3l0.1,0.1L92.4,60.2z M93.7,61.5c0-0.1,0.2-0.4,0.3-0.5c0,0.1,0.1,0.3,0.3,0.4L93.7,61.5z M102.5,69.8
			c0-0.1,0-0.2,0.2-0.4c0.1,0.1,0.1,0.2,0.2,0.3L102.5,69.8z M94.9,61.9l0-0.1l0.2-0.1l0,0.1L94.9,61.9z M95.5,59.8
			C95.5,59.8,95.4,59.8,95.5,59.8L95.3,60l-0.1-0.1c0,0,0-0.1,0-0.2L95.5,59.8z M95.5,58.2c0,0,0,0.2-0.1,0.4c-0.1,0-0.5,0-0.6-0.2
			C95,58.3,95.3,58.3,95.5,58.2 M93.1,56c0,0-0.3,0.1-0.5,0.1c0.1-0.1,0.2-0.3,0.2-0.4C92.8,55.9,92.9,56,93.1,56 M95.3,56.7v-0.2
			h0.3v0.1L95.3,56.7z M95.5,56.8C95.5,56.8,95.5,56.8,95.5,56.8c0-0.1,0.1-0.2,0.1-0.3c0.1,0.1,0.3,0.1,0.3,0.3H95.5z M94.6,53.4
			c-0.3,0-0.4,0-0.5,0l0-0.4h0.4C94.4,53.1,94.5,53.2,94.6,53.4 M105.8,63.4c0,0-0.4,0-0.5-0.2c0-0.2,0.3-0.5,0.4-0.7
			C105.8,62.8,105.8,63.1,105.8,63.4 M105.3,62.2l-0.1,0l0.1-0.3l0.1,0L105.3,62.2z M97.5,53.5L97,53l0.1-0.1l0.5,0.5L97.5,53.5z
			 M98,52.9l-0.1,0l0.1-0.3l0.1,0L98,52.9z M94.8,49.1c0,0-0.1,0.3-0.1,0.4c-0.1-0.1-0.3-0.1-0.5-0.1c0.1-0.1,0.2-0.3,0-0.5
			c0.1,0,0,0.3,0.3,0.2C94.8,49.2,94.7,49.1,94.8,49.1 M95.8,50.6l-0.1-0.2l0.1-0.1l0.1,0.3L95.8,50.6z M105.8,60.8v-0.1l0.5-0.2
			v0.2L105.8,60.8z M95.3,50.1c0-0.1,0.1-0.2,0.1-0.4c0.1,0.1,0.3,0.2,0.3,0.3L95.3,50.1z M95.4,48.2c0,0-0.2,0.3-0.5,0.4
			c-0.1-0.2,0.1-0.5,0.1-0.7C95.2,48.1,95.3,48.2,95.4,48.2 M95.9,48.9c-0.1-0.1-0.2-0.3-0.4-0.3c0.2,0,0.1,0,0.5,0
			c0.2,0,0.1-0.1,0.3-0.1L95.9,48.9z M98.4,50.3l-0.3-0.1l0-0.1l0.4,0.1L98.4,50.3z M97.2,48.8c0,0-0.3,0.1-0.4,0
			c0.1,0,0.2-0.1,0.2-0.2c0,0,0,0,0,0.1C97.1,48.7,97.1,48.7,97.2,48.8 M98.2,49c0,0-0.1-0.1-0.2-0.3c-0.1,0.1-0.3,0-0.3,0.2
			c0-0.1-0.1-0.3-0.1-0.5c0.2,0.1,0.4,0.3,0.5,0.3L98.2,49z M101.5,51.7c-0.1-0.1-0.2-0.1-0.2,0c0-0.1-0.1-0.3-0.2-0.3
			C101.3,51.4,101.5,51.5,101.5,51.7 M95.6,45l-0.3-0.1l0-0.1l0.4,0.1L95.6,45z M97.2,46.3c0,0-0.3-0.1-0.3-0.3H97
			c0.1,0,0.1,0,0.1-0.1L97.2,46.3z M98.6,47.8v-0.2l0.8-0.1l0,0.2L98.6,47.8z M99,47.3c-0.1,0-0.2,0-0.3,0c-0.1-0.1-0.1-0.2-0.2-0.4
			c-0.2,0.1-0.2,0.4-0.4,0.6c0-0.1-0.2-0.3-0.4-0.3c0-0.2,0.1-0.5,0.1-0.9l0.4,0c0,0.1,0.1,0.2,0.1,0.4c-0.1-0.1-0.1-0.2-0.3-0.1
			l0.2,0.2c0.2,0,0.2-0.3,0.5-0.5l0.1,0.1c0.1,0.1,0.1,0.1,0.1,0.1v0.3C98.9,47,99,47,99,47.3 M108.6,57.1l-0.1-0.2l0.1,0l0.2,0.3
			H108.6z M107.2,55.1l0-0.2h0.4l0,0.1L107.2,55.1z M106.1,53.4c0,0-0.3-0.2-0.2-0.3c0,0-0.1,0-0.2,0h-0.1L106,53L106.1,53.4z
			 M99.6,45.2c-0.1,0.1-0.1,0.3,0,0.5c0,0-0.2,0-0.4-0.2c-0.1,0.1-0.1,0.2-0.1,0.3l-0.2-0.2c-0.2,0.1-0.2,0.6-0.4,0.6
			c-0.2,0-0.6-0.1-0.9-0.3c0.1-0.1,0.2-0.1,0.3-0.2c0,0.1,0.1,0.3,0.3,0.3c0,0,0.1-0.1,0.1-0.1s0,0,0-0.2l0-0.4
			c0.1,0,0.3-0.2,0.5-0.4c0-0.1-0.1-0.1-0.1-0.3C98.9,44.8,99.5,45,99.6,45.2 M97.1,43.9l0-0.3l0.2,0l0,0.4H97.1z M97.8,42.8
			c0,0,0,0.2-0.2,0.4L97.2,43C97.4,43,97.7,42.9,97.8,42.8 M98.8,43.9l-0.1-0.1l0.2-0.2l0.1,0.1L98.8,43.9z M99.1,43.6l-0.3-0.2
			l0.1-0.1l0.2,0.2L99.1,43.6z M101.8,45.4c-0.2,0.1-0.4,0.1-0.6,0.1c-0.2,0,0.2,0.2-0.1,0.2c-0.2,0-0.4-0.1-0.4-0.2
			C101,45.3,101.4,45.4,101.8,45.4 M108.7,53l-0.1-0.2l0.1,0l0.1,0.2L108.7,53z M107.3,51.6l0-0.3h0.2v0.2L107.3,51.6z M97.4,41.4
			v-0.2h0.3v0.1L97.4,41.4z M108.3,51.6l-0.1,0l0.1-0.3l0.1,0L108.3,51.6z M100.7,43.8l0.2-0.3c0.1,0.1,0.3,0.2,0.4,0.4L100.7,43.8z
			 M110.4,53.1V53h0.3v0.1L110.4,53.1z M101.8,43.9l-0.1,0l0.1-0.4l0.1,0L101.8,43.9z M110.5,51.3c-0.3,0-0.7,0.3-1,0.5
			c-0.2-0.1-0.1-0.5-0.1-0.4c0.1,0.1,0,0.1,0.3,0c0.3,0,0.3-0.4,0.4-0.7L110.5,51.3z M111.7,52.1c0,0,0,0.2-0.1,0.4l-0.4,0
			C111.4,52.4,111.5,52.2,111.7,52.1 M112,52.3v-0.1l0.4,0v0.2H112z M112.1,52.1l0-0.3l0.5,0.1L112.1,52.1z M103.3,41.5
			c-0.2,0.2-0.6,0.1-0.7,0.6c-0.2-0.1-0.5-0.1-0.7-0.1c-0.9,0.1-0.9,0.8-1,0.8c-0.2,0,0,0.1-0.2,0c-0.1,0.1,0.1,0.2,0.2,0.2
			c0,0.2-0.3,0.7-0.6,1.1l-0.3,0c0-0.1,0-0.1-0.1-0.3c-0.5,0.3-0.6,0.9-1,0.8c0.1-0.2,0.1-0.4,0.1-0.6c0.2-0.3,0.5-0.7,0.4-1
			c0.2-0.1,0.1-0.2,0-0.2c0-1.2,1.2-1.4,0.8-2.4c0.7,0.2,0.2-0.5,0.8-1.1c-0.1-0.1-0.3-0.1-0.4-0.3c0.1,0,0.4,0,0.6-0.1
			c0.1-0.2,0-0.5-0.2-0.6c0.3-0.2,0.7-0.6,1-1c-0.1-0.3-0.1-0.3,0-0.6c0.1,0,0.4,0,0.6,0c0,0.2,0.2,0.4,0.3,0.7
			c-0.2,0-0.5,0.1-0.5,0.5c0,0.2,0.2,0.6,0.4,0.9c-0.1-0.1-0.3-0.3-0.6-0.3v0.3c0.2,0,0.4,0.2,0.5,0.4c-0.3,0-0.5,0.3-0.8,0.5l0,0.3
			l0.5,0.5c-0.4,0.1-1.1,0.5-1.4,0.8l0,0.4c0,0,0.1,0,0.2,0c0,0,0.1,0,0.1,0c0.1,0.1,0.1,0.2,0,0.4c0.1,0.1,0.2,0,0.4,0.1
			c0.1-0.1,0-0.1-0.1-0.3c0.3,0,0.6-0.4,0.8-0.4c0.2,0,0.1,0.3,0.4,0.3C103.1,41.5,103.1,41.5,103.3,41.5 M100.3,40v-0.2h0.2l0,0.1
			L100.3,40z M98.2,37.5l0-0.1l0.2-0.1l0.1,0.1L98.2,37.5z M113.8,51.5c0,0-0.2-0.1-0.4-0.2c0-0.1,0.1-0.3,0.1-0.5
			C113.5,51,113.6,51.2,113.8,51.5 M103,40.3c0,0-0.3,0.2-0.5,0.2c0.1-0.2,0.2-0.5,0.4-0.6L103,40.3z M100.9,38.1v-0.2h0.2l0,0.1
			L100.9,38.1z M103.1,39.5L103.1,39.5l0.1-0.3l0.1,0L103.1,39.5z M100.7,35.7l0-0.4h0.1l0,0.3L100.7,35.7z M103.6,38.1l0-0.4l0.2,0
			v0.4L103.6,38.1z M101,35.4c0-0.4,0-0.4,0-0.6c0,0.1,0.2,0.2,0.2,0.4L101,35.4z M103.4,37c0,0-0.2,0.1-0.4,0.1v-0.1
			c0,0,0,0-0.1-0.1c0.1,0,0.2-0.1,0.3-0.1C103.3,36.8,103.4,36.9,103.4,37 M104.4,38.4L104.4,38.4l0.1-0.4l0.1,0.1L104.4,38.4z
			 M101.8,34.2l-0.1,0l0.1-0.3l0.1,0L101.8,34.2z M102.1,34.3v-0.2h0.3l0,0.1L102.1,34.3z M101.5,33.5v-0.2h0.3v0.1L101.5,33.5z
			 M95.6,60.5l-0.1,0.1l0.4,0.3l0.1-0.1L95.6,60.5z M115.4,51.1c0,0-0.2-0.3-0.2-0.4c-0.2,0-0.3,0.2-0.5,0c0-0.1,0.1-0.3,0.1-0.4
			c-0.1,0.1-0.3,0.1-0.5,0.1c0-0.1,0-0.2,0.2-0.2c-0.2,0-0.3-0.2-0.5-0.2c-0.2,0-0.3,0.3-0.5,0.2c0.1-0.1,0.2-0.2,0.1-0.2
			c-0.1,0,0,0.2-0.2,0.2h-0.2c-0.2-0.2-0.2-0.4-0.5-0.4c-0.2,0-0.5,0.3-0.7,0.3c0,0,0,0.1,0,0.3c-0.5-0.2-1.6-0.1-1.8-0.4
			c-0.2,0.1-0.5,0.3-0.7,0.3c0.2,0.4,0,0.5-0.2,0.7c-0.1-0.1,0-0.2-0.1-0.4c0,0.2-0.1,0.4-0.3,0.4c-0.2,0-0.4,0-0.4-0.2
			c0.3-0.2,0.5-0.3,0.6-0.5c0,0,0.1,0.1,0.1,0.1h0.1c0-0.1,0-0.3-0.2-0.3c-0.4,0.1-0.8,0.1-1.2,0.2c0.2,0.3,0.2,0.3-0.1,0.7
			l-0.2-0.2c-0.2,0-0.1-0.1-0.3,0c-0.2,0,0,0.1-0.2,0.1c-0.2,0,0-0.1-0.2-0.2c0-0.1,0-0.3,0.1-0.4c-0.3,0.1-0.7,0.2-0.9,0.4
			c-1.4-0.5-1.2,0-1.4,0c-0.3,0-0.3-0.2-0.5-0.2c-0.3,0-0.1,0.1-0.5,0.2c-0.2,0-0.3-0.1-0.3-0.3c-0.4,0-1.2-0.2-1.4-0.1
			c-0.2,0-0.2,0.5-0.4,0.7c0.1,0,0.3,0,0.4,0.2c-0.2,0-0.4,0.2-0.6,0.3c-0.1-0.2-0.3-0.3-0.5-0.3c0,0.2-0.2,0.6-0.1,0.8
			c0.5,0.4,0.5,0.6,0.7,0.9c0.2,0.1,0.4,0.4,0.6,0.4c0.2,0,0-0.1,0.2-0.1c0.8-0.1,1.1,0.6,1.5,0.8c0.4,0.1,0.7,0.3,1,0.5
			c0.2,0.3,0.4,0.6,0.8,0.9c-0.2,0.6,0.5,1.4,0.7,1.4c0.1,0,0.2,0,0.2,0v0c0.1,0.1,0,0.2,0.2,0.3c-0.2,0.1-0.4,0.2-0.5,0.2
			c0,0.2,0.2,0.5,0,0.6h0.1c0,0,0,0,0.1,0l-0.3,0.3c0.1,0,0.2,0.1,0.2,0.2c-0.2,0.3-0.3,0.9-0.3,1.2c0,0.1-0.1,0.1-0.1,0.2
			c0.1,0.1,0.3,0.1,0.3,0c0.1,0.1,0.1,0.1,0.1,0.2l-0.2,0.3l-0.1-0.1c0,0,0,0-0.2,0c-0.6,0-0.2,0.4-0.6,1c0.1,0.2,0.2,0.5,0.2,0.6
			c-0.1-0.1-0.1-0.2,0-0.3l-0.2,0.2c-0.1,0-0.1-0.1-0.1-0.3c-0.1,0.7-0.7,1.7-1.2,2.3c0.1,0,0.3,0,0.3,0.1c0,0,0,0.1,0,0.1v0
			l-0.5,0.1c-0.7,1.1-1.3,2.3-1.8,3.1c-0.3,0.4-0.8,0.8-1.1,1.1c-0.2,0.2-0.2,0.8-0.4,0.8c-0.3,0,0.1-0.1-0.2-0.1
			c-0.2,0-0.4,0.5-0.5,0.6c-0.5,0.3-1.1,0.6-1.6,0.9c-0.3-0.1-0.5-0.3-0.9-0.5c0-0.4-0.2-0.8-0.4-1c0.2,0-0.1-0.4-0.2-0.6
			c0,0-0.3-0.1-0.3-0.2c0.4-0.5-0.2-1.1-0.2-1.6c0,0,0,0,0,0.1v0h0l-0.2-0.1c0.1-0.2,0.2-0.3,0.4-0.4l0-0.5c-0.2,0-0.3,0-0.4,0
			l0-0.4c0.3-0.2,0.2-0.9,0.1-1.2c0.2-0.1,0.2-0.5,0.2-0.7c0-0.2-0.5-0.5-0.5-0.7c0-0.1,0-0.1,0.1-0.1l0.1,0.1c0-0.1,0-0.3-0.2-0.4
			c0.2-0.3,0.3-0.5,0.3-0.7c0-0.2-0.2-0.5-0.5-0.6l0-0.5c0.1-0.1,0.3-0.1,0.5-0.2c0.1-0.2-0.2-0.9,0.4-1.2L96,58.2
			c-0.1,0-0.1,0-0.3-0.1c0.2-0.1,0.5-0.3,0.5-0.8c0,0-0.2,0-0.3-0.1c0.1-0.1,0,0,0.3,0c0.2,0,0-0.4,0.2-0.5
			c-0.5,0.2-0.3-0.1-0.6-0.4c0.7,0,0.9-0.7,0.9-1.4l0.4,0c-0.1,0-0.3,0-0.4-0.1c0,0,0-0.1,0.2-0.2c0.1,0,0.2,0,0.3,0
			c-0.4-0.3,0-0.7,0.3-0.7c0.2,0,0.1-0.1,0.3,0c-0.1-0.1-0.2-0.3,0-0.4c0.1,0.1,0.3,0,0.5-0.1c-0.1-0.2-0.4-0.4-0.4-0.5
			c0.2-0.1,0.1,0.1,0.4,0.1c0.2,0,0.3-0.1,0.4-0.1c0-0.3,0-0.7,0-1c0.1,0,0.3,0.1,0.3,0.3c0-0.3-0.1-0.3-0.3-0.5L98.2,52l-0.2-0.1
			c0.1-0.4,0.7-0.5,0.9-0.7c-0.5-0.5,0.4-0.5,0.5-0.8c0.1-0.5,0.3-0.9,0.5-0.9c-0.2,0-0.5,0.3-0.7,0.3h-0.1v0
			c0.1-0.3,0.3-0.5,0.3-0.8c0-0.2-0.1,0-0.1-0.2c0.2,0,0.2-0.1,0.5-0.1c0.2,0,0.3,0.2,0.4,0.4c0-0.3,0.1-0.5,0.3-0.5
			c-0.4-0.3-0.4,0-0.9-0.1c0.1-0.1,0.1-0.1,0.2,0l0.2-0.2h0.4c0-0.2,0.2-0.4,0.5-0.4c-0.1-0.2,0-0.6,0.2-0.9c0.1,0.1,0,0.1,0.2,0.1
			c0.2,0,0.4-0.3,0.4-0.4c-0.3,0-0.5,0.1-0.8,0l0.2-0.3c0.1,0.1-0.1,0.2,0.1,0.2c0.3,0,0.2-0.3,0.5-0.3c0.3,0,0,0.2,0.2,0.2
			c0.2,0,0.4-0.5,0.5-0.6l-0.3-0.3c0.3-0.2,0.5-0.4,0.6-0.6c-0.3,0-0.5,0-0.8,0c0.2-0.1,0.5-0.3,0.6-0.4l0.2,0.1
			c0.1-0.2,0.1-0.4,0.3-0.5c-0.2-0.1-0.2,0-0.3-0.3c0.1,0.1,0,0.1,0.2,0.1c0.3,0,0.3-0.4,0.3-0.5c-0.2-0.1-0.6-0.1-0.7-0.3
			c0.4-0.1,0.7-0.5,1.1-0.6c0-0.2-0.1-0.3,0-0.5c0.1,0,0.2-0.1,0.3,0c0.2-0.7,0.6-1.5,0.8-2.2c-0.1,0-0.4,0.1-0.5,0
			c0.2-0.2,0.3-0.4,0.4-0.5l0.2,0.2c0-0.2,0-0.5,0.1-0.7c-0.1,0,0,0-0.3,0.1c-0.2,0-0.1,0-0.2-0.1c0.1-0.1,0.1-0.2,0.2-0.4
			c0.2,0.1,0.2,0.3,0.4,0.3c0-0.2,0-0.5,0-0.7c0-0.2-0.4-0.5-0.5-0.8l0.4-0.4l0-0.5c-0.1,0-0.3,0-0.4-0.1l0.4-0.4
			c0,0-0.1-0.1-0.1-0.1c0,0,0,0,0-0.1c0,0-0.1,0-0.1,0.1l0,0c-0.1-0.3,0-0.5-0.1-0.7c-0.1,0,0,0.1-0.3,0.1c-0.2,0-0.1-0.3-0.1-0.5
			c-0.2,0-0.4,0-0.4-0.1c0-0.1,0.1-0.1,0.2,0c0,0-0.1-0.1-0.1-0.1v-0.1c-0.2,0-0.5,0-0.9-0.1c0.3-0.2,0.7-0.3,0.9-0.6l-0.2-0.1
			c0,0,0,0-0.1,0c0,0.1,0,0.2-0.1,0.2c-0.1-0.2-0.3-0.5-0.5-0.5c-0.2,0-0.5,0.3-0.8,0.3c0-0.2-0.2-0.1-0.3-0.3
			c0.1-0.1,0-0.1,0.1-0.2c0.2,0,0.5,0,0.7,0.2c0,0,0-0.2,0-0.4c-0.2,0.1-0.4,0-0.7,0c-0.2,0-0.5,0.2-0.9,0.3c0,0.3-0.1,0.3-0.1,0.5
			c-0.1-0.1,0.1-0.2-0.1-0.2c-0.2,0-0.1,0.2-0.3,0.2c0,0,0.2,0,0.4,0.2c-0.2,0.1-0.2,0.3-0.4,0.4c0.3,0.1,0.1,0.1,0.5,0.5
			c-0.2,0.2-0.5,0-0.6,0c0.1,0.3,0.2,0.8-0.3,0.8c-0.2,0-0.9,0-1.4,0.1c0.3,0,0.6,0,0.8,0.1c0,0.2,0,0.4-0.1,0.6
			c0.1,0.1,0.3,0.1,0.4,0.2l-0.1,0.2c-0.1,0-0.3,0-0.5-0.2c0-0.1-0.3-0.2-0.4-0.2c0,0.1,0.2,0.2,0,0.4h-0.1c0,0,0,0-0.1,0
			c0.5,0.5,0.8,0.8,1.2,1.2l-0.3,0.1c-0.1-0.1,0-0.2-0.1-0.2c-0.1,0.6-0.8,0.3-0.9,0.7l-0.1-0.2c0-0.1,0.1,0.1,0,0.3
			c-0.3,0-0.6-0.1-0.8-0.1c0.1,0.2,0,0.3,0,0.5c0,0,0.1,0,0.2-0.2c0.2,0.2,0.5,0.3,0.6,0.4c0-0.2,0.1-0.4,0.3-0.4
			c0.5,0,0.7,0.3,1,0.5c-0.1,0.1-0.2,0-0.2,0.1c-0.3,0-0.3-0.3-0.5-0.3l-0.4,0c0.1,0.2,0,0.4,0,0.5c-0.4,0-0.6-0.1-0.7-0.1
			c0.1,0.6-0.7,0.4-0.8,0.5c0,0.2-0.1,0.4-0.5,0.5c0.2,0,0.5,0,0.7,0.2l-0.1,0.2c-0.2-0.1-0.5,0-0.6,0c0.2,0,0.4,0.1,0.6,0.2
			L97,41.3c-0.2-0.1-0.2,0-0.5,0c0.1,0.1,0,0.4,0.3,0.5c-0.1,0.1-0.2,0.1-0.4,0.1c0.1,0.1,0.3,0,0.4,0.2c-0.1,0.2-0.4,0.5-0.6,0.5
			c0.1,0.3,0.1,0.5-0.1,0.6c0.1,0,0,0,0.2-0.1c0.2,0,0.4,0.2,0.6,0.4c-0.3,0.3-0.4,0.6-0.7,0.8c-0.2-0.3-0.5-0.3-0.7-0.4
			c0.2,0.6-0.4,0.7-0.6,1.1c-0.1,0.3,0,0.5,0,0.8c-0.1,0.2-0.1,0.5-0.2,0.6c0.4-0.2,0.7-0.5,0.9-0.6c0.2,0.1,0.3,0.4,0.4,0.5
			c-0.4,0.2-0.7,0.2-1,0.2c-0.7,0.9-0.7,0.8-0.7,1.3c0,0.3,0.3,0.1,0.1,0.2c-0.1,0-0.3,0-0.4,0.1c0.2,0,0.4,0,0.5,0
			c-0.3,0.6-0.4,1.1-0.7,1.6c0.1,0,0.1-0.1,0.4-0.1c0.2,0,0,0,0.2,0.2c0,0.2-0.4,0.4-0.5,0.4c0.1,0.3,0.5,0.5,0.5,0.7
			c0,0.3-0.3,0-0.5,0c0,0.2,0,0.4-0.2,0.4c0.3,0,0.5,0,0.7,0.2c-0.2,0.1-0.2,0.3-0.4,0.3c-0.1,0-0.2,0-0.2,0c0,0,0,0,0,0l-0.2,0.3
			c0,0,0.5,0,0.7,0.2c-0.2,0.2-0.2,0.3-0.4,0.3c-0.2,0,0-0.2-0.2-0.2l-0.2,0.1c0,0,0,0,0,0.1h0.1c0,0,0,0,0.1,0l0.2,0.1
			c-0.2,0.2-0.4,0.4-0.5,0.5c0.1,0,0.3-0.1,0.4,0v0.3c-0.4,0-0.3,1.4-0.2,1.6c-0.1,0.1-0.2,0.6-0.5,0.6c-0.3,0,0.1-0.1-0.2,0
			c-0.2,0-0.3,0.8-0.4,1.1c0,0.2-0.3,0.3-0.7,0.4l0,0.5c0.2-0.1,0.3-0.2,0.5-0.4c0.1,0.1,0.3,0.1,0.3,0.3c-0.3,0.1-0.4,0.5-0.6,0.5
			c-0.1-0.1-0.2-0.3-0.4-0.2l0.1,0.7c-0.3,0-0.4,0.1-0.5,0.1c0,0.2-0.1,0.5-0.1,0.8c0,0.3,0.2,0.6,0.3,0.9c0,0,0,0.1-0.1,0.2
			c-0.1,0.1,0.1,0.4,0.3,0.5c0.4,0,0.3-0.5,0.9-0.5c0.2,0,0.2,0.3,0.4,0.4l-0.2,0.2c-0.1-0.1-0.5,0-0.6,0c0.1,0,0.2,0,0.4,0.2
			c0.3,0.1,0,0.5,0,0.6c0,0,0.1,0,0.3,0.1c-0.3,0.2-0.4,0.5-0.4,0.9c0.1,0,0.2,0,0.3,0.1c-0.4,0.4-0.3,0.6-0.3,0.9
			c0,0.3,0.1,0.5,0.2,0.6c0.1-0.1,0.2-0.1,0.2-0.1c-0.1,0.1-0.2,0.2-0.4,0.2l0.1,0.8c0.2-0.1,0.4-0.1,0.6-0.3
			c0.1,0.2,0.3,0.2,0.3,0.4v0.2h0h-0.9c0.1,0.3,0.1,0.7,0.1,1l0.3-0.3c0.1,0.1,0.1,0,0.3,0.1c-0.1,0.2-0.3,0.3-0.5,0.5
			c0.2,0,0.3,0,0.4,0l0,0.3c0,0.1-0.1,0.1-0.3,0.1c0.2,0.1,0.4,0.3,0.4,0.5c0,0.3,0,0.3-0.1,0.5c0.2,0,0.5-0.1,0.7,0
			c0,0,0,0.1,0.1,0.2c-0.4,0.1-0.2,0.7-0.2,0.9c0,0.1-0.2,0.2-0.2,0.4c0.2,0,0.1,0.3,0.1,0.4c0.2,0.1,0.5,0,0.5,0.2
			c-0.3,0.2,0,0.2,0,0.6l0.2-0.2c0.1,0.3,0.5,0.4,0.5,0.5c0-0.1,0.1-0.1,0-0.3c0,0,0,0,0,0h0c0.1,0.2,0.2,0.3,0.1,0.5
			c0.1-0.2,0.1-0.4,0.2-0.5c0.4,0.3,0.9,0.4,1.2,0.7c-0.7,0.1-1.1,0-1.2,0.3c0.3,0.1,0.6,0.1,0.8,0.3c0-0.1,0.1-0.2,0.2-0.3
			c0.2,0.2,0.3,0.5,0.5,0.4c0.2,0,0.7-0.1,0.9-0.2c0.2,0,0.1,0,0.3,0.2c0.1-0.2,0.3-0.5,0.3-0.3c0,0-0.1,0-0.1,0.1v0.1
			c0.2-0.2,0.4-0.3,0.5-0.3c0.3,0.1,0.6,0.8,1,0.8c0.3,0,0.4-0.1,0.5,0c0,0,0-0.1,0-0.2c0-0.1,0-0.2,0-0.3c0.5,0,0.7-0.5,0.7-0.6
			c0.2,0.2,0.3,0.1,0.5,0.4c-0.2-0.3-0.2-0.5-0.2-0.7l0.2,0.1c0,0,0-0.2,0.2-0.2c0.2,0,0.4,0,0.6,0.1c-0.1,0.3-0.1,0.5-0.3,0.6
			c0.2-0.1,0.4-0.5,0.7-0.7c0.1,0.1,0.2,0.2,0.3,0.1c0.3-0.5,0.9-1.1,1.7-1.7c-0.1-0.2-0.2-0.4-0.1-0.5c0.2,0,0.4,0,0.4-0.1
			c-0.2,0,0,0-0.4,0c-0.2,0-0.1,0-0.2-0.2c1-0.2,1.6-1.4,2.2-1.8l-0.3,0.1c-0.1-0.1-0.5-0.1-0.5-0.4c0-0.3,0-0.3,0.1-0.5
			c0.2,0,0.3,0,0.5,0c0.5,0,1.2-1.1,1.2-1.3c-0.4-0.1-0.3-0.4-0.2-0.5c0.1,0,0.2,0,0.2-0.1c0.1,0.2,0.2,0.4,0.1,0.5
			c0.1-0.1,0.3-0.2,0.3-0.2l0-0.5c-0.2,0.1-0.3,0.1-0.3,0c0.2-0.1,0.4-0.5,0.5-0.6c-0.1-0.2-0.2-0.4-0.2-0.5c-0.1,0,0.1,0.1-0.2,0.1
			c-0.2,0-0.1,0-0.2-0.2l0.6,0c0.1-0.2-0.1-0.4,0-0.6c0.1,0,0,0.1,0.2,0.1c0.2,0,0.5-0.7,0.5-0.9c-0.1-0.2-0.4-0.3-0.5-0.5
			c0-0.2-0.1,0,0-0.2c0.1,0.1,0.3,0.2,0.4,0.2l0.6-0.5c-0.1,0-0.1,0.1-0.4,0.1c-0.2,0-0.5-0.4-0.7-0.5c0.2-0.2,0.3-0.3,0.5-0.4
			l0.3,0.4c0.3-0.3,0.6-0.3,0.9-0.2c0-0.1,0.1-0.2,0-0.5c0-0.2-0.2-0.2-0.2-0.4c0.2-0.2,0.5-0.5,0.4-0.8c0-0.3-0.5,0-0.5-1
			c0.2,0,0.5,0.3,0.6,0.2c-0.4-0.2-0.5-0.6-0.9-0.9c0.1-0.1,0-0.2,0.1-0.3c0.1,0,0.1,0.2,0.3,0.1c0.2,0,0.2-0.1,0.2-0.3
			c-0.2-0.4-0.5-0.3-0.7-0.7c-0.7,0.2-1.1-0.1-1.4-0.4c0.4-0.2,1-0.9,0.9-1.4c0.2-0.2,0.2-0.5,0.5-0.5c0.2,0,0.2,0.1,0.5,0.1
			c0.2,0-0.1-0.2,0.1-0.2c0.3,0,0.2,0,0.3,0.2l0.2-0.3c-0.2-0.2-0.3-0.4-0.3-0.7c0,0.1,0.2,0,0.4,0.1c-0.1,0.2,0.2,0.3,0.3,0.2
			c-0.2,0.3-0.1,0.1,0.2,0.4c0-0.1-0.2-0.2,0.1-0.2c0.2,0,0.5-0.5,0.7-0.5l0.2,0.2c0.4-0.4,0.7-0.2,1.2-0.3c0-0.1,0-0.1,0-0.2
			c0,0,0,0,0-0.1c-0.1,0-0.3,0-0.3-0.2c0.5-0.4,0.2-0.3,0.5-0.7c0.2,0.1,0.3,0.1,0.5,0.2c0.1,0.2,0.3,0.4,0.5,0.5
			c0-0.1-0.2-0.1,0-0.3c0.2,0.1,0.4,0,0.6,0C114.8,51.8,115.1,51.3,115.4,51.1 M95.8,42.7L95.7,43l0.1,0l0.1-0.3L95.8,42.7z
			 M97.4,39c-0.1,0-0.2,0-0.3,0c0,0,0.1-0.2,0.1-0.4c0,0.2-0.2,0.4-0.2,0.5c0.2,0.1,0.3,0.1,0.4,0.3L97.4,39z M99,37.2
			c-0.5-0.1-0.9,0-1.2,0.1c0.2,0.2,0,0.6-0.1,0.7c0.3-0.1,0.8,0,1.1,0c-0.1-0.1-0.3-0.2-0.3-0.4L99,37.2z M99.6,35.1v0.1l0.5,0
			L99.6,35.1z M103.2,33l-0.1,0l0.1,0.3l0.1-0.1L103.2,33z M70.1,70.4c-0.1,0-0.2,0-0.3,0c-0.1,0.1-0.2,0.2-0.2,0.2
			c0-0.1,0.1-0.3,0.1-0.4C69.9,70.3,70,70.2,70.1,70.4 M75.9,65.2v-0.1l0.5,0.1v0.1L75.9,65.2z M76.6,64.7h0.4v0.2h-0.4V64.7z
			 M76.5,64.3h0.3v0.2h-0.3V64.3z M77,64.3l-0.1,0L77,64l0.1,0L77,64.3z M77.7,63.9c0,0-0.2,0.1-0.4,0.1c0-0.1,0.1-0.3,0.2-0.5
			C77.7,63.7,77.7,63.7,77.7,63.9 M77.3,63l0.1-0.1l0.3,0.4L77.3,63z M70.9,55.3C70.8,55.3,70.8,55.3,70.9,55.3
			c-0.1,0-0.2-0.1-0.2-0.1c0-0.1,0.1-0.2,0.1-0.4c0.1,0.1,0.4,0.1,0.4,0.2L70.9,55.3z M86.2,69.3c0,0-0.4,0-0.4,0.2
			c0-0.1-0.1-0.3,0-0.4C85.8,69.2,86.1,69.3,86.2,69.3 M87.2,67.1c0-0.1,0-0.2,0.2-0.2c0.1-0.1,0-0.2,0-0.4c0.1,0.1,0.2,0.4,0.2,0.5
			H87.2z M88.2,66.9c-0.3,0-0.4-0.1-0.5-0.1c0.2-0.6,0.5-0.1,0.3-0.8C88.3,66.4,88.2,66.6,88.2,66.9 M87.1,65c-0.2,0.1-0.5,0-0.7,0
			c0.1-0.1,0.4-0.4,0.5-0.4C87,64.8,87,64.9,87.1,65 M80.9,58.6v-0.1l0.3-0.1l0,0.1L80.9,58.6z M89.4,63.9c0-0.1,0.1-0.4,0.3-0.4
			c0,0.1,0.1,0.2,0.1,0.4H89.4z M89,62.8c0,0-0.3,0-0.3-0.2c0,0,0,0,0.1,0L89,62.8z M88.9,62.1c0.2,0,0.4-0.1,0.6-0.3v0.7L88.9,62.1
			z M90,62.9L90,62.9l0.3-0.4l0.1,0.1L90,62.9z M72,70.6l-0.2,0.2l0.1,0.1l0.3-0.2L72,70.6z M85.5,70.9C85.3,71,85.1,71,85,71.2h0.4
			C85.5,71.1,85.5,71,85.5,70.9 M86,70.9l-0.1,0l0.1,0.2h0.1L86,70.9z M72.1,55.1c-0.2,0.2-0.2,0.3-0.2,0.5
			C72.1,55.4,72.2,55.1,72.1,55.1 M91.9,61.4c0,0-0.1,0-0.2,0.2c-0.3-0.6-0.9-0.4-1.2-0.7c0,0,0.1-0.1,0.1-0.1v0
			c-0.3,0-0.5,0.1-0.6,0.1l0.3,0.3c-0.1,0.1-0.2,0.2-0.2,0.2l0.3-0.2c0.3,0.2,0.5,0.3,0.6,0.5c-0.2,0.3-0.3,0.4-0.5,0.6
			c0-0.2,0-0.4,0.1-0.6c-0.5-0.1-1-0.1-1.4-0.2c-0.2,0.4-0.6,0.7-0.9,0.9v0.5c0.2,0.2,0.6,0.1,0.8,0.5c-0.2,0.1-0.4,0-0.6,0
			c0,0.3-0.2,0.5-0.3,0.5c-0.2-0.2-0.2-0.4-0.5-0.4c-0.2,0-0.2,0.1-0.4,0.1v0.7c0,0.3,0.2,0.4-0.1,0.7c-0.1-0.2,0-0.4-0.1-0.6
			c-0.1,0.1-0.2,0.3-0.4,0.3c-0.3,0,0.1-0.1-0.2-0.1c-0.2,0-0.2,0.5-0.5,0.8l0.4,0.4c-0.2,0.1-0.3,0.4-0.5,0.5l-0.3-0.2l0.1-0.2
			c0,0,0,0,0,0c-0.2-0.2-0.3-0.4-0.3-0.5c-0.1,0.1-0.2,0.4-0.4,0.4c0.1,0,0.3,0.1,0.3,0.3c-0.1,0.1-0.3,0-0.4,0
			c0,0.1,0.2,0.1,0.2,0.3c-0.8,0.2-0.6,0.8-0.8,1.1c-0.1-0.1-0.2-0.1-0.3-0.2c-0.2,0.7-0.7,0.7-1.5,1.1c-0.1-0.2-0.1-0.5-0.6-0.5
			c-0.2-0.5-0.1-1-0.3-1.5c-0.2,0-0.3-0.2-0.4-0.4c0.5-0.1-0.1-1-0.3-1.2c0-0.1,0-0.2,0.1-0.4c0-0.5-0.3-1-0.6-1.4
			c0.1-0.1,0.2-0.1,0.3-0.2c-0.4-0.3,0-0.8-0.2-1.2c0,0,0,0,0.1-0.1c0,0,0,0,0,0c0.2,0.1,0.4,0,0.5-0.1c0-0.4-0.4,0-0.6,0
			c-0.2,0-0.1,0-0.2-0.1c0.1-0.2-0.1-0.3-0.1-0.4c0.9-0.1,0.1-0.9,0.9-0.9c0.1,0.1,0.1,0.2,0.3,0.2v-0.4c-0.3-0.1-0.5-0.2-0.7-0.4
			l0.1-0.2h0.3l0.3,0.2c-0.1-0.2-0.3-0.4-0.4-0.5c0.2-0.2,0.5-0.4,0.6-0.4c-0.1-0.5,0.1-0.7,0.1-0.9c0-0.2,0-0.2-0.2-0.3
			c0.2-0.1,0.4-0.4,0.3-0.4c-0.1-0.5,0.6-1.5,0.7-2.1c-0.1-0.1-0.3,0-0.4-0.2c0.2-0.1,0.5-0.1,0.6-0.2c-0.2-0.1-1-0.3-1-0.6
			s0.3-0.8,0.4-1.3c-0.1,0-0.2,0.1-0.3,0.3l-0.1-0.5c0.1-0.1,0.3-0.1,0.3-0.3c-0.2,0-0.4-0.1-0.3-0.3c-0.2,0.2-0.2,0.5-0.3,0.4
			c0.1,0,0.2,0,0.2,0.1l-0.2,0.2c-0.4-0.3-0.9-0.9-1.1-0.9c-0.4,0-0.5,0-0.9,0.3c0,0.7-0.5,1.8-0.8,2.4c0,0.2,0.1,0.4,0,0.5
			c-0.5,0.4-0.4,0.7-0.7,1c0.2,0.9-0.8,1.4-1,1.9C76.4,59,76,60,75.4,61c-0.1,0.3-0.5,0.5-0.7,0.8c0.1,0.2,0.3,0.3,0.1,0.5
			c-0.1,0-0.3-0.1-0.5,0c0.5,0.4-0.5,0.7-0.6,0.7c0.1,0.2,0.1,0.4,0,0.5c-0.1,0-0.2,0-0.2-0.2l-0.3,0.2c0.1,0.2,0.2,0.4,0.1,0.5
			c-0.4,0-0.7,0.1-0.8,0.2c-0.9,1.1-2.2,2.7-3.8,3.2c0-0.2-0.3-0.4-0.7-0.6v-0.3c0.3,0.1,0.5,0.2,0.6,0.2l0.1-0.5
			c-0.1-0.1-0.2,0-0.5,0C68,66.2,68,66.1,68,66c0.5-0.2,0.2,0,0.2-0.5c0.1,0,0.2,0,0.3,0.1c0,0-0.1,0.2-0.1,0.4
			c0.1,0,0.4-0.1,0.5-0.1c-0.1-0.3-0.5-0.6-0.5-0.9c0-0.2,0-0.2,0.1-0.3c0,0,0.1,0,0.1,0h0.1c-0.1-0.2-0.1-0.4-0.3-0.5l0.4-0.4v-0.6
			c-0.2,0-0.3,0-0.3-0.1c0.2-0.1,0.4-0.2,0.5-0.2c-0.2-0.7-0.2-1.8,0.5-2.1c0-0.2-0.1-0.4-0.3-0.4c0.4-0.2,0.6,0,0.8-0.2
			c0-0.6,0.1-0.3,0.3-0.6c0-0.3-0.1-0.5,0-0.7c0.6-0.4,0.7-1.4,0.5-1.8c0-0.1,0.3-0.2,0.3-0.3c-0.2-0.1-0.3-0.2-0.5-0.5l0.4,0
			c0.1,0.4,0.5,0.4,0.5,0.4c0-0.2,0.3-0.5,0.5-0.6c-0.3-0.2-0.8-0.5-0.8-0.7c0-0.2,0.2-0.6,0.2-0.9c-0.4-0.2-0.9-0.2-1.3-0.5
			c0,0,0.2-0.1,0.4-0.1c0-0.1-0.2-0.2-0.2-0.4c-0.3,0.1-0.5,0.1-0.5,0c0-0.2,0.2-0.8,0-0.6l-0.3-0.3l-0.3,0.2
			c-0.1-0.1-0.3-0.1-0.3-0.3c-0.3,0-0.5,0.2-0.6,0.3v0.3v0.2c0,0,0,0,0,0c-0.4,1.1-0.7,2-1.2,3.3c0.1,0.2,0,0.5,0,0.7
			c0,0.2-0.3,0.4-0.5,0.5c0,0.3-0.1,0.8-0.3,1.1c0.1,0,0.1,0,0.1,0.1L66,59.2c0,0-0.1-0.1-0.1-0.1h-0.1c-0.3,0.8-0.5,2.1-0.5,2.3
			c0,0.3,0.2,0.8,0,1.1h-0.3c0.5,0.9,0.2,2,0.3,2.6c0,0.3,0.2,0.6,0.3,0.8c0.4,0.2,0.5,0.3,0.4,0.8c0-0.1-0.1-0.1,0.2-0.1
			c0.2,0,0,0.3,0,0.4c0,0.5,0.8,2.4,1.6,2.8c0.1,0.2,0.2,0.5,0.1,0.6c0,0.1,0.3,0.1,0.5,0.2c-0.1,0.2-0.3,0.3-0.3,0.4
			c0.1,0.1,0.3,0.3,0.3,0.5c0-0.2,0.2-0.3,0.3-0.3c0.1,0.1,0,0.3,0.1,0.4h0.6c0-0.2-0.1-0.4,0-0.5c0.1,0,0,0.2,0.3,0.2
			s0-0.1,0.3-0.1c0.2,0,0.6,0.3,0.9,0.3l0.3-0.8c0.2,0,0.3,0.2,0.2,0.3c0,0.1,0.2,0,0.3,0c-0.3-0.3,0.1-0.7,0.2-0.9
			c-0.1-0.1-0.2-0.2,0-0.4c0.2,0.1,0.3,0.3,0.5,0.3c0.2,0,0.3,0.2,0.5,0.2v-0.5h-0.2c0,0,0,0,0,0c0.5-0.1,0.8-0.3,1.2-0.4
			c0-0.1,0-0.3,0.1-0.4L73.6,69c-0.1-0.1,0-0.3-0.3-0.3c-0.1,0-0.1,0-0.1,0.1v0c0.1-0.5,0.5-0.4,0.5-0.4c0-0.1-0.1-0.2,0-0.4
			c0.1,0.1,0.2,0.2,0.2,0.4h0.4c0-0.2,0.1-0.4,0.3-0.4c-0.2,0-0.4,0-0.4-0.1c0-0.3,0-0.6,0.1-0.8c0.1,0.1,0,0.1,0.3,0.1
			c0.2,0,0.7-0.5,0.9-0.3c-0.8-0.4,0.4-0.9,0.6-1.1c-0.1,0-0.1-0.1-0.1-0.2c0.2,0,0,0.1,0.3,0.1c0.3,0,0.6-0.9,1.3-0.9
			c0.3,0,0.1-0.1,0.2,0c0,0.2,0.2,0.4,0.2,0.7c0,0.3-0.1,0.5-0.4,0.6c0.5,0.1,0.2,0.9,0.4,1.2c0.3,0.2,0.9,1.3,0.9,1.7
			c0.2-0.1,0.3-0.3,0.4-0.3c0.1,0.2,0.2,0.4,0.3,0.5c-0.4,0.2,0.4,0.5,0.7,0.8C80.1,70,80,70.1,80,70.2c0.1,0,0.2-0.1,0.4-0.3
			c0.1,0,0.1,0.2,0.4,0.2c0,0,0.3-0.1,0.6-0.1c0,0.2,0,0.5,0,0.6c0.1-0.1,0.3-0.5,0.5-0.5c0.3,0,0.4,0.3,0.5,0.5
			c-0.2,0.1-0.4,0.1-0.5,0.1c0.2,0.2,0.5,0.5,0.6,0.5c0.1-0.4,0.5-0.4,0.7-0.4c0.1,0.2,0.3,0.4,0.5,0.7c0.2-0.2,0.5-0.4,0.7-0.4
			c-0.2,0-0.4-0.1-0.3-0.3c0.4-0.2,0.2-0.4,0.2-0.5c0.4-0.2,0.9-0.5,1.1-0.5c0.3,0,0.1-0.1,0.2,0c0,0.1,0.1,0.1,0,0.2
			c-0.1,0-0.1-0.1-0.1-0.1v0c0,0.1,0,0.3-0.1,0.4c0,0-0.2-0.1-0.4-0.1c0,0,0,0.4-0.2,0.6c0.4-0.1,0.9-0.8,1.4-0.6
			c0-0.3,0.1-0.6,0.3-0.8c0.1,0.1-0.1,0.2,0.1,0.2h0.4c-0.2-0.1-0.4-0.2-0.5-0.3c0.2-0.1,0.1-0.2,0.4-0.3c0.1,0.1,0.2,0.1,0.4,0.1
			l-0.3-0.3c0.2-0.1,0.4-0.1,0.6-0.3v-0.3c-0.2-0.3-0.5-0.4-0.7-0.5c0.3-0.2,0.3-0.4,0.5-0.4c0,0,0.4,0.2,0.5,0.4H88
			c0-0.1,0.3-0.4,0.5-0.4c0-0.7,0.3-0.9,0.3-1.2c0-0.3-0.4-0.4-0.4-0.6c0-0.4,0.5-0.4,0.8-0.5l0.2,0.2c0,0,0-0.1,0.2-0.3l0.3,0.2
			c-0.4-0.4,0.1-1.1,0.4-1.3c0-0.3-0.3-0.3-0.2-0.8c0.3,0,0.4,0.1,0.5,0.1c0-0.1,0-0.2,0.1-0.4c0.2,0,0.5,0,0.7-0.1c0,0-0.1,0-0.1,0
			h-0.1c-0.1-0.2-0.3-0.4-0.5-0.5c0.3-0.2,0.6-0.4,0.8-0.4c0.3,0,0.3,0,0.4,0.2V61.4z M90.1,65.1c0.1,0,0,0.1,0,0.2
			c-0.2,0.1-0.5,0.2-0.7,0.4c-0.1-0.1-0.1-0.3-0.2-0.3c0,0.1,0.2,0.4,0.2,0.5c0.3-0.2,0.9-0.4,1-0.5L90.1,65.1z M82.7,53.5h-0.5v0.2
			h0.5V53.5z M82.8,53.7l-0.1,0.2l0.1,0l0.1-0.2L82.8,53.7z M83,52.8c0,0-0.5-0.1-0.6-0.1c0,0.1,0.1,0.2,0.2,0.4L83,52.8z
			 M91.7,60.3c0,0,0-0.1-0.2-0.2h-0.2c-0.3,0.1-0.7,0-1,0.1c0.3,0.2,0.6,0.5,0.9,0.5c0.2,0,0.2-0.1,0.3-0.1
			C91.6,60.5,91.7,60.5,91.7,60.3 M91.3,59.2l-0.2,0.1v0.1l0.3-0.1L91.3,59.2z M92,59.1c0,0,0,0-0.2,0.1c0,0,0,0-0.1,0l0.3,0.2
			C92,59.4,92.1,59.3,92,59.1 M54.1,66.3l0.1,0l0.1-0.2L54.1,66.3z M54.1,71.2c0,0-0.2-0.1-0.4-0.2h0c0,0,0.1,0,0.1,0l0.2-0.1V71.2z
			 M53.9,69.8c0,0-0.4,0-0.5-0.2C53.5,69.8,53.7,69.7,53.9,69.8 M52.3,67.6c-0.1,0-0.2,0-0.2,0.2c-0.1,0-0.2-0.1-0.4-0.3L52.3,67.6z
			 M53.2,67.9L53.2,67.9c0.2,0,0.2,0,0.2,0V68L53.2,67.9z M53.1,66.2h0.2v0.1h-0.2V66.2z M54.4,66c0,0,0,0.3,0,0.4H54
			c-0.1-0.1-0.2-0.3-0.2-0.4C53.9,65.9,54.2,66,54.4,66 M59.9,70C59.9,70,59.9,70,59.9,70c-0.1-0.1-0.1-0.2-0.1-0.2h0.3L59.9,70z
			 M54.2,64c0,0-0.4-0.3-0.6-0.3l0.2-0.2v0c0,0,0,0.1,0.1,0.1c0,0,0.2-0.2,0.3-0.2C54.1,63.6,54.2,63.9,54.2,64 M60.6,68.7v-0.3
			c0,0,0.1,0.1,0.3,0.3H60.6z M52.5,59.1V59l0.4,0.1v0.1L52.5,59.1z M62.6,68h0.1v0.5L62.6,68z M55,59.8L55,59.8l0.1-0.3l0.1,0
			L55,59.8z M53.6,57.1c-0.1,0.1-0.2,0.1-0.3,0.1c0-0.1,0.1-0.3,0.2-0.3C53.3,57,53.4,57.1,53.6,57.1 M54,57.5h0.2v0.1H54V57.5z
			 M63.4,65.7c0.1,0.1,0,0.2-0.1,0.4c-0.1-0.1-0.2-0.2-0.2-0.4C63.1,65.8,63.2,65.8,63.4,65.7 M55.5,58c0,0.1-0.1,0.1-0.3,0
			C55.4,58,55.5,58.1,55.5,58 M53.3,55.3c0,0-0.2,0.4-0.4,0.4c-0.2,0-0.2,0-0.2,0c0-0.1-0.2-0.1-0.4-0.1c0-0.1,0-0.4,0-0.6h0
			c0,0,0.1,0,0.1,0c0,0,0.1-0.1,0.3-0.3h0.3C53.1,54.9,53.2,55.2,53.3,55.3 M52.3,54.9L52.3,54.9l0.1-0.2l0.1,0L52.3,54.9z
			 M54.1,56.4h0.4v0.1h-0.4V56.4z M63,64.9c-0.1,0.1-0.1,0.2,0,0.4c-0.2,0-0.6,0-0.9,0.1c0.4-0.2,0.7-0.5,1-0.9
			c0.1,0.1,0.4,0.2,0.6,0.4H63z M54.9,56.9l0-0.1l0.2,0.1H54.9z M64.3,65.6c0,0-0.1,0.3-0.1,0.5C64,66,64,65.7,64,65.6H64.3z
			 M64.3,65c0,0-0.2,0.2-0.2,0.3c-0.1,0-0.2-0.1-0.4-0.2h0.3c0.1-0.1,0-0.2,0.2-0.4L64.3,65z M63.8,64.2c-0.1,0.1-0.1,0.2-0.1,0.3
			c0,0,0,0,0-0.1s0,0,0-0.1c0,0,0,0,0.1,0C63.7,64.2,63.7,64.2,63.8,64.2 M64.4,64.2c0,0.1,0,0.3-0.1,0.5c0-0.1,0-0.1-0.2-0.1v-0.3
			C64.3,64.2,64.4,64.3,64.4,64.2 M53.2,53c0,0-0.3,0.1-0.4,0c0-0.1,0.1,0,0.3-0.2L53.2,53C53.2,53,53.2,53,53.2,53 M64.5,63.6h0.1
			v0.3L64.5,63.6z M54.4,52.7L54.4,52.7l0.2,0.4L54.4,52.7z M55.9,54.1h0.2v0.1h-0.2V54.1z M66.2,63.8c0,0-0.1,0-0.3,0.2
			c0-0.1,0-0.2-0.2-0.2c-0.2,0,0,0.1-0.1,0.1c-0.2,0,0-0.2-0.2-0.2c-0.2,0-0.1,0.1-0.1,0.1c0,0-0.2-0.1-0.2-0.3L65,63.7
			c0-0.1-0.4-0.4-0.5-0.6c0-0.1,0.3-0.2,0.5-0.3h0c0,0,0,0,0.1,0c0,0,0,0.1,0,0.2C65.4,63.4,66.1,63.4,66.2,63.8 M54.2,52.1L54,52.1
			v-0.1l0.2,0.1L54.2,52.1z M53.2,51h0.2v0.1h-0.2V51z M53.2,50.8h0.1V51L53.2,50.8z M55.2,53.1C55.2,53.1,55.2,53,55.2,53.1
			c-0.1-0.1-0.1-0.2-0.1-0.3C55.3,52.9,55.4,53,55.2,53.1 M56.9,54.6h0.3v0.1h-0.3V54.6z M64.3,62.6c0.1-0.1,0.2-0.3,0.4-0.3
			c0.2,0,0,0,0,0.1c0,0,0-0.1,0-0.2c0.1,0,0.2,0,0.2-0.1c0.1,0.1,0,0.2-0.1,0.3c0,0.1,0.1,0.2,0.3,0.3L64.3,62.6z M54.8,52.1
			c0,0-0.1,0-0.3,0.1c0-0.1-0.1-0.2-0.3-0.2h0.1c0,0,0.1,0,0.1-0.1C54.4,52.1,54.7,52,54.8,52.1 M56.1,53.3L56.1,53.3h0.3H56.1z
			 M55.2,52.1C55.2,52.1,55.1,52.1,55.2,52.1l-0.3,0c0-0.1,0-0.2,0.1-0.2L55.2,52.1z M58.3,54c-0.2,0.1-0.4,0.3-0.4,0.5h-0.1
			c0,0-0.1,0-0.1-0.1c-0.1,0-0.2,0.1-0.3,0.3v-0.3c0-0.1,0.1-0.2,0.3-0.4c0,0.1,0,0.2,0,0.2c0.2-0.2,0.2-0.4,0.4-0.5
			C58.1,53.9,58.1,53.9,58.3,54 M56.6,52.8c0,0-0.3,0.1-0.5,0c0,0-0.1-0.1-0.1-0.2c0.1,0,0-0.1,0.2-0.1
			C56.4,52.6,56.6,52.6,56.6,52.8 M57.6,54.1L57.6,54.1l0.2-0.2l0,0.1L57.6,54.1z M54.5,50.2c-0.2,0.1-0.3,0.3-0.4,0.5
			c0-0.1,0-0.3,0.1-0.5H54.5z M55.6,51.4c0,0-0.1,0.1-0.2,0.1v-0.1C55.5,51.4,55.5,51.4,55.6,51.4L55.6,51.4z M54.2,49.6
			c0,0,0,0.1,0,0.2c-0.1,0-0.2-0.2-0.4-0.3c0.1,0,0.3-0.1,0.4-0.3V49.6z M58.2,53.6h0.3v0.1h-0.3V53.6z M55.7,50.3
			c0,0-0.3,0-0.5-0.2c0.1,0,0.2-0.1,0.3-0.1C55.7,50.2,55.7,50.3,55.7,50.3 M58.2,52.5c-0.1,0-0.2,0-0.3,0.2c0-0.1,0-0.3,0.1-0.4
			L58.2,52.5z M56.9,51c0,0-0.2,0.2-0.3,0.2h-0.3c0-0.1,0.1-0.4,0.1-0.6C56.6,50.7,56.8,50.8,56.9,51 M66.9,60.9H67v0.3L66.9,60.9z
			 M54,47.6h0.1v0.3L54,47.6z M55.4,48.9v-0.1l0.2-0.1l0,0.1L55.4,48.9z M55,47.7c0,0-0.1,0.3-0.3,0.3c0,0-0.1-0.3-0.1-0.3
			C54.7,47.7,54.9,47.7,55,47.7 M58.1,50.8L58.1,50.8L57.9,51c-0.1-0.1-0.3-0.2-0.3-0.4L58.1,50.8z M58.8,51.6h0.1v0.3L58.8,51.6z
			 M54.7,47.3c0,0-0.2,0-0.3,0.2c0-0.1-0.2-0.3-0.1-0.5C54.5,47,54.5,47.1,54.7,47.3 M58.2,50.4c0,0-0.2,0.2-0.2,0.3
			c-0.1,0,0-0.1-0.1-0.3H58.2z M55,46.5C55,46.5,55,46.6,55,46.5c-0.1,0.1-0.1,0.1-0.2,0.1c-0.1,0-0.3,0-0.5-0.1
			c0-0.1,0.1-0.2,0.1-0.5c0.1,0,0.3,0.2,0.6,0.2V46.5z M56,46.5c0,0-0.3-0.1-0.5,0c0-0.1,0.1-0.2,0.3-0.2C55.9,46.3,56,46.4,56,46.5
			 M59.6,49.7c-0.2,0-0.5,0.2-0.8,0.2c0-0.1,0.2-0.5,0.3-0.5C59.4,49.4,59.4,49.5,59.6,49.7 M59.2,48.7c0,0-0.2,0,0,0.3
			c-0.1,0-0.6,0.3-0.7,0.3c-0.1-0.2,0-0.5,0-0.8c0.1,0,0.3-0.1,0.5-0.1C59.1,48.4,59.1,48.5,59.2,48.7 M60,50.1
			c-0.1-0.1-0.1-0.2,0-0.3V50.1z M57.1,46c0,0.3,0,0.2-0.2,0.4C56.9,46.2,56.9,46.1,57.1,46 M55.8,44.4c0,0.1,0,0.2-0.2,0.2
			c-0.1,0,0.1,0.1,0.1,0.3h-0.4C55.4,44.7,55.6,44.5,55.8,44.4 M59.9,48.7l-0.3-0.1v-0.1l0.3,0.1L59.9,48.7z M56.6,45.3L56.6,45.3
			l0.1-0.3c0.1,0.1,0.1,0.3,0.2,0.3H56.6z M55.7,43.8h-0.4c0,0,0-0.3-0.1-0.4c0.1,0,0.4,0,0.4-0.1L55.7,43.8z M57.6,45.7
			c0,0-0.2-0.1-0.2-0.2c0,0,0.2,0.1,0.2,0V45.7z M56.5,43.1c0,0,0,0.4,0,0.5c-0.1,0-0.3-0.1-0.5-0.1c0.1,0,0.2-0.3,0.3-0.3
			L56.5,43.1z M56.3,42.9c0,0.2-0.1,0.2-0.1,0.4c-0.1,0-0.2-0.1-0.3-0.3L56.3,42.9z M61,38.9c0,0-0.1,0.2-0.5,0.4v0.2l0.1,0.1
			c0.1-0.1,0.2,0,0.2-0.2c0,0.1,0,0.4-0.1,0.4c-0.2,0,0-0.1-0.2-0.1c-0.1,0-0.2,0.3-0.3,0.5c0,0.1,0,0.2,0.1,0.2c0.2,0,0.1,0,0.2,0
			c0,0,0.1,0.2,0.1,0.4c-0.1-0.1-0.3,0-0.5,0c0,0,0,0.1,0,0.2c-0.3,0.2-0.2,0.6-0.1,0.8c0,0.1,0,0.2,0,0.2c-0.1,0-0.2,0.1-0.3,0.2
			c0.1,0.4,0.4,1,0.4,1.2c0,0.2-0.5,0.5-0.9,0.5c-0.1,0.1-0.1,0.3-0.1,0.4c0,0.2,0.2,0,0.2,0.1c0,0.1,0,0.4,0.1,0.5
			c-0.4,0.1-0.5,0.4-0.8,0.7c0.1,0,0.2,0.2,0.3,0.4C59.2,46,59.1,46,59,46v0.2c0.1,0,0.1,0.2,0.3,0.2c0.2,0,0.1,0,0.3,0.1
			c-0.3,0.2-0.6,0.3-0.8,0.5l0.2,0.2c0-0.1,0-0.1,0.2-0.1c0.2,0,0.1-0.2,0.3-0.2c0,0.1,0,0.5-0.2,0.6c0,0.1,0.2,0,0.3,0.1
			c-0.3,0-0.9,0-1.1,0c-0.2,0-0.3,0.5-0.6,0.8c0,0.1,0.1,0.2,0.1,0.2l0,0c0,0,0,0,0-0.1l0.1,0.1c0.1,0,0.2,0,0.3,0
			c-0.2,0.1-0.5,0.2-0.9,0.3c0,0.1-0.1,0.3-0.1,0.5c0.1-0.1,0.1-0.2,0.2-0.3c-0.1,0.2-0.2,0.5,0,0.7c0,0.1-0.3,0.1-0.3,0.5l0,0.1
			h-0.7c0-0.3,0.1-0.6,0.1-0.7c0-0.3,0-0.2-0.3-0.4c0,0,0.1,0,0.3-0.1l0.1,0.1c0,0,0.1-0.1,0.1-0.1v-0.1c0-0.4-0.4-0.3-0.7-0.4
			c0,0,0.5-0.2,0.6,0l0.3-0.3c0,0-0.1,0-0.3,0c0,0,0.1,0,0.2-0.1c-0.1-0.1-0.2,0-0.3-0.2c0.1,0,0,0,0.2,0h0.3c0.1-0.2,0-0.4,0.2-0.6
			c0-0.1,0-0.2-0.2-0.4c0.1-0.3,0.3-0.6,0.4-0.8c0-0.3,0.1-0.5,0.3-0.7c0-0.3-0.5-0.5,0.2-0.8c0-0.1-0.2-0.1-0.2-0.3h0.3
			c0-0.3,0.2-0.7,0.4-1c0,0-0.2-0.1-0.2-0.1v-0.4c0.3-0.4,0.6-0.7,0.8-1c0.1-0.4,0.1-0.9,0.3-1.2c0.1-0.1,0.2-0.4,0.4-0.6
			c0-0.1-0.1-0.3,0-0.4l0.2,0.1c0-0.7,0.4-1.4,0.9-2.1C60.9,38.1,60.6,38.8,61,38.9 M61.1,47v-0.3c-0.1-0.1-0.3-0.1-0.5-0.3
			c0-0.1,0.1-0.2,0.1-0.4c0.1,0.1,0.3,0.1,0.5,0c0,0.1,0.1,0.2,0.2,0.3V47H61.1z M57.2,42.3c-0.1,0-0.2,0.2-0.2,0.4
			c0-0.1-0.1-0.2-0.2-0.3c0.1,0,0.2-0.1,0.2-0.3L57.2,42.3z M60.6,45.5c0,0-0.2,0-0.4,0.2c0-0.1,0-0.3,0.1-0.4
			C60.4,45.3,60.6,45.4,60.6,45.5 M56.8,41c-0.2,0.3-0.5,0.5-0.7,0.5c0-0.1,0.1-0.2,0.2-0.3c-0.1-0.1-0.2-0.3-0.3-0.4
			c0.1,0,0.2-0.1,0.2-0.3h0.4c0,0-0.1,0.1-0.2,0.3C56.5,41,56.6,41,56.8,41 M60.2,45.2C60.2,45.1,60.2,45.1,60.2,45.2L60.1,45
			c0.2,0,0.2-0.1,0.5-0.1v0.1c0,0,0,0.1,0.1,0.1L60.2,45.2z M57.5,41.4c0,0,0,0.3-0.2,0.5c0-0.1-0.3-0.2-0.3-0.4
			C57.2,41.5,57.3,41.4,57.5,41.4 M61.2,44.6c0,0-0.1,0.3-0.3,0.3c-0.2,0-0.3-0.3-0.4-0.3c0.1,0,0.3,0,0.5-0.1
			C61,44.5,61.1,44.6,61.2,44.6 M61.8,44.5C61.8,44.5,61.7,44.5,61.8,44.5l-0.2,0c-0.1,0-0.1-0.2-0.2-0.3c-0.2,0-0.4-0.1-0.6-0.2
			c0-0.1,0.1-0.1,0.3,0c0-0.1,0-0.4,0.2-0.4C61.2,44.1,61.8,44.1,61.8,44.5 M62.2,43.4c0,0-0.4,0.4-0.5,0.4v-0.2
			c0-0.1,0.2-0.3,0.3-0.5C62.2,43.3,62.2,43.4,62.2,43.4 M61.8,41.7c0,0-0.1,0.2-0.1,0.4c-0.1,0-0.1,0-0.3,0c-0.2,0-0.4,0.3-0.5,0.5
			c-0.1-0.1-0.4-0.2-0.5-0.2c0,0,0.2,0,0.4,0c0.1-0.1,0.2-0.5,0.4-0.6C61.2,41.8,61.5,41.7,61.8,41.7 M60.5,41.7L60.5,41.7l0.4-0.2
			v0.1L60.5,41.7z M60.8,41.2c0,0-0.1,0-0.3-0.1c0-0.1,0.1-0.2,0.3-0.3V41.2z M62.4,42.9L62.4,42.9l0.4-0.5l0.1,0.1L62.4,42.9z
			 M60.7,40.5c0.1-0.1,0.1-0.2,0.2-0.3c0,0,0,0.1,0.2,0.3H60.7z M62.5,42L62.5,42l0.2-0.3l0,0.1L62.5,42z M58.7,37.4
			c0,0-0.1-0.2-0.3-0.2c-0.2,0-0.1,0.1-0.3,0.1c0-0.1,0.2-0.2,0.2-0.3C58.5,37.1,58.7,37.3,58.7,37.4 M61,39.8h0.3V40H61V39.8z
			 M59.2,37.4h0.2v0.1h-0.2V37.4z M63.3,40.7c0,0-0.3,0.4-0.4,0.6c0-0.3,0-0.5,0-0.6C63,40.7,63.2,40.7,63.3,40.7 M58.9,36.6
			c0,0-0.1,0-0.3,0.1l0.1-0.3C58.8,36.5,58.9,36.5,58.9,36.6 M62.7,39.4h0.1v0.3L62.7,39.4z M62.1,39.1v-0.1l0.5,0.1v0.1L62.1,39.1z
			 M61,37.8C61,37.7,61,37.7,61,37.8c0-0.1,0.1-0.1,0.1-0.2c0,0,0.3,0.1,0.3,0.3L61,37.8z M60,35.6c-0.2-0.1-0.3-0.2-0.5-0.2
			c0,0.2-0.1,0.4-0.3,0.5c0-0.2,0.1-0.5,0.1-0.7h0.4c0.2,0,0,0,0.1,0.1c0-0.1,0.1-0.1,0.2-0.1L60,35.6z M54.1,71.7L54.1,71.7v0.2
			h0.1L54.1,71.7z M63.7,69.1L63.7,69.1v0.4h0.1L63.7,69.1z M64.8,61.5L64.8,61.5H65H64.8z M64.7,61.2L64.7,61.2l0.2-0.2L64.7,61.2z
			 M66.2,61.9c-0.2-0.1-0.2-0.6-0.2-0.7c0,0.1,0.1,0.1,0,0.1c-0.1,0-0.1-0.2-0.7-0.2l0.2,0.2c0,0,0.1-0.1,0.1-0.1h0v0.2
			c-0.2,0.2-0.2,0.4,0,0.5C65.7,61.9,65.8,61.9,66.2,61.9 M66.5,63.3c0,0-0.3,0-0.5,0c-0.1,0-0.2-0.1-0.2-0.4v-0.1h0
			c0,0,0.1,0,0.2,0.1c0,0,0-0.3,0.1-0.3c-0.1,0-0.2,0-0.4-0.1c0-0.2,0-0.5,0-0.6c-0.1,0-0.3,0-0.4,0c0,0.1,0,0.2-0.2,0.2
			c-0.1-0.1,0-0.2,0-0.3c-0.1,0-0.1-0.1-0.3-0.1c0,0.1-0.2,0.2-0.3,0.2c-0.2,0,0-0.1-0.1-0.1c-0.2,0,0,0.2-0.2,0.2
			c-0.2,0,0-0.1-0.2-0.1c-0.2,0-0.2,0.4-0.4,0.5V63c0.2,0,0.4,0,0.4,0v0.7c-0.5,0.2-1.3,0.6-1.4,0.7c0.1,0,0.1,0,0.1,0.1
			c-0.7,0.3-0.9,1-0.7,1.3c-0.2,0.1-0.2,0.5-0.4,0.7c0,0.3,0,0.5-0.1,0.9h-0.3c0-0.1-0.1-0.2-0.1-0.3c0,0.2,0.1,0.5,0,0.6L61,67.6
			c-0.1,0-0.1,0.3-0.3,0.6c-0.4-0.3-0.4,0.4-0.9,0.7c-0.4,0.7-0.9,1-1.7,1.8c-0.2,0.2-0.6,0.1-0.9,0.7H57c-0.1-0.3-0.7-0.6-1-0.8
			c-0.3-0.3,0-0.8-0.4-1c0.3-0.3-0.1-1-0.5-1.2c0-0.3,0.1-0.5,0-0.6c-0.5-0.2-0.3-0.6-0.4-0.8c-0.2,0-0.3,0-0.4-0.1
			c0-0.1,0.1-0.2,0.3-0.2l0.2-0.2c0-0.1,0-0.3-0.2-0.5c-0.1,0-0.1,0.2-0.2,0.2c0-0.1-0.1-0.1-0.1-0.3c0-0.2,0.4-0.6,0.4-0.8
			c0-0.2-0.2-0.3-0.5-0.5c0.1-0.1,0.1-0.5,0.1-0.7c0-0.1,0.2-0.4,0-0.3c-0.1-0.1,0-0.2-0.1-0.3c0,0,0,0,0,0.1v0l0-0.2
			c0.1-0.1,0.3-0.1,0.3-0.3l-0.2-0.3c0.2-0.1,0.3-0.2,0.3-0.3c-0.2-0.1-0.3-0.4-0.3-0.4c0,0,0-0.2-0.2-0.2c0.1-0.1,0.2,0,0.5,0
			c0.1-0.2,0.1-0.5,0-0.9c0.1-0.1,0.3-0.1,0.3-0.3c0-0.2,0-0.2-0.2-0.3c0.1-0.1,0.1-0.1,0.2,0c0.4-0.3,0.3-1,1-1.2
			c0.1-0.6,0.7-1.3,1-1.8c0-0.2,0.1-0.5,0-0.5c0-0.1-0.1,0-0.2-0.1c0.5-0.4,0.9-0.8,1.3-1.3c-0.1-0.1-0.3-0.1-0.3-0.2h0.4
			c0.2,0,0.9-1.8,1.3-2.6c0,0,0,0,0-0.1v0c0.2-0.4,0.9-0.8,0.8-1.5c0.1,0,0.2-0.1,0.2-0.3c-0.1,0-0.1,0-0.1-0.1
			c0-0.1,0.1-0.2,0.3-0.2c-0.1-0.2-0.1-0.4,0-0.4c0.1,0,0,0.1,0.2,0.1c0.2,0,0.1-0.2,0.2-0.3c-0.1-0.2-0.2-0.4-0.1-0.5
			c0-0.1,0.2-0.1,0.2-0.3c-0.1,0-0.2-0.1-0.3-0.2l0.5-0.4c0-0.2,0.2-0.6,0.4-0.9c0-0.7,0.8-1.6,0.9-2.4L62,44.8c0.1,0,0.1,0,0.1-0.1
			h0.3c0.4,0,0.4-0.5,0.4-0.6l-0.2,0.1c0,0-0.1-0.1-0.2-0.3c0.4-0.4,0.5-0.3,0.8-0.9c-0.1,0,0,0-0.2,0c-0.1,0-0.1,0-0.1-0.1
			s0,0,0-0.1c0,0.1,0.1,0.2,0,0.2c-0.2,0-0.1,0-0.2-0.1c0.3,0,0.4-0.3,0.5-0.5c0-0.1,0-0.2,0-0.3c0.1-0.2,0.2-0.5,0.3-0.6
			c-0.1,0-0.2-0.1-0.2-0.1c0.1-0.1,0.2,0,0.3,0v-0.7l-0.1-0.1l-0.1-0.1c0.2-0.1,0.3-0.2,0.3-0.4c0-0.2-0.1-0.5-0.2-0.6
			c0-0.1,0.2-0.3,0.1-0.5c-0.1-0.2-0.5-0.5-0.5-0.6s0.3-0.5,0.5-0.7v-0.3c-0.1,0-0.2,0.1-0.3,0c0.2-0.1,0.2-0.1,0.2-0.3
			c0,0.2-0.1,0-0.3,0c0.1-0.2-0.1-0.4-0.2-0.4v-0.2c0.3-0.2,0.5-0.5,0.5-0.6c0,0,0,0,0.1,0h0c0.1-0.4-0.4-0.3-0.5-0.7
			c0-0.1,0-0.1,0.2-0.1c0.2,0,0.1-0.2,0.1-0.3C63,34.7,63.1,35,62.8,35c-0.2,0-0.1-0.1-0.1-0.1v-0.3c0,0,0.1,0,0.2,0
			c-0.2-0.2-0.4-0.3-0.3-0.4c-0.3-0.2-0.5,0.4-0.6,0.6c-0.1-0.1-0.1-0.2-0.2-0.3c0-0.1-0.1-0.1-0.3,0c-0.4-0.4-0.1-1-0.9-1
			c0,0-0.3,0.1-0.5,0.1c0,0.2-0.1,0.2-0.1,0.3c0,0.3-0.4,1.1-0.6,1.1c-0.2,0-0.1,0-0.3,0c0.1,0.1,0.2,0,0.3,0.2
			c-0.2,0.1-0.2,0.3-0.4,0.5c0-0.1-0.3-0.1-0.5-0.2c0,0.2-0.1,0.5-0.1,0.8c-0.1,0-0.4,0.1-0.7,0.2c0,0.2-0.1,0.5-0.2,0.5
			c0.1,0.2,0.4,0.2,0.5,0.4c-0.1,0.1-0.2,0.1-0.3,0.1c0-0.1-0.3-0.1-0.3-0.1c0.1,0.1,0.1,0.3,0.2,0.4c0,0-0.1,0-0.3,0
			c0,0.1,0.1,0.2,0,0.3c0,0,0,0,0,0.1s0,0,0,0c0,0-0.1-0.1-0.1-0.1h0v0.3c0.1,0,0.3-0.1,0.4,0c-0.1,0.2-0.2,0.3-0.1,0.3l0.3,0.2
			c-0.1,0.2-0.2,0.4-0.2,0.5h-0.7c-0.2,0.2-0.4,0.5-0.5,0.8c-0.1,0-0.4,0.1-0.5,0.3c0.1,0.2,0,0.2-0.1,0.5c0,0,0.1,0.1,0,0.3h-0.3
			v0.4c0.3,0,0.2,0.4,0.2,0.5h-0.5c0,0.2,0.1,0.3,0.1,0.4c-0.4,0-0.5,0.7-0.4,0.9c-0.1,0.2-0.4,0.4-0.4,0.5c0,0.3-0.3,0.6-0.4,0.9
			c0.1,0,0.4-0.1,0.5,0l-0.1,0.3c-0.1,0-0.3-0.1-0.5-0.1c0.1,0.1-0.1,0.3,0,0.5v0.3c0,0,0,0,0.1,0h0c-0.2,0.2-0.2,0.3-0.2,0.5
			c-0.1,0.1-0.1,0.2-0.1,0.2c0.2,0.1,0.4,0.1,0.4,0.3c0,0.1,0,0.3,0,0.3c-0.2,0-0.3,0.1-0.5,0.3c0.1,0.1,0.2,0.2,0.1,0.3
			C54,47.9,54,48,54,48.1c0,0.4-0.8,1-0.9,1.1c0.1,0,0.2,0.1,0.3,0.2c-0.2,0.2-0.3,0.6-0.5,0.9c0.1,0,0.1-0.2,0.3-0.2
			s0.1,0.2,0.3,0.3l-0.7,0.5c0.1,0.1,0.3,0.1,0.4,0.1c-0.1,0.1,0,0.3-0.1,0.4c-0.2,0-0.3,0.2-0.4,0.4c0,0,0.2-0.1,0.3,0
			c-0.1,0.1-0.3,0.1-0.4,0.1v0.3c0.1,0,0.2,0,0.3,0l0.1,0.1c-0.1,0.1-0.5,0.2-0.5,0.4c0,0.1,0.1,0.1,0.1,0.4c-0.2,0-0.3,0-0.4,0.1v1
			c0.1,0,0.3,0,0.4,0.1c-0.1,0.1-0.3,0.1-0.5,0.1c-0.1,0.2,0,0.5,0,0.7c-0.2,0.1-0.3,0.2-0.4,0.2v0.4c0,0.1,0.2,0.1,0.3,0.3
			c-0.5,0.5,0.3,0.7-0.5,1c0,0.2,0.3,0.3,0.3,0.5c-0.1,0.1-0.5,0.5-0.5,0.6v0.6c0.3-0.1,0.4,0.1,0.5,0.3c0,0.2-0.1,0.3-0.2,0.3
			c0-0.3-0.1-0.4-0.2-0.4c0,0.2-0.4,0.9-0.4,1c0,0.2,0.3,0.4,0.3,0.5c0,0.2-0.2,0.5-0.3,0.6c0,0.3,0,0.7,0,1.1
			c-0.1,0.2-0.7,0.8-0.7,0.9c0,0.2,0.3,0.7,0.6,1c-0.2,0.3,0.3,0.8,0.4,1.1c0,0.2,0,0.5,0,0.6c0,0.1,0.2,0.2,0.2,0.3
			c0,0.3,0,0.7,0.1,1c0,0.1,0.2,0.2,0.2,0.3c0,0.1-0.1,0.2-0.1,0.3c0,0.5,0.3,0.6,0.3,0.9v0.2c0.2,0,0.3,0.1,0.4,0.1l-0.1,0.7
			c0.3,0.1,0.6,0.2,0.8,0.4c-0.3,0-0.4,0-0.5,0v0.3l0.3,0.3c-0.1,0.1-0.1,0.1-0.1,0.2c0.1-0.1,0.3,0,0.3-0.2l0.1,0.1v0.2
			c0,0-0.1,0-0.3,0c0.1,0,0.1,0.1,0.1,0.2l0.3-0.3c0.1,0,0.2,0.1,0.2,0.1c0,0.1-0.1,0.1-0.1,0.3c0.1,0,0.1-0.1,0.4-0.1
			c0.2,0,0.1,0.1,0.1,0.2c0,0-0.1,0.1-0.2,0c0.1,0-0.2,0-0.2,0.1v0.2l0.2,0.2c0-0.1,0-0.1,0.1-0.3c0.1,0.1,0,0.1,0.1,0.1
			c0.1,0,0.2-0.1,0.4-0.2c0,0.1,0.2,0.1,0.2,0.3c0,0,0,0,0,0.1v0h0l0.1,0.1c0,0,0,0.1,0,0.2c0.2,0.2,0.7,0.3,1.1,0.5
			c-0.1,0.1-0.2,0.1-0.3,0.1c0.1,0,0.3,0,0.5-0.1c-0.1-0.1-0.1-0.2,0-0.3c0.1,0.1,0.1,0.3,0.3,0.3c0.2,0,0.3-0.1,0.5-0.1
			c0.2,0,0.3,0.1,0.4,0.3c-0.1,0.1-0.1,0.2-0.1,0.2c0.3,0.1,0.5,0,0.6,0c0.2,0,0.5,0.2,0.6,0.2c0.2,0,0.1-0.1,0.3-0.1
			c0.2,0,0.5,0.2,0.8,0.2c0.1-0.2,0.2-0.4,0.5-0.5c0.1,0.1,0.1,0.3,0.2,0.4c0.2-0.1,0.3-0.1,0.4-0.5h0.2c0.2,0,0.2-0.2,0.4-0.2
			c-0.1,0-0.2-0.2-0.3-0.3h0.1h0c0.1,0,0.3,0.1,0.5,0.2c0.1-0.2,0.4-0.4,0.5-0.4c0-0.2,0.2-0.5,0.3-0.6c0.1,0.1,0.1,0.2,0.2,0.2
			c0.4-0.3,0.2-0.5,0.3-0.7c0.2-0.1,0.3-0.3,0.4-0.3c-0.2,0.1-0.4,0.1-0.5,0.1c-0.2,0-0.1-0.1-0.2-0.1c0,0.1,0.1,0.1,0.2,0.2
			c-0.1,0-0.4,0.2-0.6,0.2c0,0-0.1,0.1-0.2,0.2c0-0.1-0.1-0.1-0.2-0.1c0-0.2,0.1-0.4,0.3-0.4c0.2,0,0,0,0.1,0c0.2,0,0.3-0.4,0.9-0.4
			c0-0.1,0-0.3,0-0.4l0.1-0.1c0,0,0.1,0.1,0.2,0.1c0-0.2,0.4-0.5,0.6-0.5c0.1,0.1,0.1,0.1,0.1,0.2c-0.1-0.3-0.1-0.5-0.1-0.7
			c0.2,0.1,0.5,0.1,0.6,0.1c-0.2-0.2-0.5-0.3-0.5-0.5l0.1-0.1c0.1,0.1,0.2,0.1,0.4,0.1c0.1-0.1,0.1-0.2,0.3-0.4c-0.1,0-0.3,0-0.5,0
			V68c0.1,0,0.2,0,0.2,0.1c0.2-0.1,0.1-0.2,0.3-0.4c0,0,0,0,0.1,0c0.2,0,0.2-0.1,0.2-0.3c-0.2-0.1-0.2-0.3-0.1-0.4
			c-0.1,0-0.1,0-0.3,0c-0.2,0-0.1,0-0.3-0.2c0.1-0.1,0.1-0.1,0.5,0c0-0.4,0.2-0.5,0.2-0.6c-0.1,0-0.1,0-0.1-0.2
			c0.1-0.1,0.2-0.2,0.4-0.2c0.1,0,0.1,0,0.1,0h0c-0.1-0.1-0.4-0.2-0.5-0.3l0.2-0.3c0.1,0.1,0,0.2,0.2,0.2c0.1,0,0.3,0,0.5,0
			c-0.2-0.1-0.5-0.2-0.6-0.4c0.3-0.2,0.1-0.3,0.2-0.4c0.5,0,0.7,0,0.8,0c0-0.3-0.6-0.5-0.8-0.6c0.1-0.2,0.3-0.1,0.4-0.2
			c0,0,0.1,0.1,0.1,0.1v0l0.3-0.3c0.1,0.1,0,0.1,0.1,0.2l0.2-0.1C66.4,63.9,66.3,63.7,66.5,63.3 M67.3,61.2
			c-0.1-0.2-0.2-0.4-0.5-0.5c0.3-0.1-0.1-0.1-0.1-0.2c0,0,0.1,0,0.1-0.1v-0.1c-0.2,0-0.5,0-0.8-0.1c0,0.2,0,0.4,0,0.5
			c0,0,0-0.2,0.2-0.2c0.2,0,0.1,0,0.3,0.1c-0.2,0.2-0.3,0.3-0.3,0.3c0.1,0,0.3,0,0.4,0.1c-0.1,0.1-0.2,0.1-0.2,0.1
			c0.2,0,0.3,0.1,0.4,0.3c-0.1,0-0.2,0.1-0.4,0.1c0,0,0,0.1-0.1,0.2l-0.1,0.1l0.2,0.2c0,0,0.1-0.1,0.3-0.1c-0.1-0.2,0.1-0.5,0.4-0.6
			C66.8,61.3,67.1,61.2,67.3,61.2 M66.7,60.1h0.1l0-0.3L66.7,60.1z M67.1,60l0,0.1l0.4,0.2l0-0.1L67.1,60z M66.9,59.3
			c0,0-0.2,0-0.4-0.1c0,0.1-0.1,0.2-0.1,0.4C66.6,59.4,66.9,59.3,66.9,59.3 M56.4,39.3L56.4,39.3l0.2-0.1L56.4,39.3z M57,38.6v0.1
			l0.2-0.1H57z M63.1,36.5L63.1,36.5l0.3,0.2l0-0.1L63.1,36.5z M22.4,61.2c-0.1-0.1-0.2-0.2-0.2-0.3l-0.4,0v0.5
			C22,61.4,22.2,61.2,22.4,61.2 M23.2,65.3l-0.1-0.5l0.6-0.5l0.1,0.2L23.2,65.3z M22.5,63l-0.1-0.6h-0.2l0.1,0.6H22.5z M23.8,64.2
			c-0.1,0-0.5,0-0.5-0.1c0.1-0.2,0.2-0.6,0.3-0.5C23.7,63.7,23.8,64,23.8,64.2 M21.7,61.9l-0.1-0.3l-0.1,0l0.1,0.3H21.7z M23.9,63.3
			c0,0,0,0,0-0.2c-0.1,0-0.2,0.1-0.4-0.1l0.5,0.2L23.9,63.3z M22.9,60.7h0.4v0.2h-0.4V60.7z M23.9,62.1v-0.2l0.3-0.1l0,0.1
			L23.9,62.1z M22.9,60.7l-0.2-0.3l0.1,0l0.3,0.3L22.9,60.7z M26.7,65.7l-0.1-0.3l0.5-0.7l0.1,0.1L26.7,65.7z M23.9,61.1h0.2v0.3
			h-0.2V61.1z M23.7,60.9c0-0.1-0.2-0.4-0.3-0.4c0,0,0,0,0.1,0c0,0,0.1,0,0.1-0.1C23.7,60.5,23.7,60.6,23.7,60.9 M23.4,60.1L23.2,60
			l0.1-0.3l0.2,0L23.4,60.1z M26.9,63.7l0-0.1l-0.3,0.1v0.2L26.9,63.7z M27.2,63.7c-0.2,0-0.1,0.3-0.1,0.5l-0.9-0.2
			c0-0.1-0.1-0.2-0.1-0.4c0,0,0.1,0,0.3-0.1c0,0,0.1,0,0.2,0c0.2-0.1,0-0.3,0.2-0.5c0.2,0,0.3,0.3,0.2,0.4
			C27,63.4,27.1,63.6,27.2,63.7 M24.1,60.9v-0.2l0.7,0v0.2L24.1,60.9z M22.7,59v-0.2l0.5,0.1v0.2L22.7,59z M28.5,64.2l-0.1-0.1
			l-0.5,0.2l0.1,0.2L28.5,64.2z M25.1,60L25,59.8l0.2,0l0.1,0.3H25.1z M22.3,56.5v-0.2l-0.5,0v0.2L22.3,56.5z M23.5,57.6v-0.2l0.3,0
			v0.2L23.5,57.6z M27.2,61.6l0-0.2l0.3-0.1l0.1,0.1L27.2,61.6z M29.2,62.7c-0.1,0-0.1,0-0.2,0c0,0,0,0,0,0c0.1-0.1,0.1-0.2,0.1-0.4
			l-0.4,0l0.1,0.1l0,0c-0.2,0.3-0.3,0.5-0.4,0.4l0,0.9C29,63.3,29.3,63.2,29.2,62.7 M24.2,56.8c0,0.1-0.2,0.4-0.2,0.6
			c0-0.1-0.1-0.3,0.1-0.5c-0.1-0.1-0.1-0.1-0.3-0.1H24.2z M28.7,61.6c0.2-0.1,0.1-0.3,0.1-0.4L28.7,61.6z M25.6,57.4
			c-0.1,0-0.4-0.2-0.5-0.2c0.1,0,0.2-0.2,0.3-0.2C25.6,57.1,25.6,57.2,25.6,57.4 M31.4,63.5L31,63.3l0-0.2l0.5,0.3L31.4,63.5z
			 M32.9,65.1l-0.1-0.1l0.1-0.3l0.1,0L32.9,65.1z M24.5,55.3l-0.2-0.1l0.2-0.3l0.2,0.1L24.5,55.3z M24.4,54.3c0,0.1-0.1,0.4-0.2,0.5
			c0-0.1-0.1-0.3-0.1-0.5C24.2,54.4,24.4,54.4,24.4,54.3 M24,54.3L23.9,54l0.2,0l0.1,0.3H24z M23.4,52.7l0-0.5
			c-0.1,0-0.5,0.1-0.6,0.2c0,0.1,0.1,0.2,0.1,0.2v0.1H23.4z M29,58.9c-0.1,0-0.1-0.2-0.2-0.3c-0.1,0.1-0.2,0.2-0.5,0.2
			c0.1,0,0.3-0.3,0.5-0.4C28.9,58.5,29,58.7,29,58.9 M33.4,63.5l0-0.3l0.2,0l0,0.3L33.4,63.5z M28.6,57.7c0.3,0.1,0.1,0.5,0,0.5
			L28.6,57.7z M24.8,52.8l-0.2,0l0.2-0.5H25L24.8,52.8z M28.9,57.4v-0.2l0.3-0.1l0,0.1L28.9,57.4z M36.8,65.1v-0.2l-0.7,0v0.2
			L36.8,65.1z M25,52.2l-0.1-0.1l0.1-0.3l0.1,0L25,52.2z M29,56.8l-0.2-0.1l0.5-0.5l0.1,0.1L29,56.8z M31.5,59.9l-0.2-0.5l0-1
			c0.1,0.1,0.5,0.4,0.5,0.6c-0.4,0.2-0.2,0.7,0,0.9L31.5,59.9z M30.4,57.9v-0.2l0.3-0.1l0.1,0.1L30.4,57.9z M31.8,57.8
			c0,0.2-0.3,0.4-0.3,0.6c0-0.1,0-0.3-0.1-0.5C31.5,58,31.7,57.8,31.8,57.8 M24.2,50.1C24.2,50.1,24.2,50.1,24.2,50.1
			c-0.1-0.1-0.1-0.1-0.1-0.3C24.4,49.8,24.4,50.1,24.2,50.1 M33,58.6c0,0.1,0,0.3-0.1,0.3c0,0,0,0,0-0.1l-0.2-0.1
			C32.7,58.7,33,58.8,33,58.6 M32.2,57.9L32,57.7l0.1,0l0.1,0.3H32.2z M24.2,49h0.3v0.2h-0.3V49z M30.5,56.3l0-0.2l0.5,0l0,0.2
			L30.5,56.3z M31,54.5l0-0.3h0.2l0,0.3H31z M29,52.3l-0.1-0.1l0.4-0.2l0.1,0.1L29,52.3z M30.3,53.5l-0.2-0.3l0.1-0.1l0.3,0.3
			L30.3,53.5z M24.2,45.6c-0.1,0-0.3,0.2-0.4,0.3C23.8,45.5,23.9,45.4,24.2,45.6 M29.1,51.5v-0.2l0.5,0v0.2L29.1,51.5z M31.3,54
			l0-0.6c0,0.2,0.2,0.8,0.4,1L31.3,54z M30.9,52.8c0-0.1-0.2-0.3,0-0.5L30.9,52.8z M31,51.3h-0.2l0-0.4H31L31,51.3z M30.3,50.1
			l0-0.1l0.4-0.2l0,0.2L30.3,50.1z M31,50.5c-0.1-0.1-0.2-0.3-0.3-0.4c0,0,0,0,0.1,0c0,0,0.1-0.1,0.2-0.1C31.1,50,31,50.3,31,50.5
			 M31.6,51.3v-0.2l0.3-0.1l0.1,0.2L31.6,51.3z M33.6,51.6l-0.1-0.1l0.3-0.3l0.1,0.2L33.6,51.6z M34.2,50.7l-0.2,0l0.1-0.3l0.2,0.1
			L34.2,50.7z M25.3,39.8l-0.1-0.1l0.1-0.3l0.2,0L25.3,39.8z M34.2,48.9c0.1-0.1,0.2-0.3,0.3-0.3c0,0,0,0,0,0.1c0,0,0.1,0.1,0.1,0.2
			H34.2z M49.9,65.8l0-0.2l0.3-0.1l0,0.2L49.9,65.8z M50.3,64.8c-0.2,0.1-0.2,0.4-0.4,0.5c0-0.1-0.2-0.4-0.2-0.5L50.3,64.8z
			 M51.3,66.2c-0.1,0-0.2,0-0.3-0.1c0,0,0.1-0.1,0.1-0.1h0.1c0-0.1-0.3-0.4-0.5-0.5l0,0.9C51,66.3,51.2,66.2,51.3,66.2 M34.7,47
			c-0.1,0.2-0.4,0.5-0.5,0.7c-0.1-0.1-0.4-0.4-0.4-0.7c0-0.3,0.1-0.2,0.1-0.3h0.5v0.1c0,0,0,0.1-0.1,0.1C34.6,47,34.6,47,34.7,47
			 M34,46.4l-0.5-0.4l0.1-0.2l0.5,0.4L34,46.4z M50.5,64l0-0.3l0.2,0l0,0.3L50.5,64z M52.2,64.7C52.2,64.7,52.2,64.7,52.2,64.7
			c-0.2,0.2-0.5,0.7-0.8,0.9c0.1,0,0.5,0.1,0.6,0.1c-0.1-0.3,0.1-0.5,0.4-0.9L52.2,64.7z M51.8,63.6h-0.2l-0.2,0.5l0.2,0L51.8,63.6z
			 M38,47.6h-0.1L37.7,48l0.1,0.1L38,47.6z M37.5,47c-0.1,0-0.3,0.1-0.4,0.1c0-0.1,0.1-0.4,0.1-0.5C37.3,46.7,37.5,46.9,37.5,47
			 M36.9,45.5c-0.1,0-0.2,0.1-0.4,0.2c-0.1-0.1-0.3-0.1-0.2-0.5c0-0.3,0.3-0.5,0.4-0.5C36.7,45,36.9,45.3,36.9,45.5 M37.4,45.7
			l-0.1-0.1l0.5-0.3l0.1,0.1L37.4,45.7z M38.8,46.6l-0.1,0l0.2-0.3l0.1,0.1L38.8,46.6z M39.1,45.8c-0.1,0-0.3,0.2-0.4,0.4
			c0-0.1,0-0.5,0.2-0.7L39.1,45.8z M38.1,43.1c0,0.1-0.4,0.3-0.6,0.6c0,0.2,0.2,0.5,0.2,0.9c-0.1-0.2-0.3-0.4-0.4-0.3
			c0-0.1-0.1-0.2-0.1-0.5C37.2,43.4,37.8,43.2,38.1,43.1 M41,43.4c0-0.1-0.1-0.4-0.1-0.5c0.1,0,0.3,0.3,0.5,0.5L41,43.4z M40.6,42.3
			c0,0-0.1,0-0.2,0c-0.1-0.3-0.1-0.5-0.3-0.7c0.3,0.1,0.5,0.4,0.6,0.5L40.6,42.3z M41.1,41.3c0,0.1,0,0.2-0.1,0.2c0,0,0,0,0,0.1
			C41.4,41.8,41.2,41.4,41.1,41.3 M41.7,42.2l-0.2-0.4l0.2-0.1l0.2,0.4L41.7,42.2z M42,40.5c-0.1,0-0.2,0.1-0.2,0.3
			c-0.1,0-0.2,0-0.2,0l-0.1-0.1C41.4,41,41.7,40.7,42,40.5 M42.6,40.9c-0.1,0.1-0.3,0.3-0.5,0L42.6,40.9z M42.4,40l-0.2-0.1L42,40.2
			l0.2,0L42.4,40z M43,39.4l-0.2-0.1c0,0-0.1,0-0.1,0c0,0.1-0.1,0.4-0.4,0.5c0.1,0,0.2,0,0.2,0.1l0.1,0.1L43,39.4z M45.2,39.2
			c0,0-0.1,0-0.2,0v-0.1c0,0,0-0.1-0.1-0.2c0,0,0.1,0,0.1,0c0,0,0.1-0.1,0.2-0.1c0,0,0,0,0,0.1C45.3,39,45.3,39.1,45.2,39.2
			L45.2,39.2z M24.9,61.8c-0.1,0-0.4,0-0.6-0.1c0.2,0,0.3,0,0.4-0.1c0-0.1-0.3-0.1-0.4-0.4l0.4,0C24.8,61.4,24.9,61.6,24.9,61.8
			 M26.6,62.9L26.2,63v-0.2l0.3-0.1L26.6,62.9z M25.7,58.6c-0.1,0.4-0.5,0.6-0.6,0.9c0-0.1-0.1-0.4-0.4-0.6c0,0,0,0,0.1,0
			s0.1,0,0.2,0.1C25.3,59,25.4,58.7,25.7,58.6 M29.6,62.3h-0.2l0,0.6h0.2L29.6,62.3z M26.4,58.2L26,58.4v-0.2l0.3-0.1L26.4,58.2z
			 M29.9,59.4c0,0.1,0,0.2-0.1,0.4c0,0,0,0,0-0.1l-0.1-0.2h0.1C29.8,59.5,29.9,59.4,29.9,59.4 M30.6,59.2c0,0.2,0,0.7-0.1,0.9
			c0-0.2-0.1-0.3-0.3-0.3C30.3,59.7,30.4,59.5,30.6,59.2 M33.6,62.9l-0.2,0l0-0.5l0.2,0L33.6,62.9z M30.6,58.4l-0.1,0.3l-0.2-0.1
			l0.1-0.3L30.6,58.4z M33.3,61.2L33,61.3v-0.2l0.3-0.1L33.3,61.2z M29.7,57.2h-0.3l0-0.2h0.3L29.7,57.2z M24.7,45.9
			c-0.1,0-0.3-0.1-0.5-0.3c0.2-0.2,0.3-0.3,0.4-0.3C24.6,45.5,24.7,45.8,24.7,45.9 M31.4,52.9h-0.2l0-0.7h0.2L31.4,52.9z M51.3,63.1
			c-0.4,0-0.3-0.4-0.5-0.5c0,0.1,0,0.1-0.1,0.2s0,0,0,0.1c0.1,0,0.4,0.2,0.3,0.3l-0.2,0.2c-0.3-0.1-0.6,1-0.7,1.1
			c-0.1-0.2-0.3-0.3-0.2-0.6c0-0.3,0.1-0.2,0.1-0.3c0-0.2-0.2-0.4,0-0.6l-0.4,0.9c0.1,0,0.2,0.1,0.2,0.2c-0.2,0-0.6,0.1-0.8,0.2
			c0.2,0,0.3,0.1,0.3,0.2c0,0,0-0.1,0-0.1c0,0,0,0,0.1,0l0.2,0.2c-0.2,0.2-0.1,0.4-0.2,0.5L49,64.9l0-0.4c-0.4,0.7-0.5,1.3-0.5,1.7
			c-0.1,0-0.3-0.1-0.5-0.1c-0.1,0.2-0.2,0.4-0.4,0.5c0.1,0.4,0.3,0.7,0.1,0.9c-0.5,0.3-0.5,0.5-0.9,0.6c0.1,0,0.3,0.1,0.3,0.1
			L47,68.5c-0.1-0.2-0.2-0.2-0.3-0.1c0,0.3-0.2,0.6-0.4,0.9c-0.1-0.1-0.1-0.5-0.1-0.7c-0.5,0.5-0.9,1.1-1.3,1.8
			c0.1,0,0.3,0.1,0.1,0.3c-0.2,0-0.6,0.2-0.8,0.1c-0.1,0.5,0,0.5-0.4,0.9c-0.1-0.1,0-0.1-0.3-0.1c-0.3,0,0,0.2-0.3,0.2
			c-0.3,0-0.2-0.1-0.4-0.1c0,0.1,0,0.2-0.1,0.3c-0.3-0.2-0.5-0.6-0.7-0.8c-0.4,0.1-0.8,0.3-1.1,0.3c0-0.5,0.6-0.5,0.9-0.7
			c-0.1,0-0.2-0.2-0.1-0.3c-0.2,0-0.3,0.1-0.5,0.2c-0.2-0.5-0.6-0.7-0.7-1c0.1,0.1,0.1,0.2,0,0.3c-0.4-0.2-0.6-0.8-0.5-1.2
			c-0.1,0.1,0,0.1-0.3,0.1c-0.3,0-0.5-0.5-0.7-0.6c0-0.2-0.3-0.7-0.5-0.9c-0.3-0.3-0.9-0.7-1-1c0,0.1-0.1,0.3-0.3,0.1
			c0-0.1,0.3-0.3,0.3-0.5c-0.2,0-0.3,0-0.3-0.2c0,0.2,0.1,0.4,0,0.5L36.7,66c0.1-0.2-0.1-0.5,0-0.6c-0.1,0-0.2,0.1-0.5,0.1
			c-0.4,0-0.5-0.7-0.6-1.1c0.1-0.1,0.3-0.3,0.3-0.4c-0.1,0-0.1,0-0.2,0l-0.1-0.1c-0.1,0.1-0.2,0.5-0.5,0.5L35,64.2
			c0.4-0.2,0.4-0.5,0.7-0.6c-0.2,0-0.5-0.4-0.5-0.6c0-0.1-0.2,0-0.4,0c0-0.1,0-0.3-0.1-0.5c0,0.2,0,0.5-0.1,0.7l-0.2-0.2
			c0.1-0.5-0.3-0.7,0.1-1.1c-0.1,0,0,0.1-0.3,0c-0.1,0-0.1,0-0.1-0.1l0.1-0.1c0.1-0.1,0.2-0.2,0.1-0.4c-0.3-0.3-0.5-0.6-0.6-0.9
			c0.4-0.2-0.1-0.2-0.3-0.5c0.2-0.9-0.1-2.3-0.1-2.8c0,0-0.2-0.1-0.3-0.2c0.1-0.1,0.3-0.2,0.3-0.3c-0.1-0.4-0.4-0.6-0.4-1h0.1
			c0-0.3-0.1-0.6,0.1-0.8c-0.1-0.3-0.2-0.7-0.3-0.9c0.1-0.1,0.2-0.1,0.2,0l-0.4-0.2c0,0.1,0,0.1,0.1,0.2c0,0,0.1,0,0.2,0l-0.2-0.3
			c0.2-0.4,0.2-0.9,0.7-1c-0.2-0.2,0-0.4-0.2-0.5c0.6-0.4,0.7-0.8,1-1.3c-0.1-0.7-0.1-1.1,0.3-1.6c0.1,0.2,0.1,0.4,0,0.5
			c0.2,0,0.4,0,0.5,0.1c-0.2-0.3-0.1-0.6,0.3-1c0.1,0.2,0.2,0.4,0.4,0.4c0.2-0.1,0.5-0.4,0.7-0.3c-0.1-0.3-0.1-0.5,0-0.5
			c0.2,0,0.3,0.1,0.3,0.2c0.2-0.1,0.3-0.2,0.5-0.2c-0.1-0.6,0.9-0.8,1.4-0.8c0.3,0,0.2-0.6,0.5-0.9c-0.1,0-0.2,0-0.3-0.2
			c0.2-0.1,0.2-0.5,0.3-0.3c-0.1-0.1-0.1-0.1,0-0.2c0.2,0.3,0.4,0.5,0.3,0.7l0.3-0.3l0-0.9c0,0,0.1,0,0.1-0.1l0.1-0.1
			c-0.3-0.1-0.5-0.3-0.5-0.5c0-0.3,0.1-0.4,0.4-0.4c0.3,0.4,0.4,0.3,0.3,0.9c0.2-0.2,0.3-0.2,0.5-0.2c-0.1,0.4-0.4,0.6-0.4,0.9
			c0.1,0,0.2,0,0.2,0.1c0,0,0,0,0.1,0c0.1-0.2,0-0.5,0.1-0.7c0.3,0.1,0.5,0.2,0.5,0.2c-0.1-0.1-0.2-0.3-0.3-0.4
			c0.3-0.3,0.7-0.4,0.9-0.4c-0.1-0.4,0-0.4,0-0.9c0.5,0,1,0.1,1.2,0.1c0.2-0.6,0.4-1.1,0.5-1.7c0.1,0-0.1,0-0.2,0.1
			c0,0-0.1-0.1-0.1-0.2c0,0,0,0,0,0c0.2-0.1,0.2-0.1,0.3-0.1c0-0.2-0.1-0.5,0.4-0.8c0.1,0.1,0.2,0.2,0.2,0.4c-0.1,0.1-0.3,0-0.5,0.1
			c0.1,0,0.3,0.1,0.5,0.3c-0.2,0.2-0.3,0.5-0.4,0.8c0,0,0.1,0,0.2,0.1c0,0,0,0.1,0.1,0.1l0.3-0.2c0.2-0.1,0.3-0.3,0.4-0.5l0.3,0.3
			c-0.2-0.2-0.3-0.8,0.2-1.1c0.1,0.2,0.3,0.5,0.5,0.4c-0.3-0.3-0.1-0.6,0.1-0.8c0.2,0.2,0.3,0.5,0.3,0.7c0-0.1,0.2-0.1,0.4-0.1
			c0-0.5,0.2-0.7,0.5-1c0.1,0.2,0,0.4,0,0.5c0-0.2,0.3-0.4,0.3-0.5l-0.2-0.2l0.2-0.2c0.4-0.1,0-0.7,0.1-1c-0.1,0.2-0.1,0.4-0.1,0.5
			c-0.2,0-0.1,0.1-0.5,0.1c0,0-0.2-1.2-0.6-1.6c0-0.1,0.2,0,0.5,0.1c-0.1-0.4-0.2-0.9-0.3-1.3c-0.7,0.2-1,0.6-1.4,0.9
			c-0.1,0-0.1-0.1-0.2-0.1l-0.1,0v0.5c0.4,0,0.7,0,0.8,0l0.2,0.2c-0.2,0.2-0.5,0.2-0.6,0.2c0.1,0.1,0.1,0.2,0,0.3
			c-0.1-0.1-0.3-0.2-0.5-0.3c-0.4,0-0.4,0.9-0.4,1c-0.3,0.2-0.3,0.7-0.6,0.8c-0.1-0.1-0.2,0-0.2-0.2c0.3-0.2,0.3-0.6,0.5-0.6
			c-0.1,0,0,0-0.3,0c-0.3,0-0.3-0.2-0.5-0.2c0,0.5-0.3,0.9-0.8,1.3l-0.1-0.2c0.1-0.1,0.2-0.2,0.2-0.2c-0.6,0-0.8,1.1-1.3,1.1
			c-0.3,0-0.5-0.2-0.7-0.4c0,0.2,0.1,0.4,0,0.5c-0.1-0.1-0.4-0.4-0.5-0.4c-0.4,0.5-1.4,1-1.4,1.4c0.1,0,0-0.2,0.3-0.2
			c0.8,0,0.6-0.5,0.8-0.7c0.3,0.2,0.4,0.2,0.3,0.5c0,0.3,0,0.1-0.1,0.3l-0.2-0.2c0.1,0.3,0,0.4-0.2,0.6c-0.1-0.2-0.2-0.3-0.2-0.3
			c-0.2,0.5-0.5,1.4-0.5,1.6c0,0.3,0,0.8,0,1.3c-0.1,0,0-0.2-0.4-0.2c-0.1-0.4,0-0.7,0-0.9c-0.2-0.1-0.3-0.3-0.2-0.5
			c0.2-0.3,0.1-0.7,0.2-1c0-0.1-0.2-0.2-0.3-0.4c-0.1,0.6-1.4,0.3-1.2,1.2c0,0,0.1,0,0.2,0h0c-0.4,0.1-0.5,0.3-0.9,0.5
			c0,0-0.1-0.1-0.2-0.1H36c0.1,0.1,0.3,0.1,0.5,0.2c-0.4,0.3-0.1,0.2-0.3,0.5c-0.3,0.1-0.6,0-0.9,0.1c-0.4,0.5,0,0.5-0.4,1.1
			c0-0.1-0.1-0.2-0.1-0.5c0,0.4-0.1,0.5-0.3,0.9c0-0.2-0.2-0.3-0.4-0.5c0.2-0.1,0.2-0.3,0-0.4c-0.4,0.2-0.9,0.8-1.2,1
			c-0.1-0.1,0-0.2-0.2-0.2c0,0,0,0.1,0,0.2c0,0,0,0,0,0.1c0.1,0.1,0.2,0,0.3,0.2l-0.8,0.5C32,47.3,32,47.2,32,47.2c0,0,0,0,0,0
			c0.2,0.1,0.4,0.2,0.4,0.3c-0.1,0.1-0.2,0.1-0.3,0c0,0.5,0.1,1-0.1,1.2c0-0.2-0.3-0.3-0.5-0.3c0.5,0.7,0.1,0.9,0,1.4
			C31,49.6,30.4,49.1,30,49c-0.1,0-0.2,0-0.3,0.1c0,0,0,0,0,0c0,0.1,0.2,0.1,0.3,0.2c-0.3,0.1-0.5,0.2-0.5,0.3
			c-0.4,0.4-0.5,0.7-0.6,1c-0.2,0.4,0.2,0.5-0.3,0.8l-0.1,1.1c0.4-0.1,0.5-0.3,0.9-0.2l0,0.3L29,52.9c-0.2-0.1-0.4,0-0.5,0
			c0.1,0.2,0.2,0.7,0.4,0.9c-0.1,0.1-0.3,0.1-0.5,0.3c0.5,0.3,0.1,0.9,0,1.1c0.1,0,0.1-0.1,0.4-0.1c0.3,0,0.1,0,0.2,0.2
			c-0.1,0-0.1,0.2-0.3,0.4l-0.4-0.4c0,0.1,0.1,0.3,0,0.5c-0.2-0.2-0.3-0.3-0.5-0.4c0.1,0.5-0.4,0.9-0.5,1.1c0.2,0.2,0.3,0.5,0.5,0.6
			v0.3c-0.1,0.1-0.3,0.2-0.4,0.3c-0.2-0.4,0-0.7-0.2-0.9c-0.1,0.3-0.3,0.5-0.5,0.5c0.2,0.4,0.6,1.1,0.9,1.6
			c-0.4,0.3-0.6,0.5-0.6,0.7c0.2,0.1,0.1-0.2,0.5-0.2c0.2,0,0.6,0.2,0.6,0.3L28.2,60c-0.1-0.1,0.1-0.1-0.2-0.2c-0.3,0-1,1.7-1.4,2.2
			c0.1-0.1,0.3-0.2,0.5-0.3c0.1,0.3,0,0.3,0,0.5c-0.8-0.1-0.5,0.4-1.1,0.5l0-0.5c0.4-0.5,0.7-0.9,1.1-1.2c-0.3-0.3-0.5-0.3-0.5-0.6
			l0.2-0.2c0.1,0,0.2,0.2,0.4,0.2c0-0.1,0-0.1,0-0.2c0,0,0,0,0-0.1c-0.2-0.5-0.4-1-0.4-1.3c0,0,0.3-0.5,0.3-1l-0.4,0.5
			c-0.1-0.5-0.1-0.9-0.3-1.4c0.1-0.1,0.2-0.3,0.2-0.4c-0.2,0-0.4,0-0.6-0.1c0.1-0.1,0.3-0.1,0.5-0.2c-0.2,0-0.5-0.1-0.6-0.3v-0.3
			l0.2-0.2c0,0,0.1,0.1,0.2,0.1h0.1c-0.1-0.2-0.3-0.4,0-0.8c0.1,0.1,0.2,0.1,0.3,0.3c-0.2-0.3-0.3-0.6-0.5-0.9c0,0,0.2,0,0.3,0.1
			c-0.1-0.5,0.2-0.9,0.2-1.2c-0.2-0.2-0.5-0.1-0.7-0.3v-0.3c0.2-0.1,0.5-0.1,0.7-0.1c0-0.1-0.1-0.3-0.1-0.5c0,0-0.1,0-0.2,0.1
			c0,0-0.1,0-0.1,0c0.1,0,0.4,0,0.4,0.2l-0.4,0.1c-0.1-0.1,0-0.1-0.2-0.3l0.4-0.7c-0.1,0-0.3,0-0.5-0.2c0.2-0.2,0.4-0.3,0.6-0.3
			l0.1-1.8c-0.1,0-0.1,0-0.2,0c0,0,0,0-0.1,0L26,48.9c0.4-0.1,0.5-0.5,0.7-0.7c-0.1,0-0.3,0-0.4,0.2l-0.2-0.2
			c0.7-0.6,0.2-1.6,0.7-1.9c-0.1-0.1-0.4-0.3-0.5-0.3c0,0.1,0,0.4-0.1,0.5c0,0-0.1,0-0.1,0c0,0,0,0,0,0c0.1-0.4,0.1-0.6,0.2-0.8
			c0.2,0.1,0.4,0.2,0.5,0.2v-0.6c-0.1,0,0,0.1-0.3,0c-0.3,0-0.1-0.1-0.1-0.2c0.2-0.1,0.6-0.4,0.7-0.6c-0.2-0.1-0.2,0-0.5,0l0-1.1
			l0.2-0.1c0,0,0,0.1,0.1,0.1h0.1c0-0.2-0.1-0.2-0.3-0.4c0.3,0,0.5,0,0.5-0.3c0-0.3-0.2-0.7-0.3-0.8c0.1-0.3,0.1-0.5,0-0.6
			c-0.1-0.1-0.2-0.2-0.2-0.2c0.2,0,0.4,0,0.5,0l0-0.9c0-0.4,0.3-1,0.4-1.2c-0.2-0.1-0.3-0.3-0.5-0.6c0.1-0.1,0.3,0,0.5,0
			c-0.3-0.5,0.3-1,0.3-1.7c0-0.4-0.2-0.5-0.2-0.7l-0.3,0.2c-0.1,0-0.2-0.1-0.3-0.1c-0.2,0.3-0.3,0.5-0.5,0.7
			c-0.4-0.2-0.7-0.1-0.9-0.2c0.1,0.1,0.3,0.1,0.4,0.3c-0.5,0.4-1,0.5-0.5,1.1c-0.1,0.1-0.1,0-0.3,0c0.1,0.1,0.4,0.3,0.4,0.5
			c-0.2,0.2-0.5,0.5-0.6,0.4c0.4,0.7-0.6,1-0.6,1.3c0.1,0,0.2,0,0.3,0l0.2-0.1l0,0.5c-0.1,0.2-0.5,0.5-0.5,0.8
			c-0.1,0.5,0.3,0.3,0.2,1.3c0.1,0,0.2,0,0.3,0.2c-0.2,0.2-0.2,0.5-0.4,0.7c0,0-0.1,0-0.3-0.2c0.2-0.2-0.1-0.5-0.1-0.6
			c-0.1,0-0.1,0.2-0.2,0.3c0.1-0.1,0.2-0.1,0.4,0c-0.4,0.2,0.1,0.5,0.2,1c-0.6,0.4-0.5,0.5-0.6,0.8c0,0,0.1,0,0.2,0v0.1
			c-0.3,0.1-0.5,0.1-0.5,0.1v0.5c0,0.1,0,0.2,0,0.2l0,0h0.4l0.2,0.2c-0.1,0.3,0.3,0.6-0.1,1c0.1,0,0.3,0,0.3,0.3s0,0.2-0.2,0.3
			c-0.2,0-0.2-0.3-0.4-0.3c-0.4,0.2-0.1,1-0.7,1.3c0.2,0.1,0.5,0.5,0.5,0.8c0,0.3,0,0.2-0.1,0.3c-0.2,0-0.3-0.1-0.5-0.2
			c0.1,0.2-0.2,0.2-0.2,0.5c0,0.3,0.4,0.6,0.5,0.9h-0.3c0,0-0.1-0.1-0.1-0.1c0,0,0,0,0-0.1c0,0.1,0,0.3,0.2,0.4L23,51.4
			c-0.1,0-0.2-0.1-0.4-0.1c0.2,0.2,0.2,0.5,0.2,0.6c0.5-0.1,0.8-0.1,0.9,0L23.6,52l0.7,0.4c-0.2,0.2-0.5,0.4-0.7,0.8
			c-0.1,0-0.2-0.1-0.2-0.1h-0.1c0.1,0.1,0.1,0.3,0,0.4c-0.4-0.1-0.5-0.5-0.8-0.7l0,0.5c0,0,0.1,0,0.2,0l0.1,0l0.2,0.1
			c-0.6,0.2,0.2,0.1-0.3,0.5c-0.1,0-0.2-0.1-0.4-0.1c0.5,0.2,0.4,0.6,0.5,0.9c-0.3,0.2-0.7,0.3-0.9,0.7c0.2,0.3,0.4,0.5,0.5,0.6
			c0-0.2-0.3-0.5-0.3-0.7c0.1-0.1,0.3-0.1,0.4-0.2C22.8,56,23,55.9,23,56c0.1-0.4-0.6-0.6,0.1-1c0,0.2,0,0.3,0,0.4
			c0.3,0.1,0.3,0.3,0.3,0.4c0,0.3-0.2,0.8-0.5,1.3c-0.1-0.7-0.4-0.4-0.8-0.5l0,1.1c0.1,0,0.2,0.2,0.2,0.4c0.1,0.1,0.3,0,0.4,0.2
			c-0.2,0-0.2,0.2-0.4,0.2c0,0-0.1-0.1-0.1-0.1c0,0,0,0,0-0.1c-0.1,0.4-0.2,0.9-0.3,1.2c0.1,0,0-0.2,0.3-0.2s0.6,0,0.8,0.2
			c-0.4,0.1-0.8,0.3-1.1,0.2c0.2,0,0.3,0.1,0.3,0.2c0.1,0,0.4,0,0.6,0c0.3,0,0.1,0,0.2,0.2c-0.3,0-0.8,0.3-1,0.6
			c0.1,0.1,0.4,0.1,0.5,0.2c0,0.7,0.5,1.1,0.8,1.3c-0.2,0.4-0.4,0.6-0.5,0.9c0,0.1-0.2,0.1-0.4,0.2c0,0.2-0.2,0.3-0.1,0.5
			c-0.2,0.2-0.2,0.6-0.4,0.6l0.5,0.1v0.3c-0.1-0.1-0.4,0-0.5,0c0.3,0.7,0,1.3-0.1,1.4c0.2-0.2,0.3-0.6,0.9-0.6L22.5,66
			c0.5,0.5,0.3,0.9,0.2,1c0,0,0.1,0,0.3,0.2c-0.4,0.2-0.8,0.3-1.1,0.1c0-0.2-0.1-0.5-0.1-0.7l-0.3,1.5l0.5,0.6
			c-0.1,0.4-0.4,0.8-0.4,1.1c0.1-0.2,0.3-0.5,0.4-0.5c0.1,0.4,0.2,0.7,0.3,0.8c0.1-0.2,0-0.3,0.4-0.3c0.3,0,0,0.5,0,0.9
			c0.2-0.2,0.6-0.3,0.9-0.3c0.3,0,1.4,0.7,1.7,0.9c-0.1,0.2-0.2,0.4-0.2,0.5c0.1,0,0.1-0.1,0.3-0.3c0,0.1,0.1,0.1,0.2,0.1h0.1
			c0-0.5,0.2-0.8,0.4-1c0.1,0.3,0.1,0.4,0.1,0.5l0.4,0.1c0-0.2,0.1-0.4,0.3-0.5c-0.1,0,0,0-0.3,0c-0.9,0-0.3-1.9-0.2-2.1l-0.4-0.2
			c0-0.5,0.1-0.9,0.1-1.5c0.4,0.2,0.5,0.3,0.6,0.7c-0.2,0.1-0.4,0.3-0.5,0.5c0.2,0,0.4,0.2,0.4,0.4l-0.4,0.5
			c0.4-0.2,0.5-0.5,0.7-0.7c0,0.3,0,0.6,0.2,1.2c-0.5,0.1-0.5,0.2-0.9,0.5l0.7,0.3c0.2-0.3,0.4-0.7,0.4-1c0-0.5-0.1-0.7-0.2-0.9
			c0.3-0.4,0.5-0.5,0.6-0.8l0-1.8c-0.5-0.2-0.1-0.4-0.1-0.5c0.1,0.2,0.4,0.3,0.4,0.1c0-0.8-0.2-0.8-0.3-0.9c0-0.2,0-0.5,0.1-0.7
			c0,0-0.1,0-0.1,0c0,0,0,0-0.1,0l0.2-0.2c-0.1,0-0.3-0.2-0.4-0.3c0.2-0.1,0.3-0.2,0.5-0.2c0.1-0.1,0-0.4,0.4-0.6l0.2,0.2l0.2-0.6
			l-0.4-0.4c0.2-0.2,0.5-0.7,0.9-0.9c-0.1,0-0.3,0-0.5-0.1c0.3-0.2-0.1-0.2,0-0.9c0.2,0.1,0.3,0.3,0.5,0.4c-0.3-0.4-0.2-0.8,0.1-0.9
			l0.2,0.2c0,0.7,0.1,1.4,0.1,1.9c0.1,0,0-0.3,0.3-0.3c0.3,0,0.4,0.1,0.5,0.3c0-0.2,0.2-0.5,0.2-0.7l0.3,0.4l0.1,1.3
			c-0.4,0-0.4,0.5-0.6,0.4c0-0.2,0-0.6,0.1-0.8c-0.1,0-0.1,0-0.2,0c0,0,0,0,0,0c0.1-0.1,0.2-0.1,0.2-0.2c-0.2,0-0.3,0-0.4-0.1
			c0,0.2-0.3,0.3-0.3,0.5c0.2,0.4,0.2,0.9,0.2,1.1c0.8,0.1,0.5,0.6,1,0.9l-0.2,0.2c0,0,0.1,0,0.2,0c0,0,0,0,0,0
			c-0.2,0.5,0.3,1.2,0.5,1.4l0.3-0.2l0.1,0.2c-0.1,0.1-0.2,0.2-0.2,0.3c0.2,0,0.4,0.1,0.4,0.2c0-0.1,0-0.1,0-0.2c0,0,0,0,0,0
			c0.1,0.2,0.4,0.4,0.5,0.5c-0.1-0.1-0.1-0.2,0-0.4c0,0.1,0.1,0.2,0.2,0.2h0l0.1,0.1c0,0,0,0,0,0c-0.1,0.5,0.1,1,0,1.4
			c0.2,0.1,0.7,0.2,0.9,0c0-0.1-0.2-0.3,0-0.4H34l0.1,0.1c-0.7,0.2-0.1,0.2-0.2,1.5c0.1-0.2,0.3-0.3,0.5-0.4c0.1,0.4,0.4,0.7,0.4,1
			c0.1-0.1,0.2,0,0.5,0.1l-0.1,0.1l0,0c0.2,0.1,0.3,0.3,0.2,0.5l-0.2,0.3c0.2,0,0.5,0.1,0.7,0.1c0.2,0,0.4,0.3,0.6,0.4
			c0-0.1-0.1-0.2,0.2-0.2c0,0,0.8,0.7,0.9,1.2c0.1,0,0.1-0.1,0.4,0c0.3,0,0,0.3,0.1,0.5c0.1,0,0.1-0.2,0.2-0.2
			c0.1,0,0.1,0.2,0.1,0.3c0.1-0.2,0.1-0.5,0.3-0.5c0.1,0.3,0.2,0.5,0.1,0.5c0.1,0,0-0.1,0.4-0.1c0,0,0.4,0.8,0.7,1
			c-0.1,0.1-0.2,0.1-0.2,0.3h0.5c0,0,0-0.1,0-0.1c0,0,0,0,0-0.1c0.3,0.3,0.4,0.3,0.5,0.6c0.4-0.1,0.5-0.5,0.8-0.4
			c0.3,0,0.4,0.1,0.4,0.2c0.3-0.2,0.3-0.5,0.5-0.4c0.1,0.5,0,0.6,0,0.8c0.1-0.1,0-0.2,0.4-0.2c0.3,0,0.3,0.3,0.4,0.3
			c0-0.1,0.2-0.4,0.5-0.4c0.3,0,0.4,0.2,0.5,0.2c0.1-0.2,0.3-0.5,0.4-0.8c0,0,0,0,0.1,0c0,0,0,0,0,0c-0.1,0.4-0.2,0.7-0.1,0.8
			c0.1-0.1,0.2-0.3,0.5-0.5c0,0.2,0,0.3,0,0.4h0.4l0.5-0.7c0.1,0.3,0.3,0.6,0.5,0.7c-0.1-0.2-0.1-0.4,0-0.5c0.2,0,0.1,0.1,0.6,0.1
			c-0.2-0.2-0.5-0.1-0.5-0.3c0,0,0.2-0.1,0.3-0.1c-0.1-0.2-0.1-0.4,0-0.5c0,0.1,0.1,0.5,0.5,0.6c0.1-0.2,0.2-0.2,0.5-0.5
			c0.1,0,0.1,0.3,0.4,0.3c0.3,0,0.3-0.2,0.5-0.4l0-0.9c-0.1,0-0.1,0-0.2,0c0,0,0,0,0,0c0.1,0,0.2-0.1,0.2-0.1h0l-0.1-0.1
			c0,0,0-0.1,0-0.2c0.8,0,0.7-0.9,0.9-1c0.1,0.1,0.1,0.3,0.3,0.5c0.1-0.3,0.5-0.8,0.5-1.1c0-0.3-0.8,0-0.1-1l0.3,0.3
			c0,0-0.1,0.1-0.1,0.2s0,0,0,0.1c0.2-0.3,0.4-0.6,0.4-0.9c0,0.1-0.1,0.3-0.5,0.4c0.1-0.1,0-0.4,0-0.5c-0.3,0-0.4-0.4-0.7-0.4
			c0.2-0.1,0.3-0.1,0.5-0.1c0-0.5,0-1.2,0.2-1.5c-0.2-0.2-0.5-0.3-0.5-0.5c0-0.2-0.1-0.1,0.1-0.2c0.2,0.2,0.3,0.3,0.5,0.3
			c0.3-0.5,0.1-0.6,0.1-1c0.1-0.4,0.2-0.7,0.5-0.8c0.1,0.3,0.1,0.8,0.4,1.1c0-0.1,0.3-0.2,0.3-0.5c0-0.3-0.5-0.9-0.8-1.3
			c0.5-0.1,0.7-0.5,1-0.5H51.3z M52.6,63.4c0-0.3-0.5-0.9-0.2-1.3c-0.5,0.1-0.1-0.2-0.1-0.6c0,0.1,0.1,0.2-0.2,0.2
			c-0.3,0-0.2-0.3-0.5-0.5c0.2,0,0.3,0,0.5,0c0-0.2-0.1-0.7-0.2-0.9c0,0.1-0.1,0.3,0,0.5c-0.1,0.1-0.2,0-0.3-0.1
			c-0.1,0.4,0,0.8-0.2,1.1l-0.3-0.3c0,0.3,0,0.5,0.2,0.7c0.1,0,0-0.2,0.4-0.2c0.6,0.1,0.7,1.8,0.5,2.2C52.3,64,52.6,63.7,52.6,63.4
			 M46.7,40.5l-0.3,0.3l-0.1-0.1l0.3-0.3L46.7,40.5z M46.3,39.4c-0.2,0-0.5,0.2-0.6,0.4c0-0.2,0.3-0.6,0.5-0.7c0,0,0,0,0,0.1
			C46.2,39.2,46.2,39.4,46.3,39.4 M47.3,39.9l0,0.2L46.9,40l0.1-0.2L47.3,39.9z M48.3,38.4c-0.1,0.4-0.1,0.4-0.3,0.7
			c0.2,0.1,0.3,0.4,0.5,0.5c0-0.1,0-0.1,0-0.2l0.1,0c0-0.2-0.2-0.2-0.3-0.4c0.2-0.1,0.4-0.3,0.5-0.6L48.3,38.4z M22.5,69.4
			c-0.3-0.4-0.5-0.7-0.5-1.1c0.5,0.2,0.9,0.8,0.9,1.1H22.5z M23.2,68.8l-0.1,0.1L22.7,68l0.2-0.1L23.2,68.8z M27.1,70.1l-0.3,0.1V70
			l0.3-0.2L27.1,70.1z M34.2,67.9H34v-0.3h0.2V67.9z M33.9,66.5l-0.1,0.3l-0.1-0.1l0.1-0.3L33.9,66.5z M34.3,67.1
			C34.2,67.1,34.2,67.1,34.3,67.1C34.1,67,34,67,34,66.9c0.1-0.2,0.2-0.5,0.4-0.7L34.3,67.1z M38.2,68.6l-0.3,0.3l-0.1-0.1l0.3-0.2
			L38.2,68.6z M37.3,67.1l-0.5,0.3l-0.1-0.1l0.5-0.4L37.3,67.1z M36.9,67.1l-0.7-0.4c0-0.1,0.2-0.4,0.3-0.6c0.1,0.1,0.1,0.3,0.4,0.5
			V67.1z M38.2,68.1c0,0.3-0.3,0.3-0.2,0.5c-0.2-0.2-0.4-0.3-0.4-0.6c0-0.2,0.1-0.4,0.3-0.3l0.1,0.1C38.1,67.9,38.2,67.9,38.2,68.1
			 M40.6,70.5l-0.4,0v-0.2l0.4,0V70.5z M38.5,67.8h-0.3v-0.2h0.3V67.8z M44.1,72.4l-0.2,0.5l-0.1-0.1l0.1-0.4H44.1z M45.7,74.3
			l-0.4,0.1v0.1l0.4-0.1L45.7,74.3z M44.5,71.6c0.3-0.3,0.3-0.4,0.5-0.5L44.5,71.6z M47.2,72.7L47,73L46.8,73l0.2-0.3L47.2,72.7z
			 M48.3,72.3L48,72.4v-0.1l0.3-0.1L48.3,72.3z M47.2,68.9L46.9,69v-0.1l0.3-0.1L47.2,68.9z M48.1,69l-0.3,0.5l-0.2-0.1l0.3-0.5
			L48.1,69z M48.1,68.2c-0.1,0-0.5,0.2-0.7,0.2c0-0.1,0.1-0.5,0.3-0.7C47.9,67.9,48.1,68,48.1,68.2 M49.4,68.2h-0.2l-0.1-0.3l0.1,0
			L49.4,68.2z M51,68.3c-0.2-0.2-0.1-0.5-0.5-0.7h-0.4v0.6c0.1,0,0-0.1,0.4-0.1C50.9,68.2,51,68.2,51,68.3 M51,66.6
			c-0.2,0.3-0.3,0.6-0.4,0.6c0.1,0,0.4,0.1,0.5,0.1L51,66.6z"/>
	</g>
	<g clip-path="url(#SVGID_2_)">
		<polygon fill="#FFFFFF" points="260.9,115.6 157,115.6 157,109.3 254.7,109.3 254.7,6.2 6.2,6.2 6.2,109.3 96.3,109.3 96.3,115.6 
			0,115.6 0,0 260.9,0 		"/>
	</g>
</g>
</svg>
